<?xml version="1.0" standalone="no"?>
<!DOCTYPE svg PUBLIC "-//W3C//DTD SVG 1.1//EN" "http://www.w3.org/Graphics/SVG/1.1/DTD/svg11.dtd" >
<svg xmlns="http://www.w3.org/2000/svg">
<metadata></metadata>
<defs>
<font id="gabercorbold_italic" horiz-adv-x="1024" >
<font-face units-per-em="2048" ascent="1536" descent="-512" />
<missing-glyph horiz-adv-x="854" />
<glyph horiz-adv-x="0" />
<glyph horiz-adv-x="0" />
<glyph unicode="&#xd;" horiz-adv-x="512" />
<glyph unicode=" "  horiz-adv-x="854" />
<glyph unicode="&#x09;" horiz-adv-x="854" />
<glyph unicode="&#xa0;" horiz-adv-x="854" />
<glyph unicode="!" horiz-adv-x="430" d="M-135 92l2 6q4 63 40 101.5t93 38.5q53 0 85 -34t32 -89q0 -63 -37 -102.5t-96 -39.5q-53 0 -86 32t-33 87zM18 391q12 39 20.5 68.5t16.5 57.5t15.5 57.5t15.5 70.5q12 57 22.5 111.5t21.5 114t21.5 127t22.5 151.5q16 125 55 181t105 56q47 0 76.5 -30.5t29.5 -79.5 q0 -25 -4 -47.5t-17 -57t-37 -87t-63 -136.5q-31 -63 -56 -119.5t-49 -120t-49.5 -140l-60.5 -181.5l-6 -22z" />
<glyph unicode="&#x22;" horiz-adv-x="788" d="M174 1364h160l-33 -561h-94zM453 1364h159l-32 -561h-95z" />
<glyph unicode="#" horiz-adv-x="1163" d="M84 449l2 116h240l39 260h-222l2 117h238l66 422h114l-63 -422h264l63 422h119l-65 -422h204l-2 -117h-219l-41 -260h207l-2 -116h-221l-72 -449h-117l68 449h-264l-68 -449h-114l67 449h-223zM440 565h267l38 260h-264z" />
<glyph unicode="$" horiz-adv-x="1064" d="M-18 182q0 27 19 55.5t50 47.5q31 18 60 18q31 0 43 -17.5t28 -76.5q12 -51 31.5 -77t58.5 -42l144 502q-102 115 -150.5 213t-48.5 192q0 80 31 150t85 120t128 79.5t160 29.5h20l55 189h95l-54 -191q47 -8 89 -26.5t74 -41t50.5 -49t18.5 -53.5q0 -31 -21.5 -62.5 t-52.5 -47.5q-25 -12 -47 -13q-29 0 -41 16.5t-23 63.5q-10 45 -27.5 69.5t-49.5 41.5l-132 -457q47 -47 82 -91t64 -91q39 -59 54.5 -110.5t15.5 -112.5q0 -63 -23 -127t-61.5 -118t-92 -95t-116.5 -64q-39 -12 -69 -17t-93 -7l-57 -205h-97l60 205q-55 10 -102.5 30.5 t-83.5 47t-55 58.5t-19 64zM362 72q104 2 164 61.5t60 159.5q0 59 -24.5 115.5t-72.5 103.5zM418 1106q0 -51 25.5 -109.5t62.5 -95.5l112 393h-28q-72 0 -122 -54t-50 -134z" />
<glyph unicode="%" horiz-adv-x="1273" d="M72 0l925 1323h115l-928 -1323h-112zM72 860q0 96 26.5 183t70.5 154t103.5 106.5t122.5 39.5q80 0 129 -54t49 -146q0 -98 -26.5 -188.5t-70.5 -159t-103.5 -109.5t-124.5 -41q-78 0 -127 58.5t-49 156.5zM213 786q0 -66 43 -65q55 0 90 90q16 39 30.5 90t25 104.5 t17.5 104.5t7 90q0 70 -41 70q-68 0 -127 -219q-23 -78 -34 -142.5t-11 -117.5v-5zM604 195q0 96 26.5 183t70.5 153.5t103.5 106.5t123.5 40q80 0 129 -55.5t49 -145.5q0 -100 -26.5 -190t-70.5 -159t-103.5 -108.5t-125.5 -39.5q-78 0 -127 58.5t-49 156.5zM745 121 q0 -68 43 -68q55 0 91 90q16 39 30.5 91.5t24.5 105.5t17 104.5t7 90.5q0 31 -11 49t-29 18q-35 0 -66 -52t-61 -165q-23 -78 -34.5 -143.5t-11.5 -116.5v-4z" />
<glyph unicode="&#x26;" horiz-adv-x="1857" d="M-23 498q0 96 35 188t92.5 164t132 115t152.5 43q43 0 80 -15.5t84 -54.5q37 47 73 112.5t74 161.5l9 17l20 -2q55 -2 86 -20.5t31 -53.5q0 -10 -5 -22.5t-17.5 -33t-36 -50t-60.5 -76.5q-43 -53 -94 -111.5t-96 -105.5l-349 -363q47 -102 145.5 -156.5t235.5 -54.5 q346 0 607 322q25 29 42 51t31.5 43.5t27.5 46.5t32 57q-8 4 -12.5 6.5t-8.5 4.5q-12 4 -82 43q-92 51 -139 68.5t-92 17.5q-35 0 -61.5 -22.5t-26.5 -51.5q0 -37 49 -39q63 -6 89 -23.5t26 -52.5q0 -29 -20.5 -58.5t-51.5 -45.5q-29 -16 -55 -17q-59 0 -100.5 44t-41.5 108 q0 35 16.5 82t45.5 88q49 72 112.5 113t128.5 41q29 0 55.5 -5.5t61.5 -19.5t81 -36.5t110 -59.5q315 -180 354 -180q25 0 25 22q0 10 -13.5 28.5t-48.5 59.5q-23 31 -22 47q0 16 11 39t27 39q18 23 37 23q18 0 36 -19.5t32 -54.5q20 -55 20 -96q0 -49 -15 -93.5t-43 -76 t-64.5 -51t-79.5 -19.5q-55 0 -109 25l-143 69l-19 8l-18 -32q-51 -92 -91 -157t-76 -114t-71 -88t-78 -80q-225 -211 -503 -211q-119 0 -222.5 40t-179.5 111t-119 167t-43 207zM133 633q0 -45 5 -77t22 -81l205 225q16 18 27 38t11 36q0 35 -38.5 57.5t-96.5 22.5 q-135 0 -135 -221z" />
<glyph unicode="'" horiz-adv-x="393" d="M117 1364h159l-32 -561h-94z" />
<glyph unicode="(" horiz-adv-x="716" d="M4 268q0 168 56.5 335t160.5 308q109 145 251 271.5t292 210.5l41 -56q-37 -33 -61.5 -55t-45 -42.5t-39 -40t-41.5 -44.5q-98 -109 -181 -240t-136 -264q-51 -129 -77.5 -268t-26.5 -277q0 -92 11 -176t40 -186q14 -55 23.5 -83t27.5 -71l-63 -26q-14 25 -24.5 43 t-21 37.5t-20.5 43t-27 56.5q-39 82 -65.5 150.5t-43 130t-23.5 121t-7 122.5z" />
<glyph unicode=")" horiz-adv-x="716" d="M-334 -381q37 33 61.5 55.5t45 43t39 40t41.5 43.5q98 109 180 239t135 261q51 129 77.5 269.5t26.5 277.5q0 94 -11 178t-40 186q-14 55 -23.5 83t-27.5 69l63 29q14 -25 24.5 -44.5l21 -39t21.5 -42t26 -55.5q39 -82 65.5 -150.5t43 -131t23.5 -121.5t7 -123 q0 -168 -57.5 -335t-161.5 -308q-106 -143 -247.5 -269t-291.5 -210z" />
<glyph unicode="*" horiz-adv-x="995" d="M213 1210q0 49 43 80q27 16 47 17q33 0 63.5 -22.5t77.5 -82.5l66 -86l16 -24l-26 -35q-160 35 -223.5 68.5t-63.5 84.5zM223 862q0 47 73 90t210 76l24 -35q-129 -225 -213 -225q-37 0 -65.5 28.5t-28.5 65.5zM539 1260q0 92 22.5 133t73.5 41q41 0 68.5 -26t27.5 -60 q0 -16 -11 -46t-30.5 -66t-44 -73t-51.5 -67l-45 10q-4 47 -7 83t-3 71zM555 977v16l47 13l10 -13l52 -59q45 -53 69.5 -98t24.5 -74q0 -35 -29 -60.5t-67 -25.5q-31 0 -50.5 13t-32 47t-17.5 92.5t-7 148.5zM608 1075q78 41 144.5 62.5t107.5 21.5t65.5 -25.5t24.5 -66.5 t-25.5 -65.5t-72.5 -24.5q-53 0 -145 27l-78 20l-19 4z" />
<glyph unicode="+" d="M18 635v127h428v401h129v-399h429v-127h-426v-401h-129v399h-431z" />
<glyph unicode="," horiz-adv-x="323" d="M-285 -250l2 66q250 2 250 147q0 39 -28 39h-17h-8q-47 -2 -75.5 28.5t-28.5 78.5q0 55 37.5 92t95.5 37q72 0 117.5 -53.5t45.5 -137.5q0 -66 -26.5 -120t-72.5 -94t-109.5 -62.5t-139.5 -22.5h-18t-25 2z" />
<glyph unicode="-" horiz-adv-x="622" d="M-45 434l49 174h451l-49 -174h-451z" />
<glyph unicode="." horiz-adv-x="344" d="M-147 92v6q4 63 40.5 101.5t94.5 38.5q51 0 82.5 -34t31.5 -89q0 -63 -36.5 -102.5t-94.5 -39.5q-55 0 -86.5 32t-31.5 87z" />
<glyph unicode="/" horiz-adv-x="643" d="M-246 0l924 1364h115l-928 -1364h-111z" />
<glyph unicode="0" horiz-adv-x="1064" d="M14 393v29t2 29q14 184 68.5 344.5t137.5 279.5t187.5 187.5t217.5 68.5q154 0 237.5 -106.5t83.5 -302.5q0 -76 -12 -160t-35.5 -168t-56.5 -165t-74 -153q-82 -143 -194.5 -219.5t-237.5 -76.5q-156 0 -240 106.5t-84 306.5zM242 266q0 -203 94 -203q76 0 148.5 99.5 t123.5 267.5q31 102 51.5 185t34 154t19.5 132.5t6 120.5q0 223 -94 223q-70 0 -139.5 -97t-131.5 -278q-29 -86 -49 -155.5t-32.5 -134t-19.5 -131t-11 -144.5v-39z" />
<glyph unicode="1" horiz-adv-x="1064" d="M23 0l22 74h14q43 0 73 10t52.5 40t43 83t44.5 141l234 811l-178 -76l-35 76l438 193l51 -56q-12 -29 -20 -50t-16.5 -42.5t-15.5 -46l-17 -59.5l-39 -140l-176 -610q-23 -86 -32 -124t-9 -66q0 -41 27.5 -62.5t74.5 -21.5h39l-23 -74h-20l-240 8q-23 2 -47 2h-49h-61.5 t-45 -1t-41 -3t-48.5 -6z" />
<glyph unicode="2" horiz-adv-x="1064" d="M-66 61l29 29q43 43 98.5 97.5t112.5 111.5t110.5 112.5t94.5 98.5q147 156 218 280.5t71 229.5q0 70 -46.5 116t-117.5 46q-139 0 -256 -168l-62 41q66 131 176.5 203.5t245.5 72.5q70 0 129.5 -21.5t102.5 -59.5t66.5 -91t23.5 -117q0 -98 -58.5 -205.5t-171.5 -218.5 q-47 -45 -94 -89t-102 -91t-123 -100t-156 -121l-30 -22l43 -2q33 0 65.5 -1.5t67.5 -1.5q74 0 128 2.5t92 7.5t64.5 12t46.5 19q25 14 40.5 36t37.5 69l6 12l70 -29l-139 -319q-18 0 -27.5 1t-13.5 1q-94 6 -297 6q-166 0 -261 -2t-159 -6z" />
<glyph unicode="3" horiz-adv-x="1064" d="M-14 137q0 41 29.5 70t70.5 29q68 0 111 -82l26 -52q27 -49 82 -49q70 0 130.5 54.5t101.5 154.5q20 47 32.5 104.5t12.5 100.5q0 217 -222 217h-32l22 78q154 12 238 85t84 193q0 76 -41 120t-113 44q-51 0 -94 -20.5t-113 -75.5l-47 55q76 82 165 125t181 43 q129 0 210 -72.5t81 -191.5q0 -78 -38 -149.5t-99 -112.5q-18 -12 -33.5 -21.5t-32 -16.5t-39 -13t-53.5 -15q117 -29 168 -89t51 -171q0 -106 -43 -197.5t-116.5 -158t-175 -104t-218.5 -37.5q-129 0 -207.5 43t-78.5 112z" />
<glyph unicode="4" horiz-adv-x="1064" d="M-53 348l71 176l723 787l222 41l-236 -828h141l-49 -176h-127l-102 -348h-225l100 348h-518zM158 524h358l166 580z" />
<glyph unicode="5" horiz-adv-x="1064" d="M-43 123q0 41 27.5 71.5t68.5 30.5q35 0 59.5 -18.5t49.5 -59.5q25 -45 48 -64.5t54 -19.5q72 0 139.5 57.5t114.5 155.5q51 113 51 211q0 109 -65.5 165.5t-194.5 56.5q-29 0 -46 -2t-58 -9l-23 25l230 588h530l-74 -197h-432l-80 -209q440 -2 441 -360 q0 -117 -46 -219.5t-126 -179t-185.5 -121.5t-226.5 -45q-117 0 -186.5 38.5t-69.5 104.5z" />
<glyph unicode="6" horiz-adv-x="1064" d="M14 350q0 72 20.5 150t59.5 155.5t93.5 152.5t121.5 138q135 129 298 228.5t329 156.5l29 -69q-66 -35 -115 -65t-92 -60.5t-84 -66.5t-90 -83q-88 -88 -142.5 -158.5t-99.5 -158.5q68 41 128 58t126 17q121 0 196.5 -78.5t75.5 -203.5q0 -98 -38.5 -185.5t-105.5 -154 t-155 -104t-186 -37.5q-174 0 -271.5 97t-97.5 271zM248 301q0 -111 44 -170t124 -59q47 0 88 25.5t69.5 70.5t45 107.5t16.5 138.5q0 100 -39 156.5t-109 56.5q-41 0 -85 -16.5t-107 -53.5q-27 -88 -37 -145.5t-10 -110.5z" />
<glyph unicode="7" horiz-adv-x="1064" d="M121 0l731 1130h-317q-76 0 -129.5 -7t-90 -25.5t-61.5 -50t-47 -80.5l-68 26q23 49 44.5 116t49.5 167l13 41q29 -2 50 -3t46 -2t57.5 -1h83.5h135h121.5t96.5 2t91 4t107 6l15 -45l-725 -1278h-203z" />
<glyph unicode="8" horiz-adv-x="1064" d="M25 307q0 133 86 229.5t233 131.5q-66 66 -100.5 143.5t-34.5 155.5q0 76 29.5 142.5t82 115.5t122 77.5t149.5 28.5q154 0 242 -78.5t88 -214.5q0 -123 -76 -211t-223 -139q74 -72 118.5 -165t44.5 -173t-31.5 -147.5t-87 -116.5t-131 -77.5t-163.5 -28.5 q-78 0 -141.5 23.5t-109.5 66.5t-71.5 103t-25.5 134zM233 279q0 -100 46.5 -156.5t123.5 -56.5q72 0 123.5 55t51.5 133q0 82 -47.5 173t-127.5 169q-78 -49 -124 -134t-46 -183zM412 1063q0 -72 34.5 -141.5t116.5 -161.5q162 143 162 321q0 76 -39 120t-106 44 q-74 0 -121 -51t-47 -131z" />
<glyph unicode="9" horiz-adv-x="1064" d="M18 47q66 35 116 64.5t93 60.5t83 66.5t89 83.5q90 88 143.5 158.5t98.5 158.5q-70 -39 -130 -57.5t-124 -18.5q-123 0 -197.5 79t-74.5 204q0 98 39 186t105.5 154.5t153.5 105.5t185 39q174 0 271.5 -98t97.5 -272q0 -72 -21.5 -151t-59.5 -158t-92.5 -152.5 t-121.5 -134.5q-135 -129 -300 -229.5t-325 -153.5zM346 895q0 -98 40 -155.5t108 -57.5q41 0 84.5 16.5t109.5 55.5q25 86 35 144t10 110q0 111 -44 171t-122 60q-49 0 -89 -25.5t-69.5 -71.5t-46 -108.5t-16.5 -138.5z" />
<glyph unicode=":" horiz-adv-x="344" d="M-147 92v6q4 63 40.5 101.5t94.5 38.5q51 0 82.5 -34t31.5 -89q0 -63 -36.5 -102.5t-94.5 -39.5q-55 0 -86.5 32t-31.5 87zM8 645v6q4 63 41 101.5t94 38.5q53 0 86 -34t33 -89q0 -63 -38 -103.5t-97 -40.5q-53 0 -86 33t-33 88z" />
<glyph unicode=";" horiz-adv-x="323" d="M-274 -250l4 66q250 2 250 147q0 39 -29 39h-19h-8q-45 -2 -73.5 28.5t-28.5 78.5q0 55 37 92t96 37q72 0 118 -53.5t46 -137.5q0 -66 -26.5 -120t-73 -94t-111 -62.5t-139.5 -22.5h-18.5t-24.5 2zM-16 645v6q4 63 39.5 101.5t93.5 38.5q53 0 84.5 -34t31.5 -89 q0 -63 -36.5 -103.5t-96.5 -40.5q-55 0 -85.5 33t-30.5 88z" />
<glyph unicode="&#x3c;" d="M18 621v141l986 422v-137l-820 -355l820 -350v-137z" />
<glyph unicode="=" d="M18 485v127h986v-127h-986zM18 786v127h986v-127h-986z" />
<glyph unicode="&#x3e;" d="M18 205v137l820 354l-820 351v137l986 -416v-139z" />
<glyph unicode="?" horiz-adv-x="722" d="M78 717q0 51 12 89t42 66.5t79 52t125 46.5q152 45 209 82t57 90q0 39 -24.5 65.5t-61.5 26.5q-16 0 -36.5 -4t-43.5 -14l-39 -17q-31 -12 -59 -12q-39 0 -64.5 26.5t-25.5 65.5q0 47 39 75.5t102 28.5q123 0 225 -108q94 -104 95 -223q0 -49 -17.5 -95.5t-50.5 -78.5 q-33 -33 -77 -54.5t-130 -48.5q-86 -25 -137 -42t-79 -32.5t-36 -32t-8 -38.5q0 -33 23.5 -52.5t62.5 -19.5q12 0 23.5 1t25.5 3q16 2 29.5 3t23.5 1q41 0 68 -26.5t27 -67.5t-24.5 -63.5t-67.5 -22.5q-49 0 -99.5 27.5t-95.5 77.5q-92 104 -92 225zM84 92v6q4 63 41 101.5 t94 38.5q53 0 85 -34t32 -89q0 -63 -37 -102.5t-96 -39.5q-53 0 -86 32t-33 87z" />
<glyph unicode="@" horiz-adv-x="1435" d="M18 678q0 152 54.5 280.5t152 224t228.5 149.5t284 54q141 0 261 -44t208 -121.5t137.5 -185t49.5 -234.5q0 -176 -87 -307.5t-243 -190.5q-70 -29 -121 -29q-47 0 -73.5 28t-26.5 75v14q-84 -109 -213 -108q-133 0 -214 92t-81 239q0 92 28.5 171t77.5 135.5t118 89 t149 32.5q166 0 235 -145l25 121h114l-100 -539q-4 -35 -7 -48t-3 -21q0 -37 39 -37q29 0 73.5 26.5t92.5 67.5q63 57 98 139t35 174q0 113 -43 207t-118 163t-178.5 107.5t-226.5 38.5q-129 0 -241.5 -47t-194.5 -130t-129 -195.5t-47 -243.5q0 -129 48 -241.5t131 -195.5 t195.5 -130t244.5 -47q150 0 264 63q25 12 44 25.5t39.5 29t42 36t52.5 50.5h117q-33 -41 -58.5 -70.5t-48 -51t-44 -38t-50.5 -34.5q-147 -96 -365 -96q-156 0 -288.5 52t-230 145t-152 221t-54.5 280zM471 625q0 -100 54.5 -162t142.5 -62q104 0 166.5 88.5t62.5 231.5 q0 92 -47 143t-133 51q-51 0 -96.5 -22.5t-79 -61t-52 -92t-18.5 -114.5z" />
<glyph unicode="A" horiz-adv-x="1523" d="M-223 0l22 74q80 6 191 82q45 35 93 82t114 124l98 113l735 864q57 8 119.5 24.5t110.5 35.5l24 -25q-4 -10 -5 -17t-3 -11q-4 -14 -11.5 -51.5t-21.5 -100.5q-16 -78 -23.5 -120t-9.5 -48l-104 -616q-14 -90 -23.5 -159t-9.5 -87q0 -49 28.5 -68.5t104.5 -21.5l-20 -74 q-55 4 -115.5 5t-165.5 1h-93t-62.5 -1t-49 -2t-55.5 -3l21 74h14q78 0 113.5 43t58.5 159l53 277h-395l-197 -246q-59 -76 -83.5 -116.5t-24.5 -67.5q0 -45 84 -47l22 -2l-22 -74q-33 2 -59.5 4t-53 3t-60.5 1h-83q-72 0 -132.5 -2t-107.5 -6h-16zM592 651h330l100 525z " />
<glyph unicode="B" horiz-adv-x="1329" d="M-94 0l22 74h15q43 0 71.5 10t52 40t43 83t44.5 141l192 668q10 33 16.5 55.5t10.5 36.5q12 53 12 96q0 86 -102 86h-29l22 74h23q51 -2 100.5 -3t96.5 -1q53 0 106 1t113 3q23 2 45 2h45q63 0 107 -3t77 -12.5t57.5 -22.5t47.5 -36q39 -37 59.5 -93t20.5 -122 q0 -141 -90.5 -235t-252.5 -123q133 -29 203 -104.5t70 -190.5q0 -102 -53.5 -196.5t-143.5 -147.5q-76 -45 -151.5 -62.5t-192.5 -17.5h-65l-152 6q-33 0 -64.5 1t-64.5 1h-44t-53 -1t-77 -3t-115 -4h-22zM354 170q0 -47 32 -67.5t110 -20.5q80 0 147.5 27.5t116.5 75.5 t76.5 114t27.5 143q0 98 -51 156.5t-143 69.5q-51 6 -140 6h-43l-110 -383q-10 -41 -16.5 -71t-6.5 -50zM512 758q29 -4 44 -4h32q84 0 151.5 20.5t110.5 59.5q45 41 73.5 111.5t28.5 141.5q0 197 -229 197h-26.5t-34.5 -2z" />
<glyph unicode="C" horiz-adv-x="1429" d="M39 522q0 160 58.5 315.5t166.5 278.5q121 135 278.5 206t348.5 71q43 0 88 -4.5t92 -12.5q6 -2 30.5 -6t72.5 -14q59 -14 103 -20.5t103 -10.5q-18 -41 -35.5 -90t-33 -99.5t-28.5 -97.5t-21 -86h-76q10 49 13 69.5t3 53.5q0 111 -71.5 171.5t-206.5 60.5 q-190 -2 -344 -131t-240 -363q-29 -82 -46.5 -168t-17.5 -158q0 -201 99.5 -314.5t275.5 -113.5q272 0 408 316h84q-8 -16 -8 -21q-10 -20 -24.5 -57t-37.5 -92q-45 -111 -61 -164q-2 -4 -4 -11t-7 -22q-47 -2 -77.5 -4t-87.5 -8q-53 -8 -90 -12t-64 -7.5t-47.5 -4.5 t-42.5 -1q-129 0 -231.5 38t-174 109.5t-109.5 173t-38 230.5z" />
<glyph unicode="D" horiz-adv-x="1511" d="M-106 0l22 74h14q43 0 72 10t51.5 40t43 83t44.5 141l193 668q23 84 31 121t8 67q0 86 -103 86h-28l20 74q25 -2 43.5 -3t36.5 -2t39.5 -1h54.5h39t51.5 1t75.5 2t113 3h104q131 0 212 -19.5t147 -68.5q86 -66 135 -179.5t49 -252.5q0 -115 -28.5 -223.5t-82 -203.5 t-129 -173t-168.5 -131q-102 -57 -222 -85t-255 -28h-51l-109 4q-45 2 -87 3t-80 1q-53 0 -109.5 -2t-122.5 -6h-24zM346 186q0 -102 125 -102q131 0 249 60.5t206 165t139 241.5t51 291q0 205 -106.5 319.5t-294.5 114.5h-29.5t-40.5 -4l-276 -963q-23 -80 -23 -123z" />
<glyph unicode="E" horiz-adv-x="1249" d="M-94 0l22 74h15q43 0 71.5 10t52 40t43 83t44.5 141l192 668q12 43 19.5 71.5t12.5 50t6 37t1 31.5q0 84 -102 84h-29l20 74q37 -2 62.5 -3t51.5 -2t58.5 -1h81.5h134l446 6h51q-6 -45 -11 -81t-8 -69.5t-5 -69.5t-5 -83l-2 -19h-77v21q-2 84 -20.5 125t-65.5 61 q-39 16 -97.5 21.5t-185.5 5.5h-23l-147 -516h147q72 0 118 6t77 24.5t51.5 52.5t38.5 89h74q-33 -92 -63.5 -197.5t-61.5 -232.5l-6 -29h-74q8 35 12 58.5t4 43.5q0 57 -38.5 76t-155.5 19h-148l-102 -351q-12 -41 -20.5 -82.5t-8.5 -60.5q0 -49 39 -68.5t137 -19.5 q100 0 172 13.5t124.5 44t88 82t66.5 126.5l80 -35q-10 -20 -27.5 -54t-36 -73.5t-39 -82.5t-36.5 -80l-13 -29h-39q-129 6 -495 6h-45q-285 0 -395 -6h-31z" />
<glyph unicode="F" horiz-adv-x="1282" d="M-94 0l22 74h19q43 0 71.5 10t52 40t44 83t45.5 141l190 668q12 43 20.5 71.5t12.5 50t6 37t2 31.5q0 84 -102 84h-29l21 74h22q102 -6 340 -6h203t127 1t93 2t101 3q-12 -72 -19 -153t-7 -134v-18t2 -23h-82v27q0 63 -15.5 104t-55.5 65.5t-105.5 34t-167.5 9.5h-51 l-158 -549h108q88 0 143.5 6t91.5 24.5t57.5 52.5t41.5 89h74q-10 -25 -17.5 -41t-14.5 -37.5t-16 -50.5t-24 -78q-18 -59 -29.5 -94t-17.5 -59.5t-10 -45t-10 -49.5h-76q10 31 14 55.5t4 49.5q0 47 -43 68.5t-141 21.5h-160l-86 -291q-12 -43 -19 -71.5t-12.5 -49t-6.5 -37 t-1 -32.5q0 -84 103 -84h28l-20 -74l-37 2q-72 4 -134 6t-116 2q-53 0 -113.5 -2t-125.5 -6z" />
<glyph unicode="G" horiz-adv-x="1445" d="M16 535q0 150 58.5 305t158.5 272q117 135 279 208t348 73q37 0 66.5 -1t66.5 -5.5t90.5 -12.5t137.5 -22q49 -8 75.5 -12.5t69.5 -8.5q-35 -80 -66.5 -179t-54.5 -204h-84q10 53 12.5 74.5t2.5 56.5q0 104 -71 166t-192 62q-129 0 -246.5 -68t-207.5 -180.5t-143.5 -261 t-53.5 -312.5q0 -197 87 -312.5t235 -115.5q160 0 202 150l29 100q25 84 33 121t8 68q0 86 -104 86h-25l23 75q35 -4 59.5 -6t53 -3t66.5 -1h97h91t62.5 1t50 3t54.5 6l-22 -79q-39 -2 -68 -12.5t-50.5 -34t-37.5 -60.5t-33 -94l-35 -121q-16 -59 -28.5 -102t-16.5 -70 q-4 -6 -6 -31q-20 -4 -35.5 -7l-31 -6t-36 -8t-53.5 -14q-102 -25 -164.5 -35t-125.5 -10q-119 0 -216.5 40t-166 114t-105.5 177.5t-37 230.5z" />
<glyph unicode="H" horiz-adv-x="1718" d="M-94 0l22 74h15q43 0 71.5 10t52 40t43 83t44.5 141l192 668q25 84 32 121t7 67q0 86 -102 86h-29l22 74l54 -2q133 -6 237 -6h66t58.5 1t64.5 3t80 4l-23 -74h-14q-45 0 -74 -9t-51.5 -39t-43 -83t-44.5 -143l-76 -262h641l76 262q25 84 32 121t7 67q0 86 -103 86h-28 l20 74q53 -2 91 -4t69 -3t59.5 -1h61.5h63.5t59 1t68.5 3t89 4l-22 -74h-15q-45 0 -73.5 -9t-52 -39t-43 -83t-46.5 -143l-190 -668q-12 -43 -19.5 -71.5t-12.5 -49t-6 -37t-1 -32.5q0 -84 102 -84h29l-23 -74l-43 2q-137 6 -229 6q-82 0 -233 -6l-54 -2l23 74h14 q43 0 72 10t52.5 39t44 83t44.5 142l88 307h-641l-88 -307q-12 -43 -19 -71.5t-12.5 -49t-6.5 -37t-1 -32.5q0 -84 103 -84h28l-20 -74q-47 2 -81 4t-63.5 3t-56 1h-61.5q-47 0 -97.5 -1t-144.5 -5z" />
<glyph unicode="I" horiz-adv-x="854" d="M-94 0l22 74h25q43 0 71.5 10t52 40t43 83t44.5 141l192 668q25 84 32 121t7 67q0 86 -102 86h-19l23 74q45 -2 78 -4t62.5 -3t59 -1h68.5q119 0 248 6l37 2l-21 -74h-20q-45 0 -73.5 -9t-51 -39t-43 -83t-45.5 -143l-193 -668q-12 -43 -19 -71.5t-12 -49t-6 -37 t-1 -32.5q0 -84 102 -84h29l-23 -74l-49 2q-150 6 -242 6q-96 0 -207 -6z" />
<glyph unicode="J" horiz-adv-x="831" d="M-432 -309q0 16 7 33.5t28 46.5q37 55 67 55q14 0 30.5 -7t59.5 -30q47 -25 74 -35t47 -10q47 0 91 62.5t96 197.5q18 47 43.5 130t60.5 206l195 676q12 43 19 71.5t12 50t6.5 37t1.5 31.5q0 84 -103 84h-29l21 74q29 -4 48 -6t43 -3t54.5 -1h81.5q111 0 191 3t145 7 l-20 -74h-19q-45 0 -73.5 -9t-52 -39t-43 -83t-46.5 -143l-198 -694q-20 -72 -38 -127.5t-35.5 -98.5t-33.5 -75.5t-37 -63.5q-102 -158 -282 -256q-154 -82 -283 -82q-59 0 -94 18.5t-35 53.5z" />
<glyph unicode="K" horiz-adv-x="1499" d="M-94 0l22 74h15q43 0 71.5 10t52 40t43 83t44.5 141l192 668q25 84 32 121t7 67q0 86 -102 86h-29l22 74q31 -2 54.5 -4t48 -3t53.5 -1h72q66 0 150.5 1t144.5 5l37 2l-23 -74h-14q-45 0 -74 -9t-51.5 -39t-43 -83t-44.5 -143l-82 -285l465 363l67 55l41 41q37 33 37 55 q0 23 -26.5 32t-86.5 13l23 74q37 -2 64.5 -4t52 -3t50.5 -1h58q96 0 209 6l58 2l-23 -74q-66 -12 -126 -44t-150 -99l-455 -346l221 -441q41 -80 74 -133t65 -90q55 -61 142 -63l-21 -74l-35 2q-111 6 -215 6q-84 0 -256 -6l-51 -2l23 74h18q98 0 98 65q0 16 -7 36t-25 56 l-31 70l-174 363l-131 -99l-64 -217q-12 -43 -19 -71.5t-12.5 -49t-6.5 -37t-1 -32.5q0 -84 103 -84h28l-20 -74h-27q-78 4 -144.5 6t-121.5 2h-66.5t-58.5 -1t-62.5 -3t-78.5 -4z" />
<glyph unicode="L" horiz-adv-x="1230" d="M-94 0l22 74h21q43 0 71.5 10t52 40t44 83t45.5 141l190 668q12 43 20.5 71.5t12.5 50t6 37t2 31.5q0 84 -102 84h-29l21 74h26q90 -4 152.5 -6t99.5 -2q90 0 250 6l31 2l-23 -74h-14q-43 0 -73 -9t-52.5 -39t-43 -83t-44.5 -143l-178 -619q-27 -92 -37 -138t-10 -75 q0 -57 37.5 -75.5t152.5 -18.5q106 0 183 12.5t132.5 42t96.5 80.5t75 129l72 -28l-10 -21q-10 -16 -26.5 -53t-41.5 -92q-16 -37 -25 -58.5t-16.5 -38t-12.5 -31t-11 -34.5l-29 2l-528 8l-471 -8h-39z" />
<glyph unicode="M" horiz-adv-x="1945" d="M-92 0l22 74h17q41 0 70.5 10t60.5 35q18 14 33.5 30.5t31 42t34 63.5t42.5 93l283 653l28 72l29 72q6 20 10 36.5t4 30.5q0 41 -39.5 59.5t-130.5 18.5h-26l20 74q37 -2 63.5 -4t50.5 -3t49.5 -1h57.5h60t54.5 1t59 3t76.5 4l56 -942l620 942l108 -6t79 -2q27 0 62.5 1 t82.5 3l66 4l-21 -74h-6q-49 0 -80 -6t-50.5 -30.5t-33.5 -71.5t-31 -127l-147 -707q-16 -76 -21.5 -110.5t-5.5 -63.5q0 -100 111 -100h26l-22 -74q-39 2 -68.5 4t-56.5 3t-56.5 1h-68.5h-70.5t-64.5 -1t-70 -3t-88 -4l23 74h10q43 0 71.5 10t48 39t36 83t34.5 142l154 750 l-471 -711q-90 -135 -144.5 -220t-93.5 -151l-18 -28h-47l-64 1110l-309 -750q-55 -141 -55 -188q0 -86 104 -86h39l-22 -74h-37q-117 6 -219 6t-211 -6h-39z" />
<glyph unicode="N" horiz-adv-x="1738" d="M-37 0l23 74q43 0 73.5 10t54 40t45 83t48.5 141l199 645l32 111q18 61 19 96q0 47 -46 68.5t-155 21.5h-29l23 74q53 -4 105.5 -6t121.5 -2h64.5t51 1t47.5 3t56 4q14 -45 44 -114.5t94 -202.5l348 -740l223 776l10 50t10 53v14q0 49 -29.5 67.5t-107.5 20.5l-86 2h-20 l20 74q51 -2 88 -4t68 -3t59.5 -1h61.5h62.5t59 1t70.5 3t92 4l-22 -74h-12q-43 0 -73 -9t-52.5 -39t-44 -83t-48.5 -143l-260 -838q20 -45 59.5 -82t90.5 -59l-12 -37l-27 2q-33 2 -61.5 3t-51.5 1q-35 0 -57.5 -1t-63.5 -5q-55 33 -96 123l-35 74l-446 929l-215 -751 q-20 -70 -33.5 -135.5t-13.5 -89.5q0 -41 30.5 -58.5t100.5 -17.5h82h28l-22 -74q-43 2 -76 4t-61.5 3t-59 1h-69.5q-125 0 -242 -6z" />
<glyph unicode="O" horiz-adv-x="1335" d="M23 469q0 186 60 353t162.5 294t239 202t285.5 75q213 0 330 -132.5t117 -375.5q0 -180 -61.5 -346t-166 -291t-241 -200t-285.5 -75q-96 0 -176 33t-136.5 92.5t-89 145.5t-36.5 192q-2 10 -2 33zM256 373q0 -150 51 -233t146 -83q209 0 366 318q39 76 66.5 147.5 t50.5 143.5q47 172 47 325q0 154 -49 235t-148 81q-207 0 -366 -316q-78 -150 -117 -289.5t-47 -295.5v-33z" />
<glyph unicode="P" horiz-adv-x="1236" d="M-94 0l22 74h15q43 0 71.5 10t52 40t43 83t44.5 141l192 668q25 84 32 121t7 67q0 86 -102 86h-29l22 74q66 -4 98 -6t70 -2q10 0 20.5 1t20.5 1l215 6q14 0 27.5 1t30.5 1q104 0 169.5 -11.5t114.5 -33.5q72 -35 110 -103.5t38 -162.5q0 -106 -41 -195.5t-113.5 -155 t-173 -102.5t-219.5 -37q-29 0 -47 2t-55 6l20 68q16 -2 25.5 -2h17.5q80 0 145.5 26.5t112.5 73.5t73 115t26 150q0 274 -254 274h-19.5t-28.5 -2l-266 -928q-12 -43 -19 -71.5t-12.5 -49t-6.5 -37t-1 -32.5q0 -84 103 -84h32l-22 -74q-35 4 -62.5 5t-56.5 2t-64.5 1h-88.5 q-186 0 -267 -6h-6q-8 -2 -16 -2z" />
<glyph unicode="Q" horiz-adv-x="1331" d="M-313 -219l149 164q53 -4 83 -6t81 -2q244 0 373 40l6 3q-172 25 -266.5 154.5t-94.5 334.5q0 186 60.5 354t163 294t238.5 201t288 75q211 0 326.5 -133.5t115.5 -374.5q0 -78 -16 -164t-45 -172q-59 -170 -156.5 -293t-238.5 -209q-43 -27 -89.5 -48.5t-101.5 -40.5 t-123.5 -39.5t-158.5 -43.5q41 -6 70.5 -10t57 -8t57.5 -10.5t71 -14.5q47 -10 115.5 -23.5t160.5 -33.5q166 -35 275.5 -53.5t168.5 -18.5q141 0 142 59q0 18 -10 31q-8 16 -11.5 22.5t-3.5 12.5q0 18 17.5 31.5t42.5 13.5q39 0 67.5 -22.5t28.5 -53.5q0 -41 -56.5 -84 t-197.5 -108q-57 -27 -107.5 -38t-113.5 -11q-55 0 -128 11t-208 40q-57 12 -101.5 22.5t-78.5 18.5l-271 61q-160 35 -256 51.5t-155 16.5q-47 0 -72 -7.5t-55 -35.5zM250 373q0 -150 52 -233t147 -83q207 0 364 318q78 152 117 291q23 86 36 167.5t13 157.5q0 154 -50 235 t-147 81q-209 0 -368 -316q-78 -150 -117 -289.5t-47 -295.5v-33z" />
<glyph unicode="R" horiz-adv-x="1390" d="M-94 0l22 74h15q43 0 71.5 10t52 40t43 83t44.5 141l192 668q25 84 32 121t7 67q0 86 -102 86h-33l20 74q61 -4 126 -5t145 -1h57.5t48.5 2l133 4q12 0 23.5 1t21.5 1q180 0 260 -67.5t80 -215.5q0 -80 -26.5 -150.5t-75.5 -125.5t-117.5 -92t-150.5 -49q16 -18 26 -33 t19.5 -31t19.5 -37.5t25 -54.5q29 -63 48 -105.5t34.5 -74t32 -61t36.5 -66.5q14 -27 28.5 -46.5t29.5 -35.5q41 -47 135 -47l-23 -74h-28q-57 4 -93 4h-65h-72.5t-75.5 -4q-29 39 -53 83t-53 116l-76 188l-59 141q-29 63 -53.5 84t-77.5 23q-4 0 -9.5 1t-13.5 1l-84 -289 q-12 -43 -19 -71.5t-12.5 -49t-6.5 -37t-1 -32.5q0 -84 103 -84h28l-20 -74l-43 2q-117 6 -213 6q-70 0 -248 -6zM498 711q27 -4 41 -5t32 -1q82 0 149.5 25.5t116 72.5t75 111.5t26.5 144.5q0 217 -219 217q-12 0 -23.5 -1t-38.5 -3z" />
<glyph unicode="S" horiz-adv-x="1144" d="M-39 37q35 106 58.5 199.5t37.5 164.5h84q-10 -51 -12 -71.5t-2 -50.5q0 -98 65.5 -160t172.5 -62q53 0 99 17.5t80 48.5t53 73t19 91q0 59 -25.5 109t-88.5 120l-123 139q-98 109 -138 187t-40 164q0 84 32.5 155.5t92 122.5t141.5 80t180 29q82 0 160 -23l90 -27 q23 -8 42 -11t60 -9q-57 -168 -75 -317h-82q6 33 8 48t2 36q0 100 -60.5 158.5t-164.5 58.5q-90 0 -151.5 -55.5t-61.5 -133.5q0 -53 31.5 -112.5t101.5 -131.5l94 -100q109 -113 155 -204t46 -189q0 -90 -36 -165t-99.5 -129t-151.5 -84t-193 -30q-49 0 -102 7.5t-110 19.5 q-59 14 -97.5 21.5t-52.5 11.5q-4 0 -13.5 1t-25.5 3z" />
<glyph unicode="T" horiz-adv-x="1335" d="M111 1067q12 35 27.5 78t30.5 87t29.5 89t26.5 82l6 18h50v-10q-2 -23 43 -35t118 -12h619l55 2l78 4q59 4 84 13.5t41 37.5h53q-61 -154 -117 -366l-67 12q4 25 6 35q10 45 10 67q0 66 -55 90.5t-201 24.5h-24.5t-24.5 -2h-27l-268 -934q-12 -43 -19 -71.5t-12.5 -49 t-6.5 -37t-1 -32.5q0 -84 103 -84h37l-23 -74l-61 2q-205 6 -246 6q-70 0 -215 -6l-43 -2l22 74h15q43 0 71.5 10t52 40t44 83t45.5 141l268 934h-23q-80 0 -136 -4t-98 -14.5t-72 -27.5t-54 -44q-29 -29 -42 -54.5t-34 -82.5z" />
<glyph unicode="U" horiz-adv-x="1564" d="M156 279q0 41 8 89t26 107l46 152l110 389q25 84 33 121t8 67q0 86 -102 86h-31l22 74q33 -2 57.5 -4t50.5 -3t58.5 -1h81.5h97.5t73 1t65.5 3t76 4l-21 -74h-14q-45 0 -75 -9t-52.5 -39t-43 -83t-44.5 -143l-109 -379q-8 -29 -43 -139q-43 -137 -43 -211 q0 -98 66.5 -155.5t181.5 -57.5q127 0 224.5 69.5t150.5 198.5q23 53 48 127t46 145l115 402q25 86 33 122t8 66q0 86 -103 86h-14l20 74q78 -4 119 -6t92 -2h46.5t46 1t57.5 3t80 4l-21 -74h-18q-39 0 -66.5 -8t-49 -28.5t-39 -56.5t-34.5 -89l-157 -500 q-37 -117 -66 -197.5t-57 -140.5q-18 -39 -42 -74.5t-52 -66.5q-78 -82 -179.5 -119t-244.5 -37q-217 0 -321.5 75t-104.5 231z" />
<glyph unicode="V" horiz-adv-x="1480" d="M139 1290l23 74q29 -2 51.5 -3t46 -2t53 -1h74.5q82 0 152.5 1t130.5 3l41 2l-23 -74q-90 -2 -118.5 -22.5t-28.5 -81.5v-16.5t2 -16.5l8 -88l84 -694l457 641q72 98 98.5 145t26.5 72q0 57 -115 61l22 74q29 -2 50.5 -4t44 -3t50 -1h70.5h79t59.5 1t53 3t60.5 4l-20 -74 q-47 -4 -81 -18.5t-69 -44.5q-41 -35 -98 -102.5t-135 -176.5l-461 -626l-121 -164q-20 -29 -35.5 -50.5t-30 -41t-29.5 -42t-36 -51.5l-31 13v43q-2 12 -6 56t-14 122l-35 272l-78 623q-6 55 -17 90t-31.5 56.5t-50.5 30.5t-73 11z" />
<glyph unicode="W" horiz-adv-x="1925" d="M150 1290l20 74q33 -2 56.5 -4t44 -3t43 -1h51.5q74 0 202 6l39 2l-22 -74h-21q-33 0 -45 -13t-12 -48v-6q2 -23 3 -39.5t3 -32.5l88 -801l236 316l-72 485q-12 78 -31.5 106.5t-64.5 32.5l20 74q61 -4 96 -6t86 -2q35 0 74 1t115 5l43 2l-23 -74q-51 -4 -66.5 -18.5 t-15.5 -57.5q0 -8 1 -15t1 -13l29 -254l184 254q29 41 29 63q0 41 -59 41h-21l21 74h14q111 -6 195 -6q78 0 184 6h29l-23 -74q-47 -4 -83 -13t-67.5 -28.5t-61.5 -51.5t-66 -79l-259 -342l48 -426l604 836q20 29 27.5 43t7.5 26q0 35 -58 35h-10l20 74q18 -2 32 -3l28 -2 t32.5 -1h47.5q51 0 103 1t99 5l-20 -74h-2q-45 0 -69.5 -15t-67.5 -69l-45 -55l-879 -1178l-31 15l-2 30l-24 230l-29 264l-407 -539l-29 15l-2 20l-53 457l-56 438q-16 123 -29.5 200t-27.5 118t-33.5 55t-48.5 14h-20z" />
<glyph unicode="X" horiz-adv-x="1585" d="M-123 0l23 74q41 4 79.5 22.5t98.5 59.5q47 33 101 78t87 75l363 355l-162 389l-39 88q-20 47 -37.5 74.5t-37 44t-45 22.5t-62.5 8l22 74q31 -2 52.5 -4t44 -3t48 -1h62.5q98 0 246 6l53 2l-22 -74h-17q-43 -4 -58 -16t-15 -43q0 -12 4 -27.5t16 -48.5l123 -315l307 315 q55 53 55 88q0 25 -21.5 36t-74.5 11h-12l20 74q35 -2 60.5 -4t49 -3t51.5 -1h65h71.5t59 1t59.5 3t72 4l-21 -74q-51 -10 -90 -26.5t-94 -55.5q-51 -35 -107.5 -81t-87.5 -74l-323 -316l149 -383q31 -80 59.5 -133t57.5 -86t61.5 -47t73.5 -14l-20 -74q-43 2 -76 4t-64.5 3 t-65.5 1h-81h-75t-58.5 -1t-53 -3t-63.5 -4l23 74h12q102 0 102 61q0 18 -18 70l-23 59l-118 295l-322 -323q-47 -47 -63.5 -71t-16.5 -42q0 -25 18.5 -35t63.5 -12h10t17 -2l-23 -74l-45 2q-98 6 -178 6h-32.5t-39 -1t-52.5 -2t-75 -3z" />
<glyph unicode="Y" horiz-adv-x="1288" d="M72 1290l20 74q23 -2 37 -4t31.5 -3t44 -1h69.5h26.5t25.5 2q209 0 272 6h20l-22 -74h-21q-98 0 -98 -76q0 -16 3 -31.5t14 -52.5l118 -409l279 321l47 58q31 35 48.5 57.5t26.5 36.5t11 23.5t2 19.5q0 27 -24.5 39t-79.5 14l22 74q39 -2 67.5 -4t51 -3t44 -1h48.5 q66 0 182 6l49 2l-22 -74q-66 -4 -119 -34.5t-123 -108.5l-479 -526l-78 -273q-12 -43 -19 -71.5t-12.5 -49t-6.5 -37t-1 -32.5q0 -84 103 -84h28l-22 -74h-23q-66 4 -129 6t-127 2q-121 0 -243 -6l-37 -2l22 74h15q43 0 71.5 10t52 40t44 83t45.5 141l80 273l-115 409 q-20 74 -42 123t-46.5 79t-56 43t-74.5 15z" />
<glyph unicode="Z" horiz-adv-x="1605" d="M-68 47q20 16 37 29.5t31 27t30.5 30t41.5 38.5q45 41 83 78t68 69l121 130l776 815h-262q-94 0 -160.5 -5.5t-116 -18.5t-84 -34.5t-63.5 -52.5q-18 -18 -30.5 -33.5t-23.5 -33t-21.5 -41t-26.5 -58.5l-66 27q35 70 71 158t64 176l7 16q16 -2 25 -2h11q61 -4 176 -5 t283 -3h119q150 0 258.5 2t173.5 6h9t22 2l16 -43q-27 -23 -45 -39t-38.5 -35.5t-45 -44l-61.5 -61.5q-39 -41 -70 -72l-55 -55l-869 -910h269q127 0 209 2.5t137 7.5t94 14t76 24q92 35 153 118q14 18 23.5 31.5t18 28t17.5 32t21 44.5l66 -27l-10 -23q-16 -37 -29.5 -66.5 t-29 -66.5t-33 -84t-44.5 -119l-8 -20q-63 4 -107 7t-98.5 4t-135.5 1h-218h-139q-211 -2 -352.5 -4t-214.5 -6l-41 -2z" />
<glyph unicode="[" horiz-adv-x="643" d="M-190 -410l509 1774h416l-22 -78h-209l-465 -1618h225l-22 -78h-432z" />
<glyph unicode="\" horiz-adv-x="643" d="M-246 1364h115l924 -1364h-109z" />
<glyph unicode="]" horiz-adv-x="643" d="M-313 -410l24 78h209l463 1618h-225l22 78h432l-510 -1774h-415z" />
<glyph unicode="^" d="M43 776l393 588h150l393 -588h-145l-324 475l-324 -475h-143z" />
<glyph unicode="_" d="M0 -154h1024v-149h-1024v149z" />
<glyph unicode="`" horiz-adv-x="1036" d="M532 1292q0 10 5.5 14.5t23.5 4.5h139l78 -371l-47 -16l-192 350q-6 12 -7 18z" />
<glyph unicode="a" horiz-adv-x="1001" d="M-76 106q0 109 51.5 232t145.5 242q109 135 216 193t243 58h26t21 -4l20 47l168 21q12 4 27 4q2 2 3 1t3 1q8 -2 8 -8q0 -8 -1 -11t-9 -20q-53 -109 -144 -360q-92 -258 -92 -328q0 -39 25 -39q18 0 47 23l45 41q10 8 21.5 19t27.5 28l15 14l40 -41l-14 -14 q-106 -117 -189 -171t-155 -54q-76 0 -76 98q0 43 6.5 83t22.5 85q-127 -143 -220 -204.5t-186 -61.5q-96 0 -96 126zM154 190q0 -43 28 -43q18 0 49 18.5t66 49.5q66 55 111 127q35 53 70.5 125t80.5 176q16 39 16 68q0 43 -61 43q-31 0 -62.5 -14.5t-54.5 -37.5 q-109 -109 -198 -331q-18 -41 -27.5 -74t-13.5 -55l-4 -37v-15z" />
<glyph unicode="b" horiz-adv-x="972" d="M-70 104q0 35 17.5 103.5t54.5 181.5l211 633l41 129q18 59 18 88q0 33 -22.5 45t-81.5 12h-25l19 68l37 2q137 2 212.5 14.5t133.5 38.5l24 -26q-14 -33 -25.5 -55.5t-20.5 -46t-20 -51.5t-28 -71l-84 -233q-29 -76 -52.5 -143.5t-41.5 -126.5l-12 -43q226 245 406 245 h1q115 0 115 -110q0 -92 -37 -195.5t-100.5 -200t-148.5 -177.5t-179 -132q-70 -37 -138.5 -54t-133.5 -17q-66 0 -103 31.5t-37 90.5zM127 113q0 -49 43 -50q53 0 118.5 63.5t135.5 184.5q31 53 58.5 108.5t47 107t31.5 94.5t12 67q0 39 -32 39q-25 0 -62 -22.5t-78 -59.5 t-80.5 -84t-70.5 -98q-25 -39 -47.5 -88t-39 -97.5t-26.5 -91t-10 -73.5z" />
<glyph unicode="c" horiz-adv-x="778" d="M-37 184q0 96 32 199.5t91 198.5q84 133 204 208.5t245 75.5q53 0 86.5 -24.5t33.5 -63.5q0 -29 -17 -59.5t-46 -50.5q-29 -23 -64 -23t-49 19.5t-16 70.5q0 45 -35 45q-39 0 -91 -72.5t-93 -187.5q-27 -72 -42.5 -152.5t-15.5 -148.5q0 -119 72 -119q41 0 91 32t136 114 q2 4 4.5 5t6.5 5l41 -47q-102 -111 -205 -170t-189 -59q-180 0 -180 204z" />
<glyph unicode="d" horiz-adv-x="1038" d="M-51 207q10 49 29.5 103.5t45 109.5t56.5 106q45 74 100.5 136.5t113.5 108.5t116.5 71.5t107.5 25.5q61 0 84 -45l70 199l41 129q10 29 13 51.5t3 36.5q0 33 -22.5 45t-81.5 12h-25l18 68l37 2q137 2 214 14.5t132 38.5l25 -26q-25 -41 -42 -72t-31.5 -66.5t-32 -87 t-41.5 -133.5q-8 -27 -34 -106.5t-69 -214.5q-43 -131 -73.5 -231.5t-59.5 -205.5q-18 -68 -18 -92q0 -35 22 -34q23 0 57.5 26.5t96.5 89.5l14 13l47 -50l-18 -18q-59 -59 -104.5 -97t-86.5 -67q-45 -31 -94 -48t-88 -17q-76 0 -76 77q0 59 31 166q-96 -117 -193.5 -181 t-175.5 -64q-118 0 -118 137q0 41 10 90zM121 145q0 -63 43 -63q29 0 70.5 26.5t89 70.5t94.5 102.5t84 119.5q45 78 72.5 163t27.5 151q0 76 -55 76q-37 0 -87 -34t-100.5 -91.5t-98.5 -133t-83 -157.5q-23 -53 -38 -113.5t-19 -107.5v-9z" />
<glyph unicode="e" horiz-adv-x="790" d="M-43 184q0 217 147 428q86 123 186.5 188.5t201.5 65.5q59 0 90.5 -37.5t31.5 -109.5q0 -66 -32.5 -117t-110.5 -102q-68 -43 -136.5 -81t-129.5 -67q-6 -29 -8 -46t-2 -40q0 -72 18 -110.5t49 -38.5q35 0 93.5 35.5t129.5 103.5l15 12l43 -49q-129 -129 -223.5 -183 t-182.5 -54q-180 0 -180 202zM221 434q211 94 211 266q0 80 -33 80q-37 0 -81 -72.5t-78 -191.5q-10 -27 -12.5 -41t-6.5 -41z" />
<glyph unicode="f" horiz-adv-x="575" d="M-559 -336q0 29 19.5 60.5t50.5 52.5q27 20 53 20q29 0 43 -18.5t24 -63.5q10 -51 21.5 -67.5t36.5 -16.5q37 0 75.5 37t71.5 103q23 45 39 78.5t32.5 83t40 126t60.5 203.5l74 250l57 190l25 70l-137 -4l22 82l137 -4q12 39 20.5 67.5t16.5 52t16.5 45t20.5 46.5 q43 96 102 174q66 86 156 130t195 44q86 0 138 -29.5t52 -79.5q0 -25 -16.5 -53.5t-42.5 -48.5q-14 -10 -30.5 -16.5t-33.5 -6.5q-59 0 -69 64l-4 39q-8 57 -41 57q-31 0 -69 -38t-75 -103.5t-70.5 -153.5t-60.5 -190l174 4l-24 -82l-172 4q-16 -51 -28.5 -90t-26 -82 t-29 -97t-39.5 -138q-33 -111 -58.5 -193t-48 -144.5t-44 -109.5t-46.5 -90q-51 -86 -112 -147q-123 -123 -291 -123q-92 0 -148.5 29.5t-56.5 76.5z" />
<glyph unicode="g" horiz-adv-x="997" d="M-170 -186q0 94 89 158.5t233 76.5q-47 23 -73 53.5t-26 59.5q0 35 39 67.5t148 85.5q-139 51 -140 213q0 74 27 135.5t73 106.5t110.5 70.5t140.5 25.5q70 0 123 -19.5t98 -60.5h184v-94h-139q6 -23 8 -36t2 -33q0 -72 -26.5 -134.5t-72.5 -108.5t-108.5 -71.5 t-136.5 -25.5q-23 0 -37 1t-43 5q-31 -23 -42 -33t-11 -20t8 -21.5t32.5 -29t70 -43t118.5 -66.5q80 -43 129 -73t77 -54.5t37 -47t9 -53.5q0 -61 -34.5 -114t-94 -92t-141.5 -61.5t-178 -22.5q-100 0 -183.5 18t-143.5 52t-93 81t-33 105zM47 -174q0 -41 19.5 -76 t53.5 -61.5t80 -42t97 -15.5q43 0 83 12.5t68.5 33t46 47t17.5 57.5q0 51 -80 98l-219 125q-78 -29 -122 -75t-44 -103zM293 444q0 -41 19.5 -67.5t47.5 -26.5q100 0 156 228q16 66 16 118q0 94 -63 95q-72 0 -121 -115q-25 -59 -40 -122t-15 -110z" />
<glyph unicode="h" horiz-adv-x="1052" d="M-63 -2l6 16l348 1008l41 129q16 61 16 88q0 33 -22.5 45t-81.5 12h-25l19 68l36 2q137 2 214 14.5t133 38.5l24 -26q-12 -25 -20.5 -43.5t-17.5 -41t-21.5 -56t-34.5 -93.5l-84 -225l-98 -289l-25 -70q100 135 207.5 214t193.5 79q115 0 115 -139q0 -53 -14.5 -119.5 t-39 -138.5t-58 -143.5t-74.5 -134.5q-68 -104 -151 -158.5t-175 -54.5q-102 0 -102 63q0 45 27.5 81t62.5 36q25 0 35 -11.5t26 -52.5q16 -31 35 -30q55 0 133 231q12 39 23.5 85t20.5 91t14.5 83t5.5 62q0 86 -37 87q-12 0 -33.5 -13.5t-48.5 -37t-55.5 -55.5t-55.5 -67 q-41 -53 -72.5 -102t-60 -105.5t-56.5 -128t-60 -169.5l-11 -27h-18q-8 0 -30.5 -2t-57.5 -6q-25 -4 -40.5 -5t-25.5 -3q-6 -2 -16 -2q-6 4 -10 5t-4 5v6z" />
<glyph unicode="i" horiz-adv-x="610" d="M-33 63q0 20 7.5 51t17.5 60l37 98l118 297l23 68q8 18 8 35q0 18 -20 18q-25 0 -88 -67l-39 -43l-8 -11l-46 45l11 15q111 123 198.5 180t163.5 57q82 0 82 -69q0 -23 -8 -52.5t-29 -76.5l-20 -54l-154 -372q-18 -49 -18 -70q0 -29 20 -29t49 22.5t99 92.5q4 6 7 7t7 7 l43 -45l-25 -24q-59 -63 -91.5 -94t-71.5 -58q-53 -37 -99.5 -53t-91.5 -16q-37 0 -59.5 21.5t-22.5 59.5zM283 1055v8v6q1 55 35 91q36 38 94 38q51 0 80.5 -29.5t29.5 -81.5q0 -57 -34.5 -93t-92.5 -36q-49 0 -79.5 27t-32.5 70z" />
<glyph unicode="j" horiz-adv-x="593" d="M-449 -360q0 57 43 100q23 23 50 22q25 0 40 -13t29 -48q23 -57 54 -57q35 0 83 79.5t101 231.5l170 475q12 33 26.5 82t26.5 102q8 25 8 48q0 27 -18 26q-14 0 -46 -28.5t-79 -81.5l-10 -13l-49 39q100 129 192 195.5t170 66.5q80 0 80 -96q0 -35 -15.5 -99.5 t-44.5 -146.5l-174 -510q-18 -53 -36.5 -95t-39 -77t-46 -66.5t-58.5 -64.5q-146 -153 -334 -153h-2q-121 0 -121 82zM279 1057v8q0 59 35.5 97t95.5 38q51 0 80.5 -29.5t29.5 -80.5q0 -57 -35.5 -93t-91.5 -36q-49 0 -79.5 26.5t-34.5 69.5z" />
<glyph unicode="k" horiz-adv-x="915" d="M-125 -10q0 8 4 16q4 6 8 15.5t9 25.5l51 150l59 186l33 102l174 537l41 129q16 61 16 88q0 33 -22.5 45t-81.5 12h-25l19 68l37 2q137 2 213.5 14.5t132.5 38.5l24 -26q-12 -25 -12 -27q-33 -66 -88 -213l-82 -217q-12 -31 -20.5 -55.5t-17.5 -49t-17 -53t-21 -67.5 q100 72 196.5 113.5t168.5 41.5q106 0 106 -98q0 -111 -85 -202t-230 -132l63 -237l13 -41q14 -47 41 -47q16 0 43.5 16t56.5 41l49 43l14 10l37 -49l-10 -8q-106 -98 -183 -140t-149 -42q-27 0 -44 5t-29.5 25.5t-22.5 59.5t-25 104l-40 207l-74 -8l-8 -27l-45 -137 l-50 -160q-4 -8 -7 -20.5t-7 -28.5h-20l-93 -8l-67 -10h-14q-4 -2 -5.5 -1t-3.5 -1q-10 4 -10 10zM227 436q68 2 127.5 24.5t103.5 57.5t69.5 82t25.5 98q0 45 -35 45q-12 0 -38.5 -10t-59.5 -27.5t-69 -39t-68 -45.5z" />
<glyph unicode="l" horiz-adv-x="610" d="M-49 68q0 78 57 264l45 135l174 555l41 129q18 59 19 88q0 33 -22.5 45t-82.5 12h-24l18 68l37 2q129 2 201.5 14.5t130.5 38.5l24 -26q-14 -27 -24 -47.5t-19.5 -43t-18.5 -51t-26 -73.5q-27 -74 -43 -123t-24 -72l-41 -127l-105 -321q-10 -35 -25.5 -88.5t-33.5 -124.5 q-8 -29 -14.5 -53.5t-12.5 -47.5q-2 -10 -3 -18t-1 -19q0 -43 33 -43q35 0 106 76l41 41l13 14l43 -41q-121 -133 -210 -192t-163 -59q-41 0 -65.5 23.5t-24.5 64.5z" />
<glyph unicode="m" horiz-adv-x="1531" d="M-57 -12q0 6 1 8t3 8q4 4 17 35t36 94q25 59 48.5 119.5t44 114t35.5 96.5t24 67q16 47 25 86t9 54q0 29 -18 28q-14 0 -39 -20.5t-51 -50.5l-49 -60l-9 -10l-40 37q92 133 180 202.5t159 69.5q74 0 74 -88q0 -55 -20.5 -134t-55.5 -157q131 184 246 282.5t201 98.5 q80 0 80 -84q0 -37 -16.5 -95t-51.5 -152l-18 -50q139 184 264 281.5t225 97.5q35 0 56.5 -23.5t21.5 -64.5q0 -43 -25.5 -116.5t-78.5 -184.5q-31 -66 -51.5 -108.5t-30.5 -65.5l-39 -96q-12 -27 -13 -45q0 -29 21 -29q35 0 104 76l56 55l10 10l41 -38l-10 -13 q-84 -88 -140.5 -135t-115.5 -78q-25 -12 -58.5 -21t-56.5 -9q-80 0 -80 79q0 20 5 45t17.5 60t34 83t52.5 113l69 146q59 125 60 160q0 27 -21 26q-20 0 -63 -33.5t-99 -93.5q-70 -74 -136 -171t-113 -191q-16 -35 -34 -77t-38 -93l-14 -33q-27 0 -33 -2q-10 0 -64 -6 q-33 -4 -52 -6t-26 -4q-4 -2 -9 -1t-7 -1q-8 2 -8 8q0 8 4 16q0 4 1 6t5 8q2 8 7 20.5t14 29.5q16 41 33.5 83t35.5 89l80 200q33 84 50.5 138.5t17.5 76.5q0 29 -23 29q-27 0 -90 -64.5t-135 -160.5q-37 -51 -65.5 -95.5t-53 -91.5t-49.5 -104t-55 -133l-15 -35 q-27 0 -35 -2q-4 0 -63 -6q-33 -4 -50.5 -6t-25.5 -4q-6 -2 -10 -1t-6 -1q-8 2 -8 8z" />
<glyph unicode="n" horiz-adv-x="1101" d="M-57 -10q0 6 1 8t3 8q0 6 2 8t4 6l47 115l33 80q37 90 71.5 184.5t63.5 175.5q25 74 25 101t-21 26q-23 0 -78 -61l-53 -59l-10 -13l-45 37q180 262 327 262q41 0 64.5 -24.5t23.5 -67.5q0 -35 -19.5 -104.5t-62.5 -186.5q43 57 78 100.5t66 77t59.5 59.5t59.5 50 q123 94 217 94q96 0 96 -90q0 -23 -11.5 -64.5t-31.5 -90.5q-12 -27 -21.5 -48.5t-23.5 -52.5t-35.5 -76t-58.5 -118q-39 -78 -54.5 -117t-15.5 -55q0 -23 25 -23q23 0 59.5 31t101.5 102l11 12l45 -43q-23 -29 -64 -70.5t-84 -80.5q-117 -102 -227 -102q-94 0 -94 75 q0 29 11 65t42 105l37 82q14 33 33.5 72t42.5 86q43 88 62.5 137t19.5 72q0 27 -21 26h-2q-27 -6 -51 -24q-78 -59 -143.5 -134t-114.5 -157q-47 -78 -100.5 -185.5t-92.5 -199.5q-27 0 -33 -2q-8 0 -63 -6q-33 -4 -51.5 -6t-24.5 -4h-16q-8 2 -8 8z" />
<glyph unicode="o" horiz-adv-x="925" d="M-37 258v25q8 117 53 222t114 186t157 129t180 48q123 0 200.5 -78.5t77.5 -201.5q0 -94 -35.5 -194.5t-101.5 -192.5q-78 -109 -174 -165t-201 -56q-125 0 -197.5 74.5t-72.5 203.5zM174 166q0 -106 70 -107q125 0 233 324q27 74 43.5 158t16.5 141q0 109 -70 109 q-53 0 -110.5 -74t-110.5 -211q-35 -94 -52.5 -173t-19.5 -163v-4z" />
<glyph unicode="p" horiz-adv-x="995" d="M-307 -461l20 72h8q29 0 50.5 10t42 41t43 86t53.5 143l280 820l-135 -37l-14 74l172 45l61 165l209 23l15 -20l-52 -113q43 10 70 14t70 4q245 0 245 -186q0 -78 -31.5 -165t-84.5 -168t-126 -151.5t-153 -115.5q-72 -39 -145.5 -59.5t-138.5 -20.5l-33 -109 q-27 -98 -37 -138t-10 -60q0 -37 23.5 -52.5t82.5 -17.5l-18 -65q-49 4 -77 4h-69q-84 0 -159.5 -5.5t-161.5 -17.5zM188 96q14 -2 24.5 -2h18.5q72 0 134.5 55.5t128.5 178.5q47 86 75.5 182t28.5 164q0 108 -102 108h-2q-16 0 -28.5 -2t-41.5 -8z" />
<glyph unicode="q" horiz-adv-x="954" d="M-61 145q0 96 49 214t137 233q100 129 216 201.5t218 72.5q29 0 52.5 -4t76.5 -20l100 98h76l-49 -123q-31 -86 -49 -137t-25 -68q-23 -66 -50 -149.5t-56 -188.5q-27 -88 -50.5 -169.5t-44 -152.5t-34.5 -126t-23 -86q-6 -25 -6 -47q0 -37 22.5 -52.5t82.5 -17.5 l-19 -65q-47 4 -74.5 4h-68.5q-86 0 -163 -5.5t-163 -17.5l23 72h8q20 0 45 14q29 14 43 31q10 12 26.5 47t36 85t41 111.5t39.5 123.5l80 266q-88 -125 -194.5 -198t-202.5 -73q-45 0 -72.5 34t-27.5 93zM178 238q0 -49 39 -50q33 0 93.5 53.5t119.5 135.5q16 25 31.5 50.5 t21.5 37.5l31 76l18 45q16 35 25.5 72.5t9.5 60.5q0 63 -67 63q-47 0 -109.5 -61.5t-111.5 -153.5q-33 -66 -61 -150.5t-38 -156.5q-2 -6 -2 -22z" />
<glyph unicode="r" horiz-adv-x="761" d="M-68 -4q0 8 7 20l32 80q23 59 61 165t85 245q18 55 31.5 106.5t13.5 69.5q0 31 -19 31q-18 0 -52 -32t-93 -106l-10 -12l-51 41q190 262 331 262q80 0 80 -94q0 -57 -24 -168l20 31q84 119 155.5 175t137.5 56q57 0 57 -53q0 -27 -10 -57.5t-29 -59.5q-38 -67 -89 -67h-1 q-14 0 -22 4l-25 10q-8 4 -18.5 6t-18.5 2q-76 0 -211 -319q-18 -45 -32.5 -85t-27.5 -79t-24.5 -79t-23.5 -89h-19l-86 -6l-71 -8q-10 -2 -15.5 -3t-7.5 -1h-14q-10 4 -13.5 5t-3.5 9z" />
<glyph unicode="s" horiz-adv-x="741" d="M-63 96q0 47 30.5 82t73.5 35q57 0 78 -88q10 -43 21.5 -57.5t37.5 -14.5q37 0 61.5 32t24.5 79q0 31 -15.5 77t-43.5 93l-43 76q-66 106 -66 184q0 53 27 102t72 87t102 60.5t121 22.5q66 0 108.5 -27.5t42.5 -72.5t-34.5 -82t-77.5 -37q-25 0 -43.5 17.5t-22.5 46.5 l-4 30q-6 45 -39 45q-16 0 -32.5 -11t-26.5 -27q-12 -18 -13 -39q0 -61 76 -197l60 -106q37 -68 37 -144q0 -61 -25 -112.5t-70 -89t-106.5 -59t-132.5 -21.5q-86 0 -132 29.5t-46 86.5z" />
<glyph unicode="t" horiz-adv-x="626" d="M-47 78q0 18 4 46t15.5 67.5t28.5 95t44 133.5l125 352l-129 -4l25 82l124 -4l68 233q10 2 14 2h9q23 4 110 19q33 4 55.5 8t36.5 8q2 2 5.5 1t9.5 3l14 -26q-12 -18 -26.5 -49t-30 -65t-28.5 -70t-24 -64l193 4l-35 -82l-178 4l-121 -334q-35 -98 -55.5 -168.5 t-20.5 -95.5q0 -12 7.5 -21.5t17.5 -9.5q23 0 72 40t102 100l45 -47q-49 -59 -109.5 -112.5t-119.5 -92.5q-33 -23 -81 -37t-79 -14q-88 0 -88 98z" />
<glyph unicode="u" horiz-adv-x="1116" d="M-8 68q0 18 5 42.5t19.5 61.5t37 88t55.5 125q57 123 89.5 203t32.5 96q0 12 -3 14t-9 2q-10 0 -30.5 -13t-43.5 -36q-35 -33 -47 -46t-30 -38l-52 45q217 256 365 256q41 0 66.5 -19.5t25.5 -53.5q0 -16 -4 -36t-16.5 -52.5t-35 -83t-59.5 -127.5q-29 -59 -45 -97.5 t-24 -54.5l-33 -78q-10 -25 -14 -38t-4 -23q0 -29 18 -29q23 0 64.5 42t119.5 142q49 63 88 119t72 110t61.5 112.5t59.5 127.5l8 17h12q51 4 98.5 8t80.5 10q4 2 7 1t5 1q4 -4 9 -4t5 -4t-3 -10t-13 -27q-27 -49 -57.5 -118.5t-62.5 -147.5t-60.5 -159t-51.5 -152 q-16 -53 -16 -78t20 -25q16 0 69.5 49.5t107.5 118.5l49 -43l-13 -14q-37 -43 -64.5 -74t-51 -54.5t-46 -43t-46.5 -37.5q-82 -63 -156 -63q-88 0 -88 86q0 41 20.5 106.5t69.5 187.5q4 8 8 18.5t8 27.5l-26 -35l-66 -80q-49 -61 -86 -104.5t-68.5 -74t-61.5 -53t-62 -43.5 q-29 -14 -66 -25t-59 -11q-82 0 -82 88z" />
<glyph unicode="v" horiz-adv-x="1062" d="M-41 563q0 68 129 223q31 37 51.5 48.5t61.5 11.5h352l16 -39q-63 -90 -116.5 -179t-90 -172t-57 -155t-20.5 -127q0 -108 72 -108h1q41 0 91.5 44t99.5 117.5t93 171t73 201.5q-23 37 -33 75t-10 68q0 35 20.5 56.5t73.5 42.5q35 16 51.5 20t26.5 4q47 0 47 -75 q0 -162 -51.5 -309.5t-138.5 -258t-200.5 -176t-240.5 -65.5q-92 0 -140 38.5t-48 114.5q0 98 74.5 227.5t234.5 305.5l-43 -6l-113 2h-80q-47 0 -65.5 -5.5t-18.5 -21.5q0 -12 11 -23l32 -47q12 -14 13 -30q0 -23 -39 -62q-33 -29 -51 -29q-23 0 -47 48q-20 45 -21 69z" />
<glyph unicode="w" horiz-adv-x="1583" d="M-25 569q0 35 35 97.5t92 130.5q14 16 24.5 25t24 14.5t31 7.5t45.5 2h353l20 -33l-22 -31q-37 -47 -59.5 -77.5t-40 -57t-32 -54.5t-34.5 -69q-102 -203 -103 -329q0 -106 94 -107q37 0 75 15.5t65 41.5q-6 25 -7 37.5t-1 36.5q0 59 16 128t44 138.5t65.5 136 t82.5 117.5q45 53 96.5 83t96.5 30q96 0 96 -125q0 -72 -28.5 -143.5t-90.5 -155.5q-35 -49 -84 -106.5t-104 -116.5q31 -135 127 -135q100 0 203 176q31 49 53 91t38.5 83t31 85t26.5 97q-4 12 -6 16q-16 51 -23.5 79t-7.5 48q0 53 76 93q59 30 84 30h2q61 0 62 -98 q0 -45 -9.5 -101.5t-26 -114.5t-37 -114.5t-44.5 -99.5q-45 -82 -104.5 -148.5t-128 -113.5t-143.5 -72.5t-148 -25.5q-70 0 -108 19t-79 73q-78 -51 -139.5 -71.5t-124.5 -20.5q-98 0 -152.5 47t-54.5 133q0 186 316 518q-35 -8 -54.5 -10t-48.5 -2h-94q-25 0 -39 1t-31 3 q-10 0 -16 1t-10 1q-33 0 -33 -29q0 -10 12 -22l25 -29q27 -33 26 -49q0 -16 -18 -39q-25 -29 -48.5 -45.5t-39.5 -16.5q-27 0 -45.5 38t-18.5 89zM713 335.5q0 -8.5 2 -24.5q29 35 54.5 82t46 98.5t31.5 101.5t11 89q0 51 -22 51q-16 0 -37 -25.5t-39 -72.5 q-23 -57 -35 -133t-12 -148v-18.5z" />
<glyph unicode="x" horiz-adv-x="1032" d="M-115 70q0 49 30 86t71 37q27 0 53 -29q25 -27 43 -27q39 0 98.5 57.5t151.5 180.5q-4 35 -12.5 76t-24.5 106q-20 80 -36.5 114t-39.5 34q-39 0 -84 -64l-37 -51l-14 -19l-51 33q76 125 149.5 194.5t132.5 69.5q63 0 101.5 -65.5t64.5 -218.5l11 16q92 131 171.5 198.5 t143.5 67.5q43 0 68.5 -22.5t25.5 -59.5q0 -53 -32.5 -92t-77.5 -39q-18 0 -54 15q-29 14 -41 14q-29 0 -54.5 -21.5t-70.5 -74.5l-57 -72l-16 -20q6 -39 11 -61.5t15 -61.5l35 -129q14 -57 28.5 -81t33.5 -24q25 0 60.5 32t98.5 112l47 -41q-98 -129 -178 -194.5 t-137 -65.5q-59 0 -102 76.5t-62 224.5l-18 -23l-39 -49q-102 -127 -171 -178t-134 -51q-45 0 -73 24.5t-28 65.5z" />
<glyph unicode="y" horiz-adv-x="978" d="M-412 -346q0 47 38 84t85 37t80 -45l16 -25q16 -23 34 -31t53 -8q33 0 71.5 16.5t76.5 43t71.5 61.5t56.5 72q47 82 72.5 194.5t25.5 251.5q0 80 -7 150.5t-19.5 124t-27.5 84t-34 30.5q-45 0 -131 -162l-53 29q27 68 60.5 123t70.5 96t74 63.5t69 22.5q102 0 148 -166 q47 -178 47 -358q0 -86 -9.5 -149.5t-29.5 -139.5q47 59 81 112.5t66 119.5q41 86 58.5 144t17.5 124q0 63 -26 100l-31 39q-27 41 -27 68q0 43 33 74.5t76 31.5q53 0 85 -47t32 -123q0 -74 -23 -158.5t-64.5 -177t-102 -186.5t-136.5 -184q-174 -209 -360.5 -321.5 t-360.5 -112.5q-156 0 -156 98z" />
<glyph unicode="z" horiz-adv-x="868" d="M-131 0v51l620 701q-27 2 -41 2h-30q-76 0 -130.5 -8.5t-92 -28t-61 -53t-42.5 -84.5l-65 24q4 8 6 12.5t2 8.5q12 23 45 100q16 41 28.5 68.5t18.5 44.5q0 4 1 6t3 8l27 -2l217 -4h135l254 6h16l2 -47l-618 -701q29 -2 48 -2h44q96 0 158.5 4.5t105.5 13.5t72 26.5 t53 43.5q12 14 21.5 23.5t16.5 21t16.5 24.5t21.5 36l61 -31q-20 -31 -32.5 -52.5t-38.5 -72.5q-25 -45 -40.5 -76.5t-23.5 -48.5q0 -4 -1 -6t-3 -8l-78 2q-162 6 -342 6q-96 0 -176 -2t-151 -6h-27z" />
<glyph unicode="{" horiz-adv-x="583" d="M82 451v114q66 16 91.5 58.5t25.5 134.5v356q0 150 68.5 216.5t224.5 66.5h20t27 -2v-113q-63 0 -102.5 -7t-60 -28.5t-27.5 -60.5t-7 -105v-333q0 -100 -26.5 -150.5t-98.5 -89.5q70 -39 97.5 -92.5t27.5 -151.5v-321q0 -66 7 -107t27.5 -62.5t59.5 -28.5t103 -7v-113 q-18 -2 -28.5 -2h-21.5q-158 0 -224 68.5t-66 232.5v334q0 92 -26 134t-91 59z" />
<glyph unicode="|" d="M449 -354v1718h124v-1718h-124z" />
<glyph unicode="}" horiz-adv-x="583" d="M45 -262q63 0 101 7t59.5 28.5t29 60.5t7.5 103v333q0 100 26.5 150.5t98.5 89.5q-70 39 -97.5 92t-27.5 152v323q0 66 -7.5 107t-28 62.5t-59 28.5t-102.5 7v113q20 2 29.5 2h21.5q156 0 222.5 -70t66.5 -231v-334q0 -92 25.5 -135t91.5 -60v-112q-66 -18 -91.5 -60.5 t-25.5 -134.5v-356q0 -147 -68.5 -214t-224.5 -67h-20.5t-26.5 2v113z" />
<glyph unicode="~" horiz-adv-x="1021" d="M8 1163q76 129 137.5 181.5t137.5 52.5q23 0 43 -3t47.5 -12.5t67.5 -26t100 -42.5q49 -23 80.5 -37t53 -21.5t35 -10.5t25.5 -3q53 0 100.5 43t100.5 143l78 -71q-72 -129 -135.5 -183.5t-139.5 -54.5q-18 0 -35.5 3t-42 11.5t-61.5 23.5t-94 40q-61 27 -97 42 t-58.5 22.5t-35 9.5t-28.5 2q-53 0 -98.5 -40t-104.5 -145z" />
<glyph unicode="&#xa1;" horiz-adv-x="430" d="M-125 88q0 25 4 47.5t17.5 57t37 87t62.5 134.5q25 53 44 98t36.5 89t35 92t35.5 106q6 16 21.5 61t38.5 117l8 22l78 -26q-12 -39 -20.5 -70t-15.5 -58.5t-14 -57t-16 -70.5q-12 -55 -23 -108.5t-21.5 -112t-20.5 -127t-23 -154.5q-18 -125 -56 -180t-103 -55 q-47 0 -76 29.5t-29 78.5zM197 1247q0 66 36.5 106t96.5 40q53 0 86 -33t33 -88v-8q-4 -61 -41 -100.5t-95 -39.5q-53 0 -84.5 34t-31.5 89z" />
<glyph unicode="&#xa2;" horiz-adv-x="1064" d="M121 453q0 109 39 217t104.5 198t154.5 157t187 93l70 246h69l-67 -234q14 2 20.5 2.5t16.5 0.5q53 0 87 -25t34 -64q0 -29 -17.5 -59.5t-46.5 -52.5q-31 -20 -63 -21q-59 0 -64 62l-2 28v9l-184 -641q23 6 43 14t42.5 24.5t52.5 41t69 61.5l10 12l41 -47 q-70 -74 -147.5 -131t-141.5 -80l-76 -264h-69l71 246q-12 0 -18 -1t-17 -1q-98 0 -148 53t-50 156zM346 502q0 -90 45 -123l193 661q-43 -23 -91.5 -92t-86.5 -162q-29 -72 -44.5 -145.5t-15.5 -138.5z" />
<glyph unicode="&#xa3;" horiz-adv-x="1064" d="M-147 147q0 86 62 139.5t161 53.5q47 0 75.5 -5t77.5 -26q8 29 13.5 49.5t9.5 40t8 41t10 52.5q2 10 7.5 44.5t15.5 100.5l2 27h-25q-49 0 -79.5 -1t-47.5 -1q-14 0 -24 -3l24 89l35 -3.5t30 -1.5h35.5h51.5h14l6 31l29 180q35 199 158 311.5t311 112.5q55 0 104.5 -12 t87 -31.5t59 -47t21.5 -58.5q0 -29 -15 -55.5t-40 -45.5q-31 -20 -53 -20q-45 0 -74 57l-26 54q-35 74 -89 73q-45 0 -84.5 -34.5t-64.5 -94.5q-16 -39 -29.5 -75.5t-25 -81.5t-22.5 -100.5t-23 -133.5l-4 -29h26h117q51 2 77.5 2h30.5h12.5t18.5 3l-26 -89l-21 3l-121 -3 h-106h-13l-6 -24q-18 -88 -32.5 -145.5t-27.5 -98.5t-29.5 -72.5t-41.5 -66.5q59 -37 140 -62.5t137 -25.5q47 0 78.5 24.5t85.5 100.5l14 20l61 -45q-96 -152 -178 -221.5t-160 -69.5q-47 0 -89 16.5t-111 59.5q-23 16 -42.5 28.5t-35.5 22.5l-14 9q-63 -66 -130 -101 t-122 -35q-74 0 -124 49.5t-50 124.5zM-55 154q0 -35 23.5 -56.5t60.5 -21.5q76 0 139 96q-41 33 -74 46t-67 13q-37 0 -59.5 -21.5t-22.5 -55.5z" />
<glyph unicode="&#xa4;" horiz-adv-x="1363" d="M100 254l197 195q-53 72 -76.5 139t-23.5 149q0 84 23.5 150.5t78.5 140.5l-199 197l90 92l199 -199q74 53 142.5 78t150.5 25q80 0 147.5 -22.5t143.5 -76.5l194 193l88 -90l-192 -193q55 -72 79.5 -141.5t24.5 -155.5q0 -80 -22.5 -146.5t-75.5 -137.5l195 -197 l-90 -90l-195 194q-137 -104 -297 -104q-80 0 -148.5 23.5t-146.5 80.5l-197 -194zM346 737q0 -70 26.5 -131t73 -107t106.5 -73t130 -27t131 27t106.5 73t72 107.5t26.5 130.5q0 70 -26.5 131.5t-72 107.5t-105.5 72.5t-128 26.5q-70 0 -132 -26.5t-108.5 -71.5t-73 -106.5 t-26.5 -133.5z" />
<glyph unicode="&#xa5;" horiz-adv-x="1064" d="M-2 1364h186l348 -670l353 670h182l-307 -555h254v-102h-307l-89 -154h396v-102h-400v-451h-165v449h-386v104h381l-88 152h-293v104h240z" />
<glyph unicode="&#xa7;" horiz-adv-x="974" d="M-164 -240q0 53 32 93.5t77 40.5q31 0 48 -15.5t46 -62.5q59 -113 154 -113q59 0 99 46t40 112q0 63 -26.5 144t-92.5 216l-72 146q-53 113 -53 206q0 92 62.5 175t197.5 174q-4 27 -6 42t-2 31q0 59 29.5 121t89.5 121q68 70 152.5 108.5t164.5 38.5q74 0 126 -32.5 t52 -79.5q0 -29 -16 -61.5t-41 -51.5q-18 -16 -49 -16q-20 0 -36.5 7t-39.5 30q-41 39 -67.5 53t-55.5 14q-47 0 -85 -41t-38 -94q0 -51 24.5 -131t70.5 -172l63 -129q45 -92 63.5 -150.5t18.5 -105.5q0 -170 -252 -346q8 -39 11 -59.5t3 -43.5q0 -78 -33.5 -147.5 t-92 -121.5t-136.5 -83t-166 -31q-119 0 -191.5 46.5t-72.5 121.5zM276 682q0 -39 13.5 -82t48.5 -113l72 -151q16 -35 27.5 -57.5t19.5 -41t15 -34.5t17 -41q94 55 95 139q0 63 -41 150l-70 137q-35 70 -59.5 129t-44.5 114q-49 -35 -71 -68.5t-22 -80.5z" />
<glyph unicode="&#xa8;" horiz-adv-x="776" d="M608 1151v8q4 53 35 85t80 32q47 0 72.5 -26.5t25.5 -73.5q0 -53 -31.5 -86t-80.5 -33q-47 0 -74 25.5t-27 68.5zM942 1151l2 8q4 53 34 85t79 32q47 0 73.5 -26.5t26.5 -73.5q0 -53 -31.5 -86t-83.5 -33q-47 0 -73.5 25.5t-26.5 68.5z" />
<glyph unicode="&#xa9;" horiz-adv-x="1595" d="M86 682q0 147 55.5 276t152.5 225.5t226.5 152t276.5 55.5t276 -55.5t226.5 -152t152.5 -225.5t55 -276t-56 -276.5t-152.5 -225.5t-225.5 -151.5t-276 -55.5t-276.5 55.5t-226.5 151.5t-152.5 225.5t-55.5 276.5zM184 682q0 -127 48.5 -239.5t131 -196.5t194.5 -132 t237 -48q127 0 237.5 48t193.5 132t131 196.5t48 239.5t-48 239.5t-131 196.5t-193.5 132t-237.5 48q-125 0 -237 -48t-194.5 -132t-131 -196.5t-48.5 -239.5zM408 688q0 96 29.5 174t83.5 135.5t129 88t165 30.5q72 0 135.5 -21.5t111.5 -59.5t77.5 -91t36.5 -117h-119 q-18 88 -83 137.5t-163 49.5q-129 0 -205 -89t-76 -237q0 -147 76 -235t203 -88q109 0 175.5 62t80.5 179h121q-12 -158 -115.5 -251t-263.5 -93q-88 0 -162 31t-127 87t-81.5 135t-28.5 173z" />
<glyph unicode="&#xaa;" horiz-adv-x="827" d="M125 938q0 164 260 188l84 7q49 4 66.5 17t17.5 48q0 113 -139 113q-72 0 -106 -30t-44 -99h-106q16 209 260 209q127 0 186.5 -47.5t59.5 -149.5v-20l-2 -70v-72v-98q0 -66 4 -96.5t18 -61.5h-115q-8 14 -10 21.5t-2 19.5l-2 19l-2 20q-29 -29 -52.5 -47t-47 -29.5 t-50 -15.5t-61.5 -4q-104 0 -160.5 46t-56.5 132zM127 575v78h600v-78h-600zM242 942q0 -49 32.5 -76.5t92.5 -27.5q184 0 184 204v39q-14 -10 -31.5 -14t-46.5 -8l-76 -6q-156 -14 -155 -111z" />
<glyph unicode="&#xab;" horiz-adv-x="724" d="M-70 506l7 22l372 275l41 -47l-198 -246l92 -272l-51 -29zM283 506l6 22l375 275l43 -47l-201 -246l92 -272l-51 -29z" />
<glyph unicode="&#xac;" d="M20 430v117h984v-547h-117v430h-867z" />
<glyph unicode="&#xad;" horiz-adv-x="622" d="M-45 434l49 174h451l-49 -174h-451z" />
<glyph unicode="&#xae;" d="M109 1155q0 84 31.5 156.5t86 126t128 85t157.5 31.5t156.5 -31.5t127 -85t86 -126t31.5 -156.5q0 -82 -31.5 -154.5t-86 -126t-127 -85t-156.5 -31.5t-157.5 31.5t-128 85t-86 126t-31.5 154.5zM182 1155q0 -68 25.5 -127t71 -104t105.5 -71t128 -26t127 26t104 71 t71 104t26 127t-26 128t-70 104.5t-104 70t-128 25.5t-128 -25.5t-105.5 -70t-71 -104.5t-25.5 -128zM342 956v408h188q158 0 158 -117q0 -29 -9 -46t-36 -40l2 -20l19 -23q4 -4 10 -26q6 -14 6 -31l4 -29l2 -26l2 -17q0 -6 1 -11t7 -24h-73q-6 14 -8.5 23.5t-4.5 44.5 q-4 66 -21.5 83t-78.5 17h-90v-166h-78zM418 1180h92q104 0 104 61t-96 62h-100v-123z" />
<glyph unicode="&#xaf;" d="M199 1200v109h624v-109h-624z" />
<glyph unicode="&#xb0;" d="M207 1094q0 61 23.5 116.5t65.5 95.5t97.5 63.5t118.5 23.5t118.5 -23.5t97.5 -63.5t65.5 -95.5t23.5 -116.5t-23.5 -115.5t-65.5 -94.5t-97.5 -63.5t-118.5 -23.5t-118.5 23.5t-97.5 63.5t-65.5 94t-23.5 116zM311 1094q0 -41 15.5 -78t43 -64.5t63.5 -43t77 -15.5 t78 15.5t64.5 43t43 64.5t15.5 78q0 86 -58.5 144t-142.5 58t-141.5 -58t-57.5 -144z" />
<glyph unicode="&#xb1;" d="M18 133v127h986v-127h-986zM18 719v127h428v401h129v-399h429v-129h-426v-375h-129v375h-431z" />
<glyph unicode="&#xb4;" horiz-adv-x="1081" d="M453 956l254 353h170l16 2q4 -4 7 -5t3 -8q0 -6 -8 -12l-10 -12l-396 -350z" />
<glyph unicode="&#xb5;" d="M92 -344v1333h154v-557q0 -53 4 -91t13 -67.5t25.5 -54t41.5 -49.5q72 -70 172 -70q121 0 194.5 96.5t73.5 252.5v540h154v-989h-152v168q-51 -106 -113.5 -150.5t-156.5 -44.5q-88 0 -146.5 34t-109.5 116v-467h-154z" />
<glyph unicode="&#xb6;" horiz-adv-x="1148" d="M88 1001q0 119 60.5 208t160.5 124q49 16 108.5 24.5t123.5 8.5h471v-82h-99v-1483h-104v1483h-209v-1481h-108v846q-8 -2 -15.5 -2h-13.5q-82 0 -151.5 25.5t-119 73t-77 113t-27.5 142.5z" />
<glyph unicode="&#xb7;" horiz-adv-x="344" d="M18 657v9q4 72 47.5 115.5t108.5 43.5q61 0 98 -38.5t37 -102.5q0 -72 -43 -119t-110 -47q-63 0 -100.5 38t-37.5 101z" />
<glyph unicode="&#xb8;" horiz-adv-x="733" d="M-186 -340q0 10 7 24.5t17 24.5q14 12 31 12q14 0 23.5 -5t33.5 -29q27 -27 54 -27q35 0 61.5 32t26.5 75q0 59 -62 59q-31 0 -49 -25l-35 35l150 180h63l-55 -106q70 -4 101.5 -30.5t31.5 -80.5q0 -43 -20.5 -79.5t-55.5 -65.5t-81 -45.5t-99 -16.5q-59 0 -101 19.5 t-42 48.5z" />
<glyph unicode="&#xba;" horiz-adv-x="849" d="M123 1075q0 141 84 229.5t221 88.5q135 0 216 -87t81 -233q0 -141 -82 -227t-219 -86q-135 0 -218 86t-83 229zM131 575v78h600v-78h-600zM238 1075q0 -106 50 -167.5t138 -61.5q86 0 136 61.5t50 165.5q0 109 -50 170.5t-138 61.5q-86 0 -136 -61.5t-50 -168.5z" />
<glyph unicode="&#xbb;" horiz-adv-x="724" d="M-139 258l198 246l-92 272l51 27l265 -295l-7 -23l-372 -276zM215 258l199 246l-92 272l51 27l264 -295l-6 -23l-375 -276z" />
<glyph unicode="&#xbf;" horiz-adv-x="722" d="M-35 309q0 51 17.5 97.5t48.5 78.5q33 33 77 54.5t132 46.5q84 25 135 43t78.5 33.5t36 32t8.5 38.5q0 33 -23.5 52.5t-62.5 19.5q-10 0 -22.5 -1t-24.5 -3q-16 -4 -31 -4h-25q-41 0 -67.5 25.5t-26.5 66.5t24.5 63.5t67.5 22.5q49 0 100.5 -26.5t94.5 -78.5 q92 -104 92 -223q0 -51 -12.5 -89t-42 -66.5t-78.5 -52t-125 -46.5t-127 -42t-82 -39.5t-44 -42t-13 -48.5q0 -41 25.5 -67.5t60.5 -26.5q16 0 36.5 5t43.5 13l38 17q31 12 62 12q37 0 62.5 -25.5t25.5 -64.5q0 -47 -39 -75.5t-102 -28.5q-125 0 -224 108q-94 104 -94 221z M336 1247q0 66 37 106t96 40q55 0 87 -33t32 -88v-8q-4 -61 -40 -100.5t-95 -39.5q-53 0 -85 34t-32 89z" />
<glyph unicode="&#xc0;" horiz-adv-x="1523" d="M-223 0l22 74q80 6 191 82q45 35 93 82t114 124l98 113l735 864q57 8 119.5 24.5t110.5 35.5l24 -25q-4 -10 -5 -17t-3 -11q-4 -14 -11.5 -51.5t-21.5 -100.5q-16 -78 -23.5 -120t-9.5 -48l-104 -616q-14 -90 -23.5 -159t-9.5 -87q0 -49 28.5 -68.5t104.5 -21.5l-20 -74 q-55 4 -115.5 5t-165.5 1h-93t-62.5 -1t-49 -2t-55.5 -3l21 74h14q78 0 113.5 43t58.5 159l53 277h-395l-197 -246q-59 -76 -83.5 -116.5t-24.5 -67.5q0 -45 84 -47l22 -2l-22 -74q-33 2 -59.5 4t-53 3t-60.5 1h-83q-72 0 -132.5 -2t-107.5 -6h-16zM592 651h330l100 525z M930 1628q2 -4 10 -6l10 -6l379 -150l19 33l-277 189l-123 -46l-14 -2q-2 -4 -4 -6t0 -6z" />
<glyph unicode="&#xc1;" horiz-adv-x="1523" d="M-223 0l22 74q80 6 191 82q45 35 93 82t114 124l98 113l735 864q57 8 119.5 24.5t110.5 35.5l24 -25q-4 -10 -5 -17t-3 -11q-4 -14 -11.5 -51.5t-21.5 -100.5q-16 -78 -23.5 -120t-9.5 -48l-104 -616q-14 -90 -23.5 -159t-9.5 -87q0 -49 28.5 -68.5t104.5 -21.5l-20 -74 q-55 4 -115.5 5t-165.5 1h-93t-62.5 -1t-49 -2t-55.5 -3l21 74h14q78 0 113.5 43t58.5 159l53 277h-395l-197 -246q-59 -76 -83.5 -116.5t-24.5 -67.5q0 -45 84 -47l22 -2l-22 -74q-33 2 -59.5 4t-53 3t-60.5 1h-83q-72 0 -132.5 -2t-107.5 -6h-16zM592 651h330l100 525z M987 1493l277 186l122 -43l13 -4q6 -6 4 -10q-2 -6 -8 -8l-13 -6l-376 -150z" />
<glyph unicode="&#xc2;" horiz-adv-x="1523" d="M-223 0l22 74q80 6 191 82q45 35 93 82t114 124l98 113l735 864q57 8 119.5 24.5t110.5 35.5l24 -25q-4 -10 -5 -17t-3 -11q-4 -14 -11.5 -51.5t-21.5 -100.5q-16 -78 -23.5 -120t-9.5 -48l-104 -616q-14 -90 -23.5 -159t-9.5 -87q0 -49 28.5 -68.5t104.5 -21.5l-20 -74 q-55 4 -115.5 5t-165.5 1h-93t-62.5 -1t-49 -2t-55.5 -3l21 74h14q78 0 113.5 43t58.5 159l53 277h-395l-197 -246q-59 -76 -83.5 -116.5t-24.5 -67.5q0 -45 84 -47l22 -2l-22 -74q-33 2 -59.5 4t-53 3t-60.5 1h-83q-72 0 -132.5 -2t-107.5 -6h-16zM592 651h330l100 525z M981 1483l223 174h88l43 -189l-45 -6l-86 103l-192 -103z" />
<glyph unicode="&#xc3;" horiz-adv-x="1523" d="M-223 0l22 74q80 6 191 82q45 35 93 82t114 124l98 113l735 864q57 8 119.5 24.5t110.5 35.5l24 -25q-4 -10 -5 -17t-3 -11q-4 -14 -11.5 -51.5t-21.5 -100.5q-16 -78 -23.5 -120t-9.5 -48l-104 -616q-14 -90 -23.5 -159t-9.5 -87q0 -49 28.5 -68.5t104.5 -21.5l-20 -74 q-55 4 -115.5 5t-165.5 1h-93t-62.5 -1t-49 -2t-55.5 -3l21 74h14q78 0 113.5 43t58.5 159l53 277h-395l-197 -246q-59 -76 -83.5 -116.5t-24.5 -67.5q0 -45 84 -47l22 -2l-22 -74q-33 2 -59.5 4t-53 3t-60.5 1h-83q-72 0 -132.5 -2t-107.5 -6h-16zM592 651h330l100 525z M950 1493q16 18 21 29q41 59 67.5 79.5t61.5 20.5q12 0 33.5 -4t37.5 -10l39 -15l43 -12q37 -10 54 -10q16 0 28.5 8t28.5 35q2 4 3 5l5 5l47 -29q-51 -80 -81.5 -107.5t-71.5 -27.5q-10 0 -22.5 2t-24.5 6q-6 4 -17.5 7.5t-27.5 9.5q-90 29 -109 28q-16 0 -29.5 -9 t-29.5 -31q0 -2 -7 -9z" />
<glyph unicode="&#xc4;" horiz-adv-x="1523" d="M-223 0l22 74q80 6 191 82q45 35 93 82t114 124l98 113l735 864q57 8 119.5 24.5t110.5 35.5l24 -25q-4 -10 -5 -17t-3 -11q-4 -14 -11.5 -51.5t-21.5 -100.5q-16 -78 -23.5 -120t-9.5 -48l-104 -616q-14 -90 -23.5 -159t-9.5 -87q0 -49 28.5 -68.5t104.5 -21.5l-20 -74 q-55 4 -115.5 5t-165.5 1h-93t-62.5 -1t-49 -2t-55.5 -3l21 74h14q78 0 113.5 43t58.5 159l53 277h-395l-197 -246q-59 -76 -83.5 -116.5t-24.5 -67.5q0 -45 84 -47l22 -2l-22 -74q-33 2 -59.5 4t-53 3t-60.5 1h-83q-72 0 -132.5 -2t-107.5 -6h-16zM592 651h330l100 525z M889 1546v8q2 47 29.5 76t72.5 29q41 0 64.5 -24.5t23.5 -65.5q0 -47 -27.5 -77t-72.5 -30q-43 0 -66.5 22.5t-23.5 61.5zM1188 1546l2 8q4 47 30.5 76t71.5 29q41 0 65.5 -24.5t24.5 -65.5q0 -47 -28.5 -77t-73.5 -30q-41 0 -66.5 22.5t-25.5 61.5z" />
<glyph unicode="&#xc5;" horiz-adv-x="1523" d="M-223 0l22 74q80 6 191 82q45 35 93 82t114 124l98 113l735 864q57 8 119.5 24.5t110.5 35.5l24 -25q-4 -10 -5 -17t-3 -11q-4 -14 -11.5 -51.5t-21.5 -100.5q-16 -78 -23.5 -120t-9.5 -48l-104 -616q-14 -90 -23.5 -159t-9.5 -87q0 -49 28.5 -68.5t104.5 -21.5l-20 -74 q-55 4 -115.5 5t-165.5 1h-93t-62.5 -1t-49 -2t-55.5 -3l21 74h14q78 0 113.5 43t58.5 159l53 277h-395l-197 -246q-59 -76 -83.5 -116.5t-24.5 -67.5q0 -45 84 -47l22 -2l-22 -74q-33 2 -59.5 4t-53 3t-60.5 1h-83q-72 0 -132.5 -2t-107.5 -6h-16zM592 651h330l100 525z M1032 1591q0 55 39 94t94 39q53 0 92 -38.5t39 -94.5q0 -53 -38.5 -91t-92.5 -38q-55 0 -94 38t-39 91zM1092 1591q0 -31 21.5 -54.5t51.5 -23.5q31 0 51.5 24t20.5 54q0 35 -20.5 57.5t-51.5 22.5t-52 -22.5t-21 -57.5z" />
<glyph unicode="&#xc6;" horiz-adv-x="1816" d="M-276 0l22 74q59 2 102 17t93 56q45 35 88 81t77 94l529 702l67 92l31 41q33 45 33 74q0 35 -25.5 47t-95.5 12h-18l18 74q10 0 15.5 -1t7.5 -1q104 -6 446 -6h270l291 8h51q-6 -43 -11 -79t-8 -70.5t-5 -71.5t-4 -82l-2 -19h-78v19q-4 84 -22.5 125t-63.5 59 q-20 8 -43 13.5t-55.5 8.5t-76.5 4t-108 1h-22l-148 -514h148q72 0 118 7t76.5 25.5t51 52.5t38.5 89h76q-35 -94 -65.5 -198.5t-59.5 -231.5l-8 -29h-74q8 35 12.5 58.5t4.5 41.5q0 59 -39 78t-156 19h-147l-101 -348q-14 -43 -22 -84t-8 -62q0 -49 38.5 -68.5t137.5 -19.5 q100 0 170.5 12.5t122 42t89.5 80.5t70 127l78 -28q-8 -14 -14 -25.5t-12.5 -26t-15.5 -34t-23 -52.5q-29 -61 -47.5 -100t-26.5 -55q-4 -12 -12 -29h-39q-123 6 -494 6h-49q-285 0 -395 -6h-31l23 74h16q43 0 71.5 10t52 40t44 84t45.5 142l92 320h-309l-264 -367 q-39 -55 -60.5 -97t-21.5 -65q0 -35 25.5 -50t90.5 -17l-22 -74q-43 2 -75 4t-61.5 3t-62 1h-75.5q-66 0 -124.5 -2t-109.5 -6h-22zM569 758h271l147 514h-49z" />
<glyph unicode="&#xc7;" horiz-adv-x="1431" d="M39 522q0 160 58.5 315.5t166.5 278.5q121 135 278.5 206t348.5 71q43 0 88 -4.5t92 -12.5q6 -2 30.5 -6t72.5 -14q59 -14 103 -20.5t103 -10.5q-18 -41 -35.5 -90t-33 -99.5t-28.5 -97.5t-21 -86h-76q10 49 13 69.5t3 53.5q0 111 -71.5 171.5t-206.5 60.5 q-190 -2 -344 -131t-240 -363q-29 -82 -46.5 -168t-17.5 -158q0 -201 99.5 -314.5t275.5 -113.5q272 0 408 316h84q-8 -16 -8 -21q-10 -20 -24.5 -57t-37.5 -92q-45 -111 -61 -164q-2 -4 -4 -11t-7 -22q-23 -2 -40 -3t-33.5 -2t-38 -4t-53.5 -5q-86 -10 -131.5 -14.5 t-90.5 -6.5h-6l-30 -63q70 -4 101.5 -30.5t31.5 -80.5q0 -43 -20.5 -79.5t-56.5 -65.5t-83 -45.5t-100 -16.5q-59 0 -101.5 19.5t-42.5 48.5q0 10 7.5 24.5t17.5 24.5q16 12 30 12q20 0 37 -14q4 -2 8.5 -6t12.5 -10q25 -23 51 -23q31 0 53.5 30t22.5 71q0 51 -47 51 q-27 0 -49 -19l-33 35l114 137q-113 6 -204.5 48t-155 114t-98.5 170t-35 217z" />
<glyph unicode="&#xc8;" horiz-adv-x="1249" d="M-94 0l22 74h15q43 0 71.5 10t52 40t43 83t44.5 141l192 668q12 43 19.5 71.5t12.5 50t6 37t1 31.5q0 84 -102 84h-29l20 74q37 -2 62.5 -3t51.5 -2t58.5 -1h81.5h134l446 6h51q-6 -45 -11 -81t-8 -69.5t-5 -69.5t-5 -83l-2 -19h-77v21q-2 84 -20.5 125t-65.5 61 q-39 16 -97.5 21.5t-185.5 5.5h-23l-147 -516h147q72 0 118 6t77 24.5t51.5 52.5t38.5 89h74q-33 -92 -63.5 -197.5t-61.5 -232.5l-6 -29h-74q8 35 12 58.5t4 43.5q0 57 -38.5 76t-155.5 19h-148l-102 -351q-12 -41 -20.5 -82.5t-8.5 -60.5q0 -49 39 -68.5t137 -19.5 q100 0 172 13.5t124.5 44t88 82t66.5 126.5l80 -35q-10 -20 -27.5 -54t-36 -73.5t-39 -82.5t-36.5 -80l-13 -29h-39q-129 6 -495 6h-45q-285 0 -395 -6h-31zM528 1640q2 -4 11 -6l10 -6l379 -149l18 32l-276 189l-123 -45l-15 -2q-2 -4 -4 -6t0 -7z" />
<glyph unicode="&#xc9;" horiz-adv-x="1249" d="M-94 0l22 74h15q43 0 71.5 10t52 40t43 83t44.5 141l192 668q12 43 19.5 71.5t12.5 50t6 37t1 31.5q0 84 -102 84h-29l20 74q37 -2 62.5 -3t51.5 -2t58.5 -1h81.5h134l446 6h51q-6 -45 -11 -81t-8 -69.5t-5 -69.5t-5 -83l-2 -19h-77v21q-2 84 -20.5 125t-65.5 61 q-39 16 -97.5 21.5t-185.5 5.5h-23l-147 -516h147q72 0 118 6t77 24.5t51.5 52.5t38.5 89h74q-33 -92 -63.5 -197.5t-61.5 -232.5l-6 -29h-74q8 35 12 58.5t4 43.5q0 57 -38.5 76t-155.5 19h-148l-102 -351q-12 -41 -20.5 -82.5t-8.5 -60.5q0 -49 39 -68.5t137 -19.5 q100 0 172 13.5t124.5 44t88 82t66.5 126.5l80 -35q-10 -20 -27.5 -54t-36 -73.5t-39 -82.5t-36.5 -80l-13 -29h-39q-129 6 -495 6h-45q-285 0 -395 -6h-31zM580 1499l276 189l123 -46l14 -2q2 -4 4 -6t0 -6t-10 -6l-10 -6l-379 -150z" />
<glyph unicode="&#xca;" horiz-adv-x="1249" d="M-94 0l22 74h15q43 0 71.5 10t52 40t43 83t44.5 141l192 668q12 43 19.5 71.5t12.5 50t6 37t1 31.5q0 84 -102 84h-29l20 74q37 -2 62.5 -3t51.5 -2t58.5 -1h81.5h134l446 6h51q-6 -45 -11 -81t-8 -69.5t-5 -69.5t-5 -83l-2 -19h-77v21q-2 84 -20.5 125t-65.5 61 q-39 16 -97.5 21.5t-185.5 5.5h-23l-147 -516h147q72 0 118 6t77 24.5t51.5 52.5t38.5 89h74q-33 -92 -63.5 -197.5t-61.5 -232.5l-6 -29h-74q8 35 12 58.5t4 43.5q0 57 -38.5 76t-155.5 19h-148l-102 -351q-12 -41 -20.5 -82.5t-8.5 -60.5q0 -49 39 -68.5t137 -19.5 q100 0 172 13.5t124.5 44t88 82t66.5 126.5l80 -35q-10 -20 -27.5 -54t-36 -73.5t-39 -82.5t-36.5 -80l-13 -29h-39q-129 6 -495 6h-45q-285 0 -395 -6h-31zM618 1485l224 174h88l43 -189l-45 -6l-86 103l-193 -103z" />
<glyph unicode="&#xcb;" horiz-adv-x="1249" d="M-94 0l22 74h15q43 0 71.5 10t52 40t43 83t44.5 141l192 668q12 43 19.5 71.5t12.5 50t6 37t1 31.5q0 84 -102 84h-29l20 74q37 -2 62.5 -3t51.5 -2t58.5 -1h81.5h134l446 6h51q-6 -45 -11 -81t-8 -69.5t-5 -69.5t-5 -83l-2 -19h-77v21q-2 84 -20.5 125t-65.5 61 q-39 16 -97.5 21.5t-185.5 5.5h-23l-147 -516h147q72 0 118 6t77 24.5t51.5 52.5t38.5 89h74q-33 -92 -63.5 -197.5t-61.5 -232.5l-6 -29h-74q8 35 12 58.5t4 43.5q0 57 -38.5 76t-155.5 19h-148l-102 -351q-12 -41 -20.5 -82.5t-8.5 -60.5q0 -49 39 -68.5t137 -19.5 q100 0 172 13.5t124.5 44t88 82t66.5 126.5l80 -35q-10 -20 -27.5 -54t-36 -73.5t-39 -82.5t-36.5 -80l-13 -29h-39q-129 6 -495 6h-45q-285 0 -395 -6h-31zM504 1546v8q2 47 29.5 76t72.5 29q41 0 64.5 -24.5t23.5 -65.5q0 -47 -27.5 -77t-72.5 -30q-43 0 -66.5 22.5 t-23.5 61.5zM803 1546l2 8q4 47 30.5 76t71.5 29q41 0 65.5 -24.5t24.5 -65.5q0 -47 -28.5 -77t-73.5 -30q-41 0 -66.5 22.5t-25.5 61.5z" />
<glyph unicode="&#xcc;" horiz-adv-x="854" d="M-94 0l22 74h25q43 0 71.5 10t52 40t43 83t44.5 141l192 668q25 84 32 121t7 67q0 86 -102 86h-19l23 74q45 -2 78 -4t62.5 -3t59 -1h68.5q119 0 248 6l37 2l-21 -74h-20q-45 0 -73.5 -9t-51 -39t-43 -83t-45.5 -143l-193 -668q-12 -43 -19 -71.5t-12 -49t-6 -37 t-1 -32.5q0 -84 102 -84h29l-23 -74l-49 2q-150 6 -242 6q-96 0 -207 -6zM356 1632q2 -4 11 -6l10 -6l379 -150l18 33l-276 189l-123 -45l-15 -2q-2 -4 -4 -6.5t0 -6.5z" />
<glyph unicode="&#xcd;" horiz-adv-x="854" d="M-94 0l22 74h25q43 0 71.5 10t52 40t43 83t44.5 141l192 668q25 84 32 121t7 67q0 86 -102 86h-19l23 74q45 -2 78 -4t62.5 -3t59 -1h68.5q119 0 248 6l37 2l-21 -74h-20q-45 0 -73.5 -9t-51 -39t-43 -83t-45.5 -143l-193 -668q-12 -43 -19 -71.5t-12 -49t-6 -37 t-1 -32.5q0 -84 102 -84h29l-23 -74l-49 2q-150 6 -242 6q-96 0 -207 -6zM416 1511l276 189l123 -45l14 -2q2 -4 4.5 -6t0.5 -7q-2 -4 -11 -6l-10 -6l-379 -149z" />
<glyph unicode="&#xce;" horiz-adv-x="854" d="M-94 0l22 74h25q43 0 71.5 10t52 40t43 83t44.5 141l192 668q25 84 32 121t7 67q0 86 -102 86h-19l23 74q45 -2 78 -4t62.5 -3t59 -1h68.5q119 0 248 6l37 2l-21 -74h-20q-45 0 -73.5 -9t-51 -39t-43 -83t-45.5 -143l-193 -668q-12 -43 -19 -71.5t-12 -49t-6 -37 t-1 -32.5q0 -84 102 -84h29l-23 -74l-49 2q-150 6 -242 6q-96 0 -207 -6zM418 1487l223 174h88l43 -188l-45 -7l-86 103l-192 -103z" />
<glyph unicode="&#xcf;" horiz-adv-x="854" d="M-94 0l22 74h25q43 0 71.5 10t52 40t43 83t44.5 141l192 668q25 84 32 121t7 67q0 86 -102 86h-19l23 74q45 -2 78 -4t62.5 -3t59 -1h68.5q119 0 248 6l37 2l-21 -74h-20q-45 0 -73.5 -9t-51 -39t-43 -83t-45.5 -143l-193 -668q-12 -43 -19 -71.5t-12 -49t-6 -37 t-1 -32.5q0 -84 102 -84h29l-23 -74l-49 2q-150 6 -242 6q-96 0 -207 -6zM340 1546v8q2 47 29.5 76t72.5 29q41 0 64.5 -24.5t23.5 -65.5q0 -47 -27.5 -77t-72.5 -30q-43 0 -66.5 22.5t-23.5 61.5zM639 1546l2 8q4 47 30.5 76t71.5 29q41 0 66 -24.5t25 -65.5q0 -47 -29 -77 t-74 -30q-41 0 -66.5 22.5t-25.5 61.5z" />
<glyph unicode="&#xd1;" horiz-adv-x="1738" d="M-37 0l23 74q43 0 73.5 10t54 40t45 83t48.5 141l199 645l32 111q18 61 19 96q0 47 -46 68.5t-155 21.5h-29l23 74q53 -4 105.5 -6t121.5 -2h64.5t51 1t47.5 3t56 4q14 -45 44 -114.5t94 -202.5l348 -740l223 776l10 50t10 53v14q0 49 -29.5 67.5t-107.5 20.5l-86 2h-20 l20 74q51 -2 88 -4t68 -3t59.5 -1h61.5h62.5t59 1t70.5 3t92 4l-22 -74h-12q-43 0 -73 -9t-52.5 -39t-44 -83t-48.5 -143l-260 -838q20 -45 59.5 -82t90.5 -59l-12 -37l-27 2q-33 2 -61.5 3t-51.5 1q-35 0 -57.5 -1t-63.5 -5q-55 33 -96 123l-35 74l-446 929l-215 -751 q-20 -70 -33.5 -135.5t-13.5 -89.5q0 -41 30.5 -58.5t100.5 -17.5h82h28l-22 -74q-43 2 -76 4t-61.5 3t-59 1h-69.5q-125 0 -242 -6zM764 1489q16 18 20 29q41 59 68 79.5t61 20.5q12 0 34 -4t38 -10l39 -15l43 -12q37 -10 53 -10t28.5 8t29.5 35q2 4 3 5l5 5l47 -29 q-51 -80 -82 -107.5t-72 -27.5q-10 0 -22.5 2t-24.5 6q-6 4 -17 7.5t-28 9.5q-90 29 -108 28q-16 0 -29.5 -9t-30.5 -32q0 -2 -6 -8z" />
<glyph unicode="&#xd2;" horiz-adv-x="1335" d="M23 469q0 186 60 353t162.5 294t239 202t285.5 75q213 0 330 -132.5t117 -375.5q0 -180 -61.5 -346t-166 -291t-241 -200t-285.5 -75q-96 0 -176 33t-136.5 92.5t-89 145.5t-36.5 192q-2 10 -2 33zM256 373q0 -150 51 -233t146 -83q209 0 366 318q39 76 66.5 147.5 t50.5 143.5q47 172 47 325q0 154 -49 235t-148 81q-207 0 -366 -316q-78 -150 -117 -289.5t-47 -295.5v-33zM543 1636q2 -4 10 -6l10 -6l379 -149l19 32l-277 189l-123 -45l-14 -2q-2 -4 -4 -6.5t0 -6.5z" />
<glyph unicode="&#xd3;" horiz-adv-x="1335" d="M23 469q0 186 60 353t162.5 294t239 202t285.5 75q213 0 330 -132.5t117 -375.5q0 -180 -61.5 -346t-166 -291t-241 -200t-285.5 -75q-96 0 -176 33t-136.5 92.5t-89 145.5t-36.5 192q-2 10 -2 33zM256 373q0 -150 51 -233t146 -83q209 0 366 318q39 76 66.5 147.5 t50.5 143.5q47 172 47 325q0 154 -49 235t-148 81q-207 0 -366 -316q-78 -150 -117 -289.5t-47 -295.5v-33zM621 1497l276 189l123 -46l14 -2q2 -4 4 -6t0 -6t-10 -6l-10 -6l-379 -150z" />
<glyph unicode="&#xd4;" horiz-adv-x="1335" d="M23 469q0 186 60 353t162.5 294t239 202t285.5 75q213 0 330 -132.5t117 -375.5q0 -180 -61.5 -346t-166 -291t-241 -200t-285.5 -75q-96 0 -176 33t-136.5 92.5t-89 145.5t-36.5 192q-2 10 -2 33zM256 373q0 -150 51 -233t146 -83q209 0 366 318q39 76 66.5 147.5 t50.5 143.5q47 172 47 325q0 154 -49 235t-148 81q-207 0 -366 -316q-78 -150 -117 -289.5t-47 -295.5v-33zM629 1487l223 174h88l43 -188l-45 -7l-86 103l-193 -103z" />
<glyph unicode="&#xd5;" horiz-adv-x="1335" d="M23 469q0 186 60 353t162.5 294t239 202t285.5 75q213 0 330 -132.5t117 -375.5q0 -180 -61.5 -346t-166 -291t-241 -200t-285.5 -75q-96 0 -176 33t-136.5 92.5t-89 145.5t-36.5 192q-2 10 -2 33zM256 373q0 -150 51 -233t146 -83q209 0 366 318q39 76 66.5 147.5 t50.5 143.5q47 172 47 325q0 154 -49 235t-148 81q-207 0 -366 -316q-78 -150 -117 -289.5t-47 -295.5v-33zM555 1499q16 18 20 29q41 59 68 79.5t62 20.5q12 0 33.5 -4t37.5 -10l39 -15l43 -12q37 -10 53 -10t28.5 8t29.5 35q2 4 3 5l5 5l47 -28q-51 -80 -82 -108t-72 -28 q-10 0 -22 2t-25 7q-6 4 -17 7t-28 9q-90 29 -108 29q-16 0 -29.5 -9.5t-30.5 -31.5q0 -2 -6 -9z" />
<glyph unicode="&#xd6;" horiz-adv-x="1335" d="M23 469q0 186 60 353t162.5 294t239 202t285.5 75q213 0 330 -132.5t117 -375.5q0 -180 -61.5 -346t-166 -291t-241 -200t-285.5 -75q-96 0 -176 33t-136.5 92.5t-89 145.5t-36.5 192q-2 10 -2 33zM256 373q0 -150 51 -233t146 -83q209 0 366 318q39 76 66.5 147.5 t50.5 143.5q47 172 47 325q0 154 -49 235t-148 81q-207 0 -366 -316q-78 -150 -117 -289.5t-47 -295.5v-33zM537 1546v8q2 47 29.5 76t72.5 29q41 0 64.5 -24.5t23.5 -65.5q0 -47 -27.5 -77t-72.5 -30q-43 0 -66.5 22.5t-23.5 61.5zM836 1546l2 8q4 47 30.5 76t71.5 29 q41 0 65.5 -24.5t24.5 -65.5q0 -47 -28.5 -77t-73.5 -30q-41 0 -66.5 22.5t-25.5 61.5z" />
<glyph unicode="&#xd8;" horiz-adv-x="1449" d="M-66 43l195 184q-25 59 -35 115.5t-10 128.5q0 186 60.5 353t163 293t238.5 201t288 75q240 0 358 -174l172 159l59 -61l-190 -178q43 -111 43 -258q0 -180 -61.5 -344t-166 -289t-240.5 -200t-286 -75q-117 0 -208 45t-148 134l-178 -166zM315 401l725 674v8 q-12 104 -63 164t-129 60q-209 0 -369 -316q-78 -154 -117.5 -296t-46.5 -289v-5zM319 295l3 -6q12 -113 62 -172.5t130 -59.5q207 0 365 318q76 145 116 291q23 78 33 147.5t14 144.5v7z" />
<glyph unicode="&#xd9;" horiz-adv-x="1564" d="M156 279q0 41 8 89t26 107l46 152l110 389q25 84 33 121t8 67q0 86 -102 86h-31l22 74q33 -2 57.5 -4t50.5 -3t58.5 -1h81.5h97.5t73 1t65.5 3t76 4l-21 -74h-14q-45 0 -75 -9t-52.5 -39t-43 -83t-44.5 -143l-109 -379q-8 -29 -43 -139q-43 -137 -43 -211 q0 -98 66.5 -155.5t181.5 -57.5q127 0 224.5 69.5t150.5 198.5q23 53 48 127t46 145l115 402q25 86 33 122t8 66q0 86 -103 86h-14l20 74q78 -4 119 -6t92 -2h46.5t46 1t57.5 3t80 4l-21 -74h-18q-39 0 -66.5 -8t-49 -28.5t-39 -56.5t-34.5 -89l-157 -500 q-37 -117 -66 -197.5t-57 -140.5q-18 -39 -42 -74.5t-52 -66.5q-78 -82 -179.5 -119t-244.5 -37q-217 0 -321.5 75t-104.5 231zM766 1632q2 -4 10 -6l10 -6l379 -150l19 33l-277 189l-123 -45l-14 -2q-2 -4 -4 -6.5t0 -6.5z" />
<glyph unicode="&#xda;" horiz-adv-x="1564" d="M156 279q0 41 8 89t26 107l46 152l110 389q25 84 33 121t8 67q0 86 -102 86h-31l22 74q33 -2 57.5 -4t50.5 -3t58.5 -1h81.5h97.5t73 1t65.5 3t76 4l-21 -74h-14q-45 0 -75 -9t-52.5 -39t-43 -83t-44.5 -143l-109 -379q-8 -29 -43 -139q-43 -137 -43 -211 q0 -98 66.5 -155.5t181.5 -57.5q127 0 224.5 69.5t150.5 198.5q23 53 48 127t46 145l115 402q25 86 33 122t8 66q0 86 -103 86h-14l20 74q78 -4 119 -6t92 -2h46.5t46 1t57.5 3t80 4l-21 -74h-18q-39 0 -66.5 -8t-49 -28.5t-39 -56.5t-34.5 -89l-157 -500 q-37 -117 -66 -197.5t-57 -140.5q-18 -39 -42 -74.5t-52 -66.5q-78 -82 -179.5 -119t-244.5 -37q-217 0 -321.5 75t-104.5 231zM817 1511l277 189l123 -45l14 -2q2 -4 4 -6t0 -7q-2 -4 -10 -6l-11 -6l-378 -149z" />
<glyph unicode="&#xdb;" horiz-adv-x="1564" d="M156 279q0 41 8 89t26 107l46 152l110 389q25 84 33 121t8 67q0 86 -102 86h-31l22 74q33 -2 57.5 -4t50.5 -3t58.5 -1h81.5h97.5t73 1t65.5 3t76 4l-21 -74h-14q-45 0 -75 -9t-52.5 -39t-43 -83t-44.5 -143l-109 -379q-8 -29 -43 -139q-43 -137 -43 -211 q0 -98 66.5 -155.5t181.5 -57.5q127 0 224.5 69.5t150.5 198.5q23 53 48 127t46 145l115 402q25 86 33 122t8 66q0 86 -103 86h-14l20 74q78 -4 119 -6t92 -2h46.5t46 1t57.5 3t80 4l-21 -74h-18q-39 0 -66.5 -8t-49 -28.5t-39 -56.5t-34.5 -89l-157 -500 q-37 -117 -66 -197.5t-57 -140.5q-18 -39 -42 -74.5t-52 -66.5q-78 -82 -179.5 -119t-244.5 -37q-217 0 -321.5 75t-104.5 231zM795 1491l223 174h88l43 -188l-45 -7l-86 103l-193 -103z" />
<glyph unicode="&#xdc;" horiz-adv-x="1564" d="M156 279q0 41 8 89t26 107l46 152l110 389q25 84 33 121t8 67q0 86 -102 86h-31l22 74q33 -2 57.5 -4t50.5 -3t58.5 -1h81.5h97.5t73 1t65.5 3t76 4l-21 -74h-14q-45 0 -75 -9t-52.5 -39t-43 -83t-44.5 -143l-109 -379q-8 -29 -43 -139q-43 -137 -43 -211 q0 -98 66.5 -155.5t181.5 -57.5q127 0 224.5 69.5t150.5 198.5q23 53 48 127t46 145l115 402q25 86 33 122t8 66q0 86 -103 86h-14l20 74q78 -4 119 -6t92 -2h46.5t46 1t57.5 3t80 4l-21 -74h-18q-39 0 -66.5 -8t-49 -28.5t-39 -56.5t-34.5 -89l-157 -500 q-37 -117 -66 -197.5t-57 -140.5q-18 -39 -42 -74.5t-52 -66.5q-78 -82 -179.5 -119t-244.5 -37q-217 0 -321.5 75t-104.5 231zM717 1546v8q2 47 29.5 76t72.5 29q41 0 64.5 -24.5t23.5 -65.5q0 -47 -27.5 -77t-72.5 -30q-43 0 -66.5 22.5t-23.5 61.5zM1016 1546l2 8 q4 47 30.5 76t71.5 29q41 0 65.5 -24.5t24.5 -65.5q0 -47 -28.5 -77t-73.5 -30q-41 0 -66.5 22.5t-25.5 61.5z" />
<glyph unicode="&#xdf;" horiz-adv-x="1040" d="M-565 -338q0 31 15 61.5t44 53.5q12 10 30.5 16t33.5 6q27 0 40 -16t29 -72q14 -43 24.5 -55t37.5 -12q68 0 129 117.5t127 375.5l30 121l172 649q16 68 51 147t72 136q66 100 174.5 157.5t233.5 57.5q66 0 122 -17.5t96 -48t62.5 -73.5t22.5 -95q0 -41 -19.5 -88 t-48.5 -75q-31 -31 -91 -76t-122 -82q-66 -39 -89 -62.5t-23 -52.5q0 -23 14 -52.5t51 -84.5q39 -57 63.5 -99t39 -74t20.5 -57.5t6 -50.5q0 -125 -110 -229q-53 -53 -120 -80.5t-132 -27.5q-72 0 -115 28.5t-43 79.5q0 45 28.5 78t65.5 33q29 0 43.5 -16.5t36.5 -73.5 q25 -57 62 -58q39 0 71 55q25 41 25 84q0 23 -4 42.5t-14.5 43t-29 55t-46.5 77.5q-33 49 -53.5 83.5t-33 59t-16.5 43t-4 35.5q0 45 28 85t97 99l64 51q205 170 204 330q0 59 -35.5 98t-91.5 39q-98 0 -171.5 -99t-129.5 -306l-147 -555l-41 -164q-25 -88 -46.5 -157.5 t-44 -125t-49 -100.5t-57.5 -86q-66 -86 -160 -133t-198 -47q-86 0 -133 27.5t-47 76.5z" />
<glyph unicode="&#xe0;" horiz-adv-x="1001" d="M-76 106q0 109 51.5 232t145.5 242q109 135 216 193t243 58h26t21 -4l20 47l168 21q12 4 27 4q2 2 3 1t3 1q8 -2 8 -8q0 -8 -1 -11t-9 -20q-53 -109 -144 -360q-92 -258 -92 -328q0 -39 25 -39q18 0 47 23l45 41q10 8 21.5 19t27.5 28l15 14l40 -41l-14 -14 q-106 -117 -189 -171t-155 -54q-76 0 -76 98q0 43 6.5 83t22.5 85q-127 -143 -220 -204.5t-186 -61.5q-96 0 -96 126zM154 190q0 -43 28 -43q18 0 49 18.5t66 49.5q66 55 111 127q35 53 70.5 125t80.5 176q16 39 16 68q0 43 -61 43q-31 0 -62.5 -14.5t-54.5 -37.5 q-109 -109 -198 -331q-18 -41 -27.5 -74t-13.5 -55l-4 -37v-15zM332 1124q2 -4 10 -6l10 -6l379 -149l19 32l-277 189l-123 -45l-14 -2q-2 -4 -4 -6.5t0 -6.5z" />
<glyph unicode="&#xe1;" horiz-adv-x="1001" d="M-76 106q0 109 51.5 232t145.5 242q109 135 216 193t243 58h26t21 -4l20 47l168 21q12 4 27 4q2 2 3 1t3 1q8 -2 8 -8q0 -8 -1 -11t-9 -20q-53 -109 -144 -360q-92 -258 -92 -328q0 -39 25 -39q18 0 47 23l45 41q10 8 21.5 19t27.5 28l15 14l40 -41l-14 -14 q-106 -117 -189 -171t-155 -54q-76 0 -76 98q0 43 6.5 83t22.5 85q-127 -143 -220 -204.5t-186 -61.5q-96 0 -96 126zM154 190q0 -43 28 -43q18 0 49 18.5t66 49.5q66 55 111 127q35 53 70.5 125t80.5 176q16 39 16 68q0 43 -61 43q-31 0 -62.5 -14.5t-54.5 -37.5 q-109 -109 -198 -331q-18 -41 -27.5 -74t-13.5 -55l-4 -37v-15zM451 995l276 189l123 -45l14 -2q2 -4 4 -6.5t0 -6.5t-10 -6l-10 -6l-379 -149z" />
<glyph unicode="&#xe2;" horiz-adv-x="1001" d="M-76 106q0 109 51.5 232t145.5 242q109 135 216 193t243 58h26t21 -4l20 47l168 21q12 4 27 4q2 2 3 1t3 1q8 -2 8 -8q0 -8 -1 -11t-9 -20q-53 -109 -144 -360q-92 -258 -92 -328q0 -39 25 -39q18 0 47 23l45 41q10 8 21.5 19t27.5 28l15 14l40 -41l-14 -14 q-106 -117 -189 -171t-155 -54q-76 0 -76 98q0 43 6.5 83t22.5 85q-127 -143 -220 -204.5t-186 -61.5q-96 0 -96 126zM154 190q0 -43 28 -43q18 0 49 18.5t66 49.5q66 55 111 127q35 53 70.5 125t80.5 176q16 39 16 68q0 43 -61 43q-31 0 -62.5 -14.5t-54.5 -37.5 q-109 -109 -198 -331q-18 -41 -27.5 -74t-13.5 -55l-4 -37v-15zM438 977l224 174h88l43 -188l-45 -7l-86 103l-193 -103z" />
<glyph unicode="&#xe3;" horiz-adv-x="1001" d="M-76 106q0 109 51.5 232t145.5 242q109 135 216 193t243 58h26t21 -4l20 47l168 21q12 4 27 4q2 2 3 1t3 1q8 -2 8 -8q0 -8 -1 -11t-9 -20q-53 -109 -144 -360q-92 -258 -92 -328q0 -39 25 -39q18 0 47 23l45 41q10 8 21.5 19t27.5 28l15 14l40 -41l-14 -14 q-106 -117 -189 -171t-155 -54q-76 0 -76 98q0 43 6.5 83t22.5 85q-127 -143 -220 -204.5t-186 -61.5q-96 0 -96 126zM154 190q0 -43 28 -43q18 0 49 18.5t66 49.5q66 55 111 127q35 53 70.5 125t80.5 176q16 39 16 68q0 43 -61 43q-31 0 -62.5 -14.5t-54.5 -37.5 q-109 -109 -198 -331q-18 -41 -27.5 -74t-13.5 -55l-4 -37v-15zM309 991q16 18 21 29q41 59 67.5 79.5t61.5 20.5q12 0 33.5 -4t37.5 -10l39 -14l43 -13q37 -10 54 -10q16 0 28.5 8t28.5 35q2 4 3 5l5 5l47 -28q-51 -80 -81.5 -108t-71.5 -28q-10 0 -22.5 2.5t-24.5 6.5 q-6 4 -17.5 7t-28.5 9q-90 29 -108 29q-16 0 -29.5 -9.5t-29.5 -31.5q0 -2 -7 -8z" />
<glyph unicode="&#xe4;" horiz-adv-x="1001" d="M-76 106q0 109 51.5 232t145.5 242q109 135 216 193t243 58h26t21 -4l20 47l168 21q12 4 27 4q2 2 3 1t3 1q8 -2 8 -8q0 -8 -1 -11t-9 -20q-53 -109 -144 -360q-92 -258 -92 -328q0 -39 25 -39q18 0 47 23l45 41q10 8 21.5 19t27.5 28l15 14l40 -41l-14 -14 q-106 -117 -189 -171t-155 -54q-76 0 -76 98q0 43 6.5 83t22.5 85q-127 -143 -220 -204.5t-186 -61.5q-96 0 -96 126zM154 190q0 -43 28 -43q18 0 49 18.5t66 49.5q66 55 111 127q35 53 70.5 125t80.5 176q16 39 16 68q0 43 -61 43q-31 0 -62.5 -14.5t-54.5 -37.5 q-109 -109 -198 -331q-18 -41 -27.5 -74t-13.5 -55l-4 -37v-15zM307 1038v9q2 47 30 75.5t73 28.5q41 0 64.5 -24.5t23.5 -65.5q0 -47 -28 -77t-73 -30q-43 0 -66.5 22.5t-23.5 61.5zM606 1038l2 9q4 47 31 75.5t72 28.5q41 0 65.5 -24.5t24.5 -65.5q0 -47 -29 -77t-74 -30 q-41 0 -66.5 22.5t-25.5 61.5z" />
<glyph unicode="&#xe5;" horiz-adv-x="1001" d="M-76 106q0 109 51.5 232t145.5 242q109 135 216 193t243 58h26t21 -4l20 47l168 21q12 4 27 4q2 2 3 1t3 1q8 -2 8 -8q0 -8 -1 -11t-9 -20q-53 -109 -144 -360q-92 -258 -92 -328q0 -39 25 -39q18 0 47 23l45 41q10 8 21.5 19t27.5 28l15 14l40 -41l-14 -14 q-106 -117 -189 -171t-155 -54q-76 0 -76 98q0 43 6.5 83t22.5 85q-127 -143 -220 -204.5t-186 -61.5q-96 0 -96 126zM154 190q0 -43 28 -43q18 0 49 18.5t66 49.5q66 55 111 127q35 53 70.5 125t80.5 176q16 39 16 68q0 43 -61 43q-31 0 -62.5 -14.5t-54.5 -37.5 q-109 -109 -198 -331q-18 -41 -27.5 -74t-13.5 -55l-4 -37v-15zM457 1090q0 55 39 94t94 39q53 0 92 -39t39 -94q0 -53 -39 -91t-92 -38q-55 0 -94 38t-39 91zM516 1090q0 -31 21.5 -54.5t52.5 -23.5t51.5 23.5t20.5 54.5q0 35 -20.5 57t-51.5 22t-52.5 -22t-21.5 -57z" />
<glyph unicode="&#xe6;" horiz-adv-x="1157" d="M-80 106q0 98 53.5 220.5t151.5 244.5q100 129 198.5 186.5t213.5 57.5q23 0 42 -2t50 -8q82 61 190 61q74 0 118 -35.5t44 -95.5q0 -49 -30.5 -97t-83 -87t-119 -64.5t-140.5 -29.5q-8 -41 -11 -64.5t-3 -58.5q0 -94 23.5 -149.5t62.5 -55.5q35 0 80 38t114 124l9 12 l49 -39q-90 -137 -189.5 -210.5t-191.5 -73.5q-78 0 -122 56t-44 154v17.5t2 21.5l-27 -30q-111 -119 -189.5 -168t-154.5 -49q-96 0 -96 124zM168 199q0 -39 22 -39q16 0 43 19.5t74 64.5q35 31 48.5 48t33.5 46q37 250 160 383q-31 8 -49.5 10t-34.5 2q-113 0 -211 -225 q-41 -92 -63.5 -174t-22.5 -135zM621 543q10 -16 34 -17q20 0 46 18.5t49 51.5q27 37 44 83t17 75q0 37 -29 37q-31 0 -68.5 -44.5t-66.5 -115.5q-12 -29 -17 -44t-9 -44z" />
<glyph unicode="&#xe7;" horiz-adv-x="778" d="M-143 -340q0 10 7 24.5t17 24.5q14 12 31 12q16 0 24.5 -5t32.5 -29q14 -14 24.5 -20.5t26.5 -6.5q37 0 64 32t27 75q0 59 -62 59q-33 0 -49 -25l-35 35l125 150q-127 25 -127 198q0 96 32 199.5t91 198.5q84 133 204 208.5t245 75.5q53 0 86.5 -24.5t33.5 -63.5 q0 -29 -17 -59.5t-46 -50.5q-29 -23 -64 -23t-49 19.5t-16 70.5q0 45 -35 45q-39 0 -91 -72.5t-93 -187.5q-27 -72 -42.5 -152.5t-15.5 -148.5q0 -119 72 -119q41 0 91 32t136 114q2 4 4.5 5t6.5 5l41 -47q-94 -100 -201 -166q-45 -29 -88 -43t-88 -18l-37 -72 q72 -4 103.5 -30.5t31.5 -80.5q0 -43 -20.5 -79.5t-56.5 -65.5t-82 -45.5t-99 -16.5q-59 0 -101 19.5t-42 48.5z" />
<glyph unicode="&#xe8;" horiz-adv-x="790" d="M-43 184q0 217 147 428q86 123 186.5 188.5t201.5 65.5q59 0 90.5 -37.5t31.5 -109.5q0 -66 -32.5 -117t-110.5 -102q-68 -43 -136.5 -81t-129.5 -67q-6 -29 -8 -46t-2 -40q0 -72 18 -110.5t49 -38.5q35 0 93.5 35.5t129.5 103.5l15 12l43 -49q-129 -129 -223.5 -183 t-182.5 -54q-180 0 -180 202zM143 1124q2 -4 11 -6l10 -6l379 -149l18 32l-276 189l-123 -45l-15 -2q-2 -4 -4 -6.5t0 -6.5zM221 434q211 94 211 266q0 80 -33 80q-37 0 -81 -72.5t-78 -191.5q-10 -27 -12.5 -41t-6.5 -41z" />
<glyph unicode="&#xe9;" horiz-adv-x="790" d="M-43 184q0 217 147 428q86 123 186.5 188.5t201.5 65.5q59 0 90.5 -37.5t31.5 -109.5q0 -66 -32.5 -117t-110.5 -102q-68 -43 -136.5 -81t-129.5 -67q-6 -29 -8 -46t-2 -40q0 -72 18 -110.5t49 -38.5q35 0 93.5 35.5t129.5 103.5l15 12l43 -49q-129 -129 -223.5 -183 t-182.5 -54q-180 0 -180 202zM221 434q211 94 211 266q0 80 -33 80q-37 0 -81 -72.5t-78 -191.5q-10 -27 -12.5 -41t-6.5 -41zM293 995l276 189l123 -45l15 -2q2 -4 4 -6.5t0 -6.5t-11 -6l-10 -6l-379 -149z" />
<glyph unicode="&#xea;" horiz-adv-x="790" d="M-43 184q0 217 147 428q86 123 186.5 188.5t201.5 65.5q59 0 90.5 -37.5t31.5 -109.5q0 -66 -32.5 -117t-110.5 -102q-68 -43 -136.5 -81t-129.5 -67q-6 -29 -8 -46t-2 -40q0 -72 18 -110.5t49 -38.5q35 0 93.5 35.5t129.5 103.5l15 12l43 -49q-129 -129 -223.5 -183 t-182.5 -54q-180 0 -180 202zM221 434q211 94 211 266q0 80 -33 80q-37 0 -81 -72.5t-78 -191.5q-10 -27 -12.5 -41t-6.5 -41zM270 975l224 174h88l43 -188l-45 -7l-86 103l-193 -103z" />
<glyph unicode="&#xeb;" horiz-adv-x="790" d="M-43 184q0 217 147 428q86 123 186.5 188.5t201.5 65.5q59 0 90.5 -37.5t31.5 -109.5q0 -66 -32.5 -117t-110.5 -102q-68 -43 -136.5 -81t-129.5 -67q-6 -29 -8 -46t-2 -40q0 -72 18 -110.5t49 -38.5q35 0 93.5 35.5t129.5 103.5l15 12l43 -49q-129 -129 -223.5 -183 t-182.5 -54q-180 0 -180 202zM221 434q211 94 211 266q0 80 -33 80q-37 0 -81 -72.5t-78 -191.5q-10 -27 -12.5 -41t-6.5 -41zM248 1040v9q2 47 29.5 75.5t72.5 28.5q41 0 64.5 -24.5t23.5 -65.5q0 -47 -27.5 -77t-72.5 -30q-43 0 -66.5 22.5t-23.5 61.5zM547 1040l2 9 q4 47 30.5 75.5t71.5 28.5q41 0 65.5 -24.5t24.5 -65.5q0 -47 -28.5 -77t-73.5 -30q-41 0 -66.5 22.5t-25.5 61.5z" />
<glyph unicode="&#xec;" horiz-adv-x="610" d="M-33 63q0 20 7.5 51t17.5 60l37 98l118 297l23 68q8 18 8 35q0 18 -20 18q-25 0 -88 -67l-39 -43l-8 -11l-46 45l11 15q111 123 198.5 180t163.5 57q82 0 82 -69q0 -23 -8 -52.5t-29 -76.5l-20 -54l-154 -372q-18 -49 -18 -70q0 -29 20 -29t49 22.5t99 92.5q4 6 7 7t7 7 l43 -45l-25 -24q-59 -63 -91.5 -94t-71.5 -58q-53 -37 -99.5 -53t-91.5 -16q-37 0 -59.5 21.5t-22.5 59.5zM113 1122q2 -4 10 -6l10 -6l379 -149l18 32l-276 189l-123 -45l-14 -2q-2 -4 -4 -6.5t0 -6.5z" />
<glyph unicode="&#xed;" horiz-adv-x="610" d="M-33 63q0 20 7.5 51t17.5 60l37 98l118 297l23 68q8 18 8 35q0 18 -20 18q-25 0 -88 -67l-39 -43l-8 -11l-46 45l11 15q111 123 198.5 180t163.5 57q82 0 82 -69q0 -23 -8 -52.5t-29 -76.5l-20 -54l-154 -372q-18 -49 -18 -70q0 -29 20 -29t49 22.5t99 92.5q4 6 7 7t7 7 l43 -45l-25 -24q-59 -63 -91.5 -94t-71.5 -58q-53 -37 -99.5 -53t-91.5 -16q-37 0 -59.5 21.5t-22.5 59.5zM139 995l277 187l123 -43l12 -4q6 -6 4 -11q-2 -6 -8 -8l-12 -6l-377 -149z" />
<glyph unicode="&#xee;" horiz-adv-x="610" d="M-33 63q0 20 7.5 51t17.5 60l37 98l118 297l23 68q8 18 8 35q0 18 -20 18q-25 0 -88 -67l-39 -43l-8 -11l-46 45l11 15q111 123 198.5 180t163.5 57q82 0 82 -69q0 -23 -8 -52.5t-29 -76.5l-20 -54l-154 -372q-18 -49 -18 -70q0 -29 20 -29t49 22.5t99 92.5q4 6 7 7t7 7 l43 -45l-25 -24q-59 -63 -91.5 -94t-71.5 -58q-53 -37 -99.5 -53t-91.5 -16q-37 0 -59.5 21.5t-22.5 59.5zM113 979l223 174h88l43 -188l-45 -7l-86 103l-193 -103z" />
<glyph unicode="&#xef;" horiz-adv-x="610" d="M-33 63q0 20 7.5 51t17.5 60l37 98l118 297l23 68q8 18 8 35q0 18 -20 18q-25 0 -88 -67l-39 -43l-8 -11l-46 45l11 15q111 123 198.5 180t163.5 57q82 0 82 -69q0 -23 -8 -52.5t-29 -76.5l-20 -54l-154 -372q-18 -49 -18 -70q0 -29 20 -29t49 22.5t99 92.5q4 6 7 7t7 7 l43 -45l-25 -24q-59 -63 -91.5 -94t-71.5 -58q-53 -37 -99.5 -53t-91.5 -16q-37 0 -59.5 21.5t-22.5 59.5zM125 1042v9q2 47 29.5 75.5t72.5 28.5q41 0 64.5 -24.5t23.5 -65.5q0 -47 -27.5 -77t-72.5 -30q-43 0 -66.5 23t-23.5 61zM424 1042l2 9q4 47 30.5 75.5t71.5 28.5 q41 0 65.5 -24.5t24.5 -65.5q0 -47 -28.5 -77t-73.5 -30q-41 0 -66.5 23t-25.5 61z" />
<glyph unicode="&#xf1;" horiz-adv-x="1101" d="M-57 -10q0 6 1 8t3 8q0 6 2 8t4 6l47 115l33 80q37 90 71.5 184.5t63.5 175.5q25 74 25 101t-21 26q-23 0 -78 -61l-53 -59l-10 -13l-45 37q180 262 327 262q41 0 64.5 -24.5t23.5 -67.5q0 -35 -19.5 -104.5t-62.5 -186.5q43 57 78 100.5t66 77t59.5 59.5t59.5 50 q123 94 217 94q96 0 96 -90q0 -23 -11.5 -64.5t-31.5 -90.5q-12 -27 -21.5 -48.5t-23.5 -52.5t-35.5 -76t-58.5 -118q-39 -78 -54.5 -117t-15.5 -55q0 -23 25 -23q23 0 59.5 31t101.5 102l11 12l45 -43q-23 -29 -64 -70.5t-84 -80.5q-117 -102 -227 -102q-94 0 -94 75 q0 29 11 65t42 105l37 82q14 33 33.5 72t42.5 86q43 88 62.5 137t19.5 72q0 27 -21 26h-2q-27 -6 -51 -24q-78 -59 -143.5 -134t-114.5 -157q-47 -78 -100.5 -185.5t-92.5 -199.5q-27 0 -33 -2q-8 0 -63 -6q-33 -4 -51.5 -6t-24.5 -4h-16q-8 2 -8 8zM322 989q16 18 20 29 q41 59 67.5 79.5t61.5 20.5q12 0 33.5 -4t38.5 -10l39 -14l43 -13q37 -10 53 -10t28.5 8t28.5 35q2 4 3 5l5 5l48 -28q-51 -80 -82 -108t-72 -28q-10 0 -22.5 2.5t-24.5 6.5q-6 4 -17.5 7t-27.5 9q-90 29 -109 29q-16 0 -29.5 -9.5t-29.5 -31.5q0 -2 -6 -8z" />
<glyph unicode="&#xf2;" horiz-adv-x="925" d="M-37 258v25q8 117 53 222t114 186t157 129t180 48q123 0 200.5 -78.5t77.5 -201.5q0 -94 -35.5 -194.5t-101.5 -192.5q-78 -109 -174 -165t-201 -56q-125 0 -197.5 74.5t-72.5 203.5zM174 166q0 -106 70 -107q125 0 233 324q27 74 43.5 158t16.5 141q0 109 -70 109 q-53 0 -110.5 -74t-110.5 -211q-35 -94 -52.5 -173t-19.5 -163v-4zM235.5 1130.5q-2.5 -2.5 0.5 -6.5q2 -4 10 -6l10 -6l379 -149l18 32l-276 189l-123 -45l-14 -2q-2 -4 -4.5 -6.5z" />
<glyph unicode="&#xf3;" horiz-adv-x="925" d="M-37 258v25q8 117 53 222t114 186t157 129t180 48q123 0 200.5 -78.5t77.5 -201.5q0 -94 -35.5 -194.5t-101.5 -192.5q-78 -109 -174 -165t-201 -56q-125 0 -197.5 74.5t-72.5 203.5zM174 166q0 -106 70 -107q125 0 233 324q27 74 43.5 158t16.5 141q0 109 -70 109 q-53 0 -110.5 -74t-110.5 -211q-35 -94 -52.5 -173t-19.5 -163v-4zM295 995l276 187l123 -43l13 -4q6 -6 4 -11q-2 -6 -9 -8l-12 -6l-377 -149z" />
<glyph unicode="&#xf4;" horiz-adv-x="925" d="M-37 258v25q8 117 53 222t114 186t157 129t180 48q123 0 200.5 -78.5t77.5 -201.5q0 -94 -35.5 -194.5t-101.5 -192.5q-78 -109 -174 -165t-201 -56q-125 0 -197.5 74.5t-72.5 203.5zM174 166q0 -106 70 -107q125 0 233 324q27 74 43.5 158t16.5 141q0 109 -70 109 q-53 0 -110.5 -74t-110.5 -211q-35 -94 -52.5 -173t-19.5 -163v-4zM305 981l223 174h88l43 -188l-45 -6l-86 102l-192 -102z" />
<glyph unicode="&#xf5;" horiz-adv-x="925" d="M-37 258v25q8 117 53 222t114 186t157 129t180 48q123 0 200.5 -78.5t77.5 -201.5q0 -94 -35.5 -194.5t-101.5 -192.5q-78 -109 -174 -165t-201 -56q-125 0 -197.5 74.5t-72.5 203.5zM174 166q0 -106 70 -107q125 0 233 324q27 74 43.5 158t16.5 141q0 109 -70 109 q-53 0 -110.5 -74t-110.5 -211q-35 -94 -52.5 -173t-19.5 -163v-4zM270 987q16 18 21 29q41 59 67.5 79.5t61.5 20.5q12 0 33.5 -4t38.5 -10l38 -15l43 -12q37 -10 54 -10q16 0 28.5 8t28.5 35q2 4 3 5l5 5l47 -28q-51 -80 -81.5 -108t-71.5 -28q-10 0 -22.5 2t-24.5 7 q-6 4 -17.5 7t-27.5 9q-90 29 -109 29q-16 0 -29.5 -9.5t-29.5 -31.5q0 -2 -7 -9z" />
<glyph unicode="&#xf6;" horiz-adv-x="925" d="M-37 258v25q8 117 53 222t114 186t157 129t180 48q123 0 200.5 -78.5t77.5 -201.5q0 -94 -35.5 -194.5t-101.5 -192.5q-78 -109 -174 -165t-201 -56q-125 0 -197.5 74.5t-72.5 203.5zM174 166q0 -106 70 -107q125 0 233 324q27 74 43.5 158t16.5 141q0 109 -70 109 q-53 0 -110.5 -74t-110.5 -211q-35 -94 -52.5 -173t-19.5 -163v-4zM293 1038v9q2 47 29.5 75.5t72.5 28.5q41 0 64.5 -24.5t23.5 -65.5q0 -47 -27.5 -77t-72.5 -30q-43 0 -66.5 22.5t-23.5 61.5zM592 1038l2 9q4 47 30.5 75.5t71.5 28.5q41 0 65.5 -24.5t24.5 -65.5 q0 -47 -28.5 -77t-73.5 -30q-41 0 -66.5 22.5t-25.5 61.5z" />
<glyph unicode="&#xf7;" d="M18 635v127h986v-127h-986zM403 313q0 45 32 76t75 31q45 0 75.5 -31t30.5 -76t-30.5 -75.5t-75.5 -30.5q-43 0 -75 30.5t-32 75.5zM403 1083q0 45 32 76t75 31q45 0 75.5 -31t30.5 -76t-30.5 -75.5t-75.5 -30.5q-43 0 -75 30.5t-32 75.5z" />
<glyph unicode="&#xf8;" horiz-adv-x="925" d="M-106 47l90 86q-12 35 -16.5 58.5t-4.5 66.5q0 117 43 226.5t113.5 194.5t162 136t187.5 51q131 0 207 -86l88 82l51 -53l-96 -92q16 -41 21 -65.5t5 -63.5q0 -94 -35.5 -194.5t-101.5 -192.5q-78 -109 -173 -165t-199 -56q-131 0 -211 86l-80 -76zM174 164 q0 -49 18.5 -77t51.5 -28q90 0 168 160q37 78 63.5 155t42.5 148v6l-342 -321v-6q-2 -12 -2 -21.5v-15.5zM193 330l342 317v6q0 6 1 13.5t1 13.5q0 111 -70 111q-35 0 -75 -36t-76.5 -99.5t-68.5 -146.5t-54 -179z" />
<glyph unicode="&#xf9;" horiz-adv-x="1116" d="M-8 68q0 18 5 42.5t19.5 61.5t37 88t55.5 125q57 123 89.5 203t32.5 96q0 12 -3 14t-9 2q-10 0 -30.5 -13t-43.5 -36q-35 -33 -47 -46t-30 -38l-52 45q217 256 365 256q41 0 66.5 -19.5t25.5 -53.5q0 -16 -4 -36t-16.5 -52.5t-35 -83t-59.5 -127.5q-29 -59 -45 -97.5 t-24 -54.5l-33 -78q-10 -25 -14 -38t-4 -23q0 -29 18 -29q23 0 64.5 42t119.5 142q49 63 88 119t72 110t61.5 112.5t59.5 127.5l8 17h12q51 4 98.5 8t80.5 10q4 2 7 1t5 1q4 -4 9 -4t5 -4t-3 -10t-13 -27q-27 -49 -57.5 -118.5t-62.5 -147.5t-60.5 -159t-51.5 -152 q-16 -53 -16 -78t20 -25q16 0 69.5 49.5t107.5 118.5l49 -43l-13 -14q-37 -43 -64.5 -74t-51 -54.5t-46 -43t-46.5 -37.5q-82 -63 -156 -63q-88 0 -88 86q0 41 20.5 106.5t69.5 187.5q4 8 8 18.5t8 27.5l-26 -35l-66 -80q-49 -61 -86 -104.5t-68.5 -74t-61.5 -53t-62 -43.5 q-29 -14 -66 -25t-59 -11q-82 0 -82 88zM399 1124q2 -4 11 -6l10 -6l379 -149l18 32l-276 189l-123 -45l-15 -2q-2 -4 -4 -6.5t0 -6.5z" />
<glyph unicode="&#xfa;" horiz-adv-x="1116" d="M-8 68q0 18 5 42.5t19.5 61.5t37 88t55.5 125q57 123 89.5 203t32.5 96q0 12 -3 14t-9 2q-10 0 -30.5 -13t-43.5 -36q-35 -33 -47 -46t-30 -38l-52 45q217 256 365 256q41 0 66.5 -19.5t25.5 -53.5q0 -16 -4 -36t-16.5 -52.5t-35 -83t-59.5 -127.5q-29 -59 -45 -97.5 t-24 -54.5l-33 -78q-10 -25 -14 -38t-4 -23q0 -29 18 -29q23 0 64.5 42t119.5 142q49 63 88 119t72 110t61.5 112.5t59.5 127.5l8 17h12q51 4 98.5 8t80.5 10q4 2 7 1t5 1q4 -4 9 -4t5 -4t-3 -10t-13 -27q-27 -49 -57.5 -118.5t-62.5 -147.5t-60.5 -159t-51.5 -152 q-16 -53 -16 -78t20 -25q16 0 69.5 49.5t107.5 118.5l49 -43l-13 -14q-37 -43 -64.5 -74t-51 -54.5t-46 -43t-46.5 -37.5q-82 -63 -156 -63q-88 0 -88 86q0 41 20.5 106.5t69.5 187.5q4 8 8 18.5t8 27.5l-26 -35l-66 -80q-49 -61 -86 -104.5t-68.5 -74t-61.5 -53t-62 -43.5 q-29 -14 -66 -25t-59 -11q-82 0 -82 88zM449 995l276 187l123 -43l12 -4q6 -6 4 -11q-2 -6 -8 -8l-12 -6l-377 -149z" />
<glyph unicode="&#xfb;" horiz-adv-x="1116" d="M-8 68q0 18 5 42.5t19.5 61.5t37 88t55.5 125q57 123 89.5 203t32.5 96q0 12 -3 14t-9 2q-10 0 -30.5 -13t-43.5 -36q-35 -33 -47 -46t-30 -38l-52 45q217 256 365 256q41 0 66.5 -19.5t25.5 -53.5q0 -16 -4 -36t-16.5 -52.5t-35 -83t-59.5 -127.5q-29 -59 -45 -97.5 t-24 -54.5l-33 -78q-10 -25 -14 -38t-4 -23q0 -29 18 -29q23 0 64.5 42t119.5 142q49 63 88 119t72 110t61.5 112.5t59.5 127.5l8 17h12q51 4 98.5 8t80.5 10q4 2 7 1t5 1q4 -4 9 -4t5 -4t-3 -10t-13 -27q-27 -49 -57.5 -118.5t-62.5 -147.5t-60.5 -159t-51.5 -152 q-16 -53 -16 -78t20 -25q16 0 69.5 49.5t107.5 118.5l49 -43l-13 -14q-37 -43 -64.5 -74t-51 -54.5t-46 -43t-46.5 -37.5q-82 -63 -156 -63q-88 0 -88 86q0 41 20.5 106.5t69.5 187.5q4 8 8 18.5t8 27.5l-26 -35l-66 -80q-49 -61 -86 -104.5t-68.5 -74t-61.5 -53t-62 -43.5 q-29 -14 -66 -25t-59 -11q-82 0 -82 88zM446 975l224 174h88l43 -188l-45 -7l-86 103l-193 -103z" />
<glyph unicode="&#xfc;" horiz-adv-x="1116" d="M-8 68q0 18 5 42.5t19.5 61.5t37 88t55.5 125q57 123 89.5 203t32.5 96q0 12 -3 14t-9 2q-10 0 -30.5 -13t-43.5 -36q-35 -33 -47 -46t-30 -38l-52 45q217 256 365 256q41 0 66.5 -19.5t25.5 -53.5q0 -16 -4 -36t-16.5 -52.5t-35 -83t-59.5 -127.5q-29 -59 -45 -97.5 t-24 -54.5l-33 -78q-10 -25 -14 -38t-4 -23q0 -29 18 -29q23 0 64.5 42t119.5 142q49 63 88 119t72 110t61.5 112.5t59.5 127.5l8 17h12q51 4 98.5 8t80.5 10q4 2 7 1t5 1q4 -4 9 -4t5 -4t-3 -10t-13 -27q-27 -49 -57.5 -118.5t-62.5 -147.5t-60.5 -159t-51.5 -152 q-16 -53 -16 -78t20 -25q16 0 69.5 49.5t107.5 118.5l49 -43l-13 -14q-37 -43 -64.5 -74t-51 -54.5t-46 -43t-46.5 -37.5q-82 -63 -156 -63q-88 0 -88 86q0 41 20.5 106.5t69.5 187.5q4 8 8 18.5t8 27.5l-26 -35l-66 -80q-49 -61 -86 -104.5t-68.5 -74t-61.5 -53t-62 -43.5 q-29 -14 -66 -25t-59 -11q-82 0 -82 88zM424 1047v8q2 47 29.5 75.5t72.5 28.5q41 0 64.5 -24.5t23.5 -65.5q0 -47 -27.5 -76.5t-72.5 -29.5q-43 0 -66.5 22.5t-23.5 61.5zM723 1047l2 8q4 47 30.5 75.5t71.5 28.5q41 0 66 -24.5t25 -65.5q0 -47 -29 -76.5t-74 -29.5 q-41 0 -66.5 22.5t-25.5 61.5z" />
<glyph unicode="&#xff;" horiz-adv-x="978" d="M-412 -346q0 47 38 84t85 37t80 -45l16 -25q16 -23 34 -31t53 -8q33 0 71.5 16.5t76.5 43t71.5 61.5t56.5 72q47 82 72.5 194.5t25.5 251.5q0 80 -7 150.5t-19.5 124t-27.5 84t-34 30.5q-45 0 -131 -162l-53 29q27 68 60.5 123t70.5 96t74 63.5t69 22.5q102 0 148 -166 q47 -178 47 -358q0 -86 -9.5 -149.5t-29.5 -139.5q47 59 81 112.5t66 119.5q41 86 58.5 144t17.5 124q0 63 -26 100l-31 39q-27 41 -27 68q0 43 33 74.5t76 31.5q53 0 85 -47t32 -123q0 -74 -23 -158.5t-64.5 -177t-102 -186.5t-136.5 -184q-174 -209 -360.5 -321.5 t-360.5 -112.5q-156 0 -156 98zM235 1098v8q4 53 35 85t80 32q47 0 72.5 -26.5t25.5 -73.5q0 -53 -31.5 -86t-80.5 -33q-47 0 -74 25.5t-27 68.5zM569 1098l2 8q4 53 34 85t79 32q47 0 73.5 -26.5t26.5 -73.5q0 -53 -31.5 -86t-83.5 -33q-47 0 -73.5 25.5t-26.5 68.5z" />
<glyph unicode="&#x152;" horiz-adv-x="1865" d="M23 481q0 154 49 301.5t145 276.5q117 158 268.5 238.5t333.5 80.5q33 0 94 -6q57 -4 96.5 -7t70 -4t57 -2t59.5 -1h197q141 0 226 1t120 3q6 0 16.5 1t22.5 1q-8 -45 -12.5 -81t-7.5 -69.5t-5 -69.5t-4 -83l-2 -19h-78q0 6 -1 11.5t-1 9.5q0 84 -18.5 125t-65.5 61 q-39 16 -97.5 21.5t-185.5 5.5h-22l-148 -516h148q72 0 118 6t76.5 24.5t51 52.5t39.5 89h73q-33 -92 -63.5 -197.5t-61.5 -232.5l-6 -29h-73q8 35 12 58.5t4 43.5q0 57 -39 76t-156 19h-147l-102 -351q-12 -41 -20.5 -82.5t-8.5 -60.5q0 -49 39 -68.5t137 -19.5 q100 0 171 12.5t122 43t89 81.5t71 129l77 -35q-10 -20 -27.5 -54t-36 -73.5t-38.5 -82.5t-37 -80l-12 -29h-39q-88 4 -182.5 6t-196.5 2q-154 0 -271.5 -3t-185.5 -7l-112 -10q-12 0 -24.5 -1t-26.5 -1q-225 0 -347 128t-122 367zM256 418q0 -170 72.5 -259t214.5 -89 q80 0 128 46t79 150l243 852q10 33 13.5 48.5t3.5 29.5q0 43 -40 69.5t-106 26.5q-172 0 -316.5 -140t-230.5 -392q-27 -78 -44 -175.5t-17 -166.5z" />
<glyph unicode="&#x153;" horiz-adv-x="1257" d="M-41 274q0 98 42 208t114 198q72 90 163 138t185 48q150 0 221 -137q59 68 128 104.5t134 36.5q66 0 102.5 -38.5t36.5 -110.5q0 -109 -116 -197q-57 -43 -136 -89t-163 -85q-4 -23 -5 -36t-1 -29q0 -170 71 -170q35 0 95.5 39t136.5 110l45 -45l-32.5 -32.5t-29 -28 t-33 -27.5t-43.5 -33q-84 -66 -146 -92t-124 -26q-115 0 -145 106q-49 -53 -111.5 -78.5t-132.5 -25.5q-119 0 -187.5 77.5t-68.5 214.5zM174 152q0 -45 18.5 -72t47.5 -27q45 0 93 56.5t91 156.5q20 49 38.5 106.5t32 114t20.5 109.5t7 92q0 47 -17.5 76t-47.5 29 q-106 0 -217 -306q-35 -92 -50.5 -173.5t-15.5 -161.5zM690 432q211 94 211 264q0 84 -35 84q-20 0 -45.5 -29.5t-50.5 -78.5t-46.5 -111.5t-33.5 -128.5z" />
<glyph unicode="&#x178;" horiz-adv-x="1288" d="M72 1290l20 74q23 -2 37 -4t31.5 -3t44 -1h69.5h26.5t25.5 2q209 0 272 6h20l-22 -74h-21q-98 0 -98 -76q0 -16 3 -31.5t14 -52.5l118 -409l279 321l47 58q31 35 48.5 57.5t26.5 36.5t11 23.5t2 19.5q0 27 -24.5 39t-79.5 14l22 74q39 -2 67.5 -4t51 -3t44 -1h48.5 q66 0 182 6l49 2l-22 -74q-66 -4 -119 -34.5t-123 -108.5l-479 -526l-78 -273q-12 -43 -19 -71.5t-12.5 -49t-6.5 -37t-1 -32.5q0 -84 103 -84h28l-22 -74h-23q-66 4 -129 6t-127 2q-121 0 -243 -6l-37 -2l22 74h15q43 0 71.5 10t52 40t44 83t45.5 141l80 273l-115 409 q-20 74 -42 123t-46.5 79t-56 43t-74.5 15zM493 1610v8q4 53 35 85t80 32q47 0 72.5 -26.5t25.5 -73.5q0 -53 -31.5 -86t-80.5 -33q-47 0 -74 25.5t-27 68.5zM827 1610l2 8q4 53 34 85t79 32q47 0 73.5 -26.5t26.5 -73.5q0 -53 -31.5 -86t-83.5 -33q-47 0 -73.5 25.5 t-26.5 68.5z" />
<glyph unicode="&#x2c6;" horiz-adv-x="923" d="M322 963l290 348h115l55 -377l-59 -12l-111 202l-250 -202z" />
<glyph unicode="&#x2dc;" horiz-adv-x="989" d="M326 1116q10 12 16 21.5t10 15.5q53 78 87 104.5t79 26.5q16 0 44 -5t50 -13l52 -19l55 -16q43 -12 67 -12q23 0 38.5 10t37.5 45q2 4 4 6l6 6l62 -35q-33 -51 -58.5 -86t-48 -54t-45 -27.5t-47.5 -8.5q-27 0 -61 10q-10 4 -24.5 8.5t-35.5 12.5q-111 37 -141 37 q-23 0 -39 -11.5t-37 -39.5q-2 -4 -3 -6.5t-5 -6.5z" />
<glyph unicode="&#x2000;" horiz-adv-x="867" />
<glyph unicode="&#x2001;" horiz-adv-x="1735" />
<glyph unicode="&#x2002;" horiz-adv-x="867" />
<glyph unicode="&#x2003;" horiz-adv-x="1735" />
<glyph unicode="&#x2004;" horiz-adv-x="578" />
<glyph unicode="&#x2005;" horiz-adv-x="433" />
<glyph unicode="&#x2006;" horiz-adv-x="289" />
<glyph unicode="&#x2007;" horiz-adv-x="289" />
<glyph unicode="&#x2008;" horiz-adv-x="216" />
<glyph unicode="&#x2009;" horiz-adv-x="347" />
<glyph unicode="&#x200a;" horiz-adv-x="96" />
<glyph unicode="&#x2010;" horiz-adv-x="622" d="M-45 434l49 174h451l-49 -174h-451z" />
<glyph unicode="&#x2011;" horiz-adv-x="622" d="M-45 434l49 174h451l-49 -174h-451z" />
<glyph unicode="&#x2012;" horiz-adv-x="622" d="M-45 434l49 174h451l-49 -174h-451z" />
<glyph unicode="&#x2013;" d="M18 635v127h986v-127h-986z" />
<glyph unicode="&#x2014;" horiz-adv-x="1523" d="M-45 453l39 135h1364l-39 -135h-1364z" />
<glyph unicode="&#x2018;" horiz-adv-x="323" d="M43 1085q0 66 26.5 120.5t72.5 94t110.5 62t140.5 22.5h43l-4 -65q-248 -6 -248 -150q0 -41 29 -41q2 2 6 1t10 1h9q47 0 75.5 -29.5t28.5 -76.5q0 -57 -38 -94t-97 -37q-72 0 -118 53t-46 139z" />
<glyph unicode="&#x2019;" horiz-adv-x="323" d="M41 895l4 66q250 2 250 147q0 41 -29 41h-16h-8q-47 -2 -76 28.5t-29 77.5q0 55 37 92t96 37q72 0 119 -53t47 -139q0 -63 -26.5 -118.5t-73.5 -95.5t-111.5 -62.5t-140.5 -22.5h-18.5t-24.5 2z" />
<glyph unicode="&#x201a;" horiz-adv-x="323" d="M-285 -250l2 66q250 2 250 147q0 39 -28 39h-17h-8q-47 -2 -75.5 28.5t-28.5 78.5q0 55 37.5 92t95.5 37q72 0 117.5 -53.5t45.5 -137.5q0 -66 -26.5 -120t-72.5 -94t-109.5 -62.5t-139.5 -22.5h-18t-25 2z" />
<glyph unicode="&#x201c;" horiz-adv-x="714" d="M90 1085q0 66 26.5 120.5t73 94t111 62t139.5 22.5h43l-2 -65q-250 -6 -250 -150q0 -41 29 -41q2 2 6 1t10 1h9q47 0 75.5 -29.5t28.5 -76.5q0 -57 -38 -94t-95 -37q-74 0 -120 53t-46 139zM481 1085q0 66 27 120.5t74 94t111.5 62t140.5 22.5h43l-5 -65 q-250 -6 -249 -150q0 -41 28 -41q4 2 8.5 1t10.5 1h8q45 0 73.5 -29.5t28.5 -76.5q0 -57 -36.5 -94t-96.5 -37q-72 0 -119 53t-47 139z" />
<glyph unicode="&#x201d;" horiz-adv-x="714" d="M41 895l4 66q250 2 250 147q0 41 -29 41h-16h-8q-47 -2 -76 28.5t-29 77.5q0 55 37 92t96 37q72 0 119 -53t47 -139q0 -63 -26.5 -118.5t-73.5 -95.5t-111.5 -62.5t-140.5 -22.5h-18.5t-24.5 2zM434 895l4 66q248 2 248 147q0 41 -29 41h-16h-6q-47 -2 -77 28.5t-30 77.5 q0 55 38 92t98 37q72 0 117.5 -53t45.5 -139q0 -63 -26.5 -118.5t-73.5 -95.5t-110.5 -62.5t-139.5 -22.5h-18t-25 2z" />
<glyph unicode="&#x201e;" horiz-adv-x="714" d="M-285 -250l2 66q250 2 250 147q0 39 -28 39h-17h-8q-47 -2 -75.5 28.5t-28.5 78.5q0 55 37.5 92t95.5 37q72 0 117.5 -53.5t45.5 -137.5q0 -66 -26.5 -120t-72.5 -94t-109.5 -62.5t-139.5 -22.5h-18t-25 2zM104 -250l5 66q250 2 249 147q0 39 -28 39h-17h-8 q-47 -2 -75.5 28.5t-28.5 78.5q0 55 36.5 92t96.5 37q72 0 119 -53.5t47 -137.5q0 -66 -27 -120t-74 -94t-111.5 -62.5t-140.5 -22.5h-18t-25 2z" />
<glyph unicode="&#x2022;" horiz-adv-x="669" d="M168 692q0 70 48 119t118 49t118 -49t48 -119t-48.5 -118t-117.5 -48q-70 0 -118 48.5t-48 117.5z" />
<glyph unicode="&#x2026;" horiz-adv-x="1157" d="M-147 92v6q4 63 40.5 101.5t94.5 38.5q51 0 82.5 -34t31.5 -89q0 -63 -36.5 -102.5t-94.5 -39.5q-55 0 -86.5 32t-31.5 87zM236 92v6q4 63 40.5 101.5t94.5 38.5q53 0 85.5 -34t32.5 -89q0 -63 -37.5 -102.5t-97.5 -39.5q-53 0 -85.5 32t-32.5 87zM623 92v6 q4 63 39.5 101.5t95.5 38.5q53 0 84.5 -34t31.5 -89q0 -63 -36.5 -102.5t-96.5 -39.5q-55 0 -86.5 32t-31.5 87z" />
<glyph unicode="&#x202f;" horiz-adv-x="347" />
<glyph unicode="&#x2039;" horiz-adv-x="370" d="M-70 506l7 22l372 275l41 -47l-198 -246l92 -272l-51 -29z" />
<glyph unicode="&#x203a;" horiz-adv-x="370" d="M-139 258l198 246l-92 272l51 27l265 -295l-7 -23l-372 -276z" />
<glyph unicode="&#x205f;" horiz-adv-x="433" />
<glyph unicode="&#x2122;" horiz-adv-x="1746" d="M23 1262v102h661v-102h-268v-715h-123v715h-270zM782 545v819h179l247 -602l256 602h176v-817h-110v700l-285 -702h-71l-277 700v-700h-115z" />
<glyph unicode="&#x25fc;" horiz-adv-x="870" d="M0 0v870h870v-870h-870z" />
</font>
</defs>
</svg>
