<?xml version="1.0" standalone="no"?>
<!DOCTYPE svg PUBLIC "-//W3C//DTD SVG 1.1//EN" "http://www.w3.org/Graphics/SVG/1.1/DTD/svg11.dtd" >
<svg xmlns="http://www.w3.org/2000/svg">
<metadata></metadata>
<defs>
<font id="gabercorbold" horiz-adv-x="1024" >
<font-face units-per-em="2048" ascent="1536" descent="-512" />
<missing-glyph horiz-adv-x="716" />
<glyph horiz-adv-x="0" />
<glyph horiz-adv-x="0" />
<glyph unicode="&#xd;" horiz-adv-x="512" />
<glyph unicode=" "  horiz-adv-x="716" />
<glyph unicode="&#x09;" horiz-adv-x="716" />
<glyph unicode="&#xa0;" horiz-adv-x="716" />
<glyph unicode="!" horiz-adv-x="514" d="M109 133q0 59 43 102.5t104 43.5t104 -42t43 -102q0 -63 -43 -106t-104 -43t-104 43t-43 104zM127 1225q0 76 34 117.5t95 41.5t95 -42t34 -117q0 -27 -3 -69t-8 -92t-12.5 -107.5t-15.5 -112.5l-63 -430h-52l-65 430q-8 55 -15.5 112.5t-12.5 107.5t-8 92t-3 69z" />
<glyph unicode="&#x22;" horiz-adv-x="788" d="M174 1364h160l-33 -561h-94zM453 1364h159l-32 -561h-95z" />
<glyph unicode="#" horiz-adv-x="1163" d="M84 449l2 116h240l39 260h-222l2 117h238l66 422h114l-63 -422h264l63 422h119l-65 -422h204l-2 -117h-219l-41 -260h207l-2 -116h-221l-72 -449h-117l68 449h-264l-68 -449h-114l67 449h-223zM440 565h267l38 260h-264z" />
<glyph unicode="$" horiz-adv-x="954" d="M-10 154q0 35 47 63q47 27 67 27q37 0 72 -49q47 -66 96.5 -96.5t108.5 -30.5q4 0 10 1t15 1v510l-25 14q-63 39 -102 65.5t-66 46t-43 38t-35 42.5q-35 45 -55 107q-16 59 -17 108q0 141 91.5 244t251.5 137v131h81v-118h35q70 0 130.5 -13.5t106.5 -37t72.5 -55.5 t26.5 -66q0 -29 -55 -54l-43.5 -18t-24.5 -6q-27 0 -43 29l-18 30q-29 47 -74 73t-96 26h-17v-453l35 -25q66 -39 107 -65.5t68.5 -47t47 -39t41.5 -44.5q84 -100 84 -236q0 -63 -19.5 -122.5t-53 -109.5t-80.5 -89t-105 -62q-29 -10 -50 -16t-75 -17v-139h-79v139h-39 q-98 0 -184.5 26t-147.5 73q-20 16 -33.5 38.5t-13.5 39.5zM279 1100q0 -125 127 -199v381q-57 -18 -92 -67.5t-35 -114.5zM487 84q72 23 113 81t41 134q0 70 -40 128t-114 99v-442z" />
<glyph unicode="%" horiz-adv-x="1603" d="M59 938q0 96 21.5 177t61.5 139.5t94.5 91t119.5 32.5q131 0 208 -117.5t77 -316.5q0 -92 -22.5 -171t-62.5 -137t-95 -92t-119 -34q-63 0 -115.5 30.5t-89.5 88t-57.5 136.5t-20.5 173zM252 965q0 -207 22.5 -293t73.5 -86q53 0 79 87.5t26 280.5q0 180 -23.5 266.5 t-75.5 86.5q-102 0 -102 -342zM494 0l489 1303h100l-493 -1303h-96zM961 416q0 96 21.5 177t61 139.5t94 91t119.5 32.5q131 0 208 -117.5t77 -316.5q0 -92 -22.5 -171t-62.5 -137.5t-95 -91t-119 -32.5q-63 0 -115.5 30.5t-89.5 87t-57 135.5t-20 173zM1153 442 q0 -207 22.5 -291.5t73.5 -84.5q53 0 79 87.5t26 280.5q0 180 -23.5 265t-75.5 85q-102 0 -102 -342z" />
<glyph unicode="&#x26;" horiz-adv-x="1411" d="M59 297q0 74 33 139.5t92 112.5q20 16 36 27.5t33 22.5t40.5 23.5t60.5 32.5q-129 123 -129 263q0 59 22.5 110t62.5 88t96.5 57.5t121.5 20.5q123 0 202 -67.5t79 -174.5q0 -78 -46 -137t-159 -125q86 -76 141.5 -132t108.5 -118q72 78 108.5 136.5t36.5 91.5 q0 61 -88 63q-4 0 -11 1t-17 1v70q39 -2 67.5 -3t53 -2t50 -1h58.5h57.5t49 1t52 2t64.5 3v-70q-53 -4 -85.5 -13t-63.5 -32q-90 -66 -258 -285l-19 -24q102 -121 171 -177.5t116 -56.5q29 0 52.5 13.5t70.5 56.5l45 -47q-88 -104 -148.5 -145t-123.5 -41q-74 0 -146 51 t-174 182q-94 -123 -185 -177t-196 -54q-72 0 -132 23.5t-105 65.5t-70 99t-25 125zM248 371q0 -86 60.5 -142.5t150.5 -56.5q66 0 122 25.5t132 91.5l-21 22q-37 39 -63.5 68t-53 56.5t-57.5 58t-74 73.5l-26 25q-94 -55 -132 -104.5t-38 -116.5zM406 985q0 -114 135 -227 q96 66 96 200q0 72 -31 114t-86 42q-51 0 -82.5 -37t-31.5 -92z" />
<glyph unicode="'" horiz-adv-x="393" d="M117 1364h159l-32 -561h-94z" />
<glyph unicode="(" horiz-adv-x="643" d="M70 498q0 131 26.5 251.5t81.5 238.5t140 234.5t204 237.5l53 -39q-31 -43 -51 -76.5t-37.5 -64.5t-32 -64.5t-30.5 -78.5q-55 -143 -85 -314.5t-30 -347.5q0 -338 115 -616q16 -43 30.5 -75t32 -61.5t38 -62.5t50.5 -76l-53 -43q-57 57 -97 99.5t-70.5 81t-56.5 77.5 t-56 88q-172 287 -172 611z" />
<glyph unicode=")" horiz-adv-x="643" d="M68 -420q31 43 51 77t37.5 64.5t32 64.5t30.5 79q53 141 83 312t30 345q0 340 -113 621q-16 41 -31.5 72.5t-32 62.5t-38 63.5t-49.5 75.5l53 43q55 -57 95 -99t70.5 -81t56.5 -78t56 -88q86 -147 129 -297.5t43 -316.5q0 -129 -26.5 -250t-81.5 -238.5t-140 -233.5 t-202 -237z" />
<glyph unicode="*" horiz-adv-x="909" d="M86 1239q0 37 27.5 65.5t62.5 28.5q41 0 96.5 -53t122.5 -158l-20 -37q-289 49 -289 154zM102 891q0 76 164 129l76 27l35 12l26 -37q-72 -121 -119.5 -173t-88.5 -52q-39 0 -66 32q-27 27 -27 62zM410 1309q0 80 22.5 115.5t69.5 35.5q41 0 67.5 -24.5t26.5 -59.5 q0 -16 -3 -31.5t-14.5 -37t-31 -54t-51.5 -84.5q-4 -8 -11.5 -18t-17.5 -27l-45 11q-6 57 -9 95t-3 79zM430 1020l41 16q86 -88 125 -145t39 -94q0 -35 -30 -62.5t-68 -27.5q-29 0 -47.5 14t-31 49t-18.5 95.5t-10 154.5zM483 1104q176 88 248 88q41 0 64.5 -25.5 t23.5 -66.5q0 -88 -94 -88q-20 0 -50 4t-62.5 10t-65.5 15.5t-62 19.5z" />
<glyph unicode="+" d="M18 635v127h428v401h129v-399h429v-127h-426v-401h-129v399h-431z" />
<glyph unicode="," horiz-adv-x="485" d="M68 117q0 66 44 107.5t109 41.5q82 0 134.5 -66.5t52.5 -172.5q0 -143 -90.5 -227.5t-249.5 -86.5l4 72q86 2 140 44t54 105q0 47 -45 48h-20q-57 2 -95 39.5t-38 95.5z" />
<glyph unicode="-" horiz-adv-x="524" d="M0 354v181h524v-181h-524z" />
<glyph unicode="." horiz-adv-x="485" d="M94 133q0 59 44.5 102.5t105.5 43.5q59 0 103 -42t44 -102q0 -63 -44 -106t-105 -43t-104.5 43t-43.5 104z" />
<glyph unicode="/" horiz-adv-x="790" d="M-139 -410l813 1870l117 -51l-816 -1868z" />
<glyph unicode="0" horiz-adv-x="974" d="M57 647q0 152 33 278t91.5 217t138 142t176.5 51q96 0 174 -48t132 -136t83.5 -214t29.5 -280q0 -143 -33.5 -267t-93 -215t-140.5 -142t-175 -51q-92 0 -169 48t-131 136t-85 210t-31 271zM317 692q0 -119 4.5 -207t11.5 -152.5t20.5 -108.5t31.5 -72q39 -66 96 -66 q94 0 136 141.5t42 450.5q0 291 -39.5 426t-125.5 135q-41 0 -74 -31.5t-51 -85.5q-14 -39 -23.5 -81t-15.5 -92t-9.5 -113.5t-3.5 -143.5z" />
<glyph unicode="1" horiz-adv-x="763" d="M98 1137l82 45l125 63q25 12 53.5 28.5t63.5 37.5l70 39l51 -41l-2 -70l-4 -113l-2 -100v-657v-90q0 -61 6 -100.5t21.5 -63t41 -31.5t66.5 -8h45v-76q-61 4 -104.5 5t-77 3t-63.5 2h-60q-31 0 -61 -1t-63.5 -2t-75.5 -3t-99 -4v76h45q41 0 66.5 8t41 31.5t21.5 62.5 t6 101v90v759l-156 -67z" />
<glyph unicode="2" horiz-adv-x="954" d="M-10 49q14 16 24.5 27.5t20.5 24t25.5 29.5t37.5 44q90 102 151.5 174t105.5 126t76 98t63 94q100 158 100 303q0 86 -54.5 142t-136.5 56q-78 0 -138 -46t-132 -160l-67 34q59 156 176.5 248t261.5 92q78 0 143.5 -25.5t112.5 -70.5t73.5 -106.5t26.5 -135.5 q0 -51 -13 -101t-42 -103.5t-75 -111.5t-114 -128q-33 -35 -76.5 -79t-91 -89t-92.5 -86t-80 -72q-6 -6 -17 -16t-26 -23h48h61h225q68 0 117 6.5t84 24t60.5 46t50.5 71.5l65 -31l-149 -305l-99 2l-125 2l-192 2l-156 -2q-55 -2 -87 -2h-40q-14 0 -33.5 -1t-46.5 -1z" />
<glyph unicode="3" horiz-adv-x="954" d="M57 168q0 49 31 80t80 31q39 0 61.5 -19.5t38.5 -69.5q23 -61 56.5 -87.5t91.5 -26.5q88 0 142 78.5t54 207.5q0 147 -70.5 227.5t-205.5 84.5l-70 2h-22v82q90 4 141 18.5t90 46.5q39 31 59.5 79t20.5 104q0 88 -47 142t-123 54q-61 0 -115.5 -38t-130.5 -130l-63 47 q25 37 43 62.5t35.5 45t36 35t40.5 31.5q51 37 115 58.5t123 21.5q66 0 123 -24.5t99 -66.5t66.5 -98t24.5 -122q0 -117 -82 -195q-33 -33 -73.5 -52t-118.5 -42q84 -6 129 -19.5t90 -45.5q66 -47 100.5 -118t34.5 -157q0 -88 -37 -163.5t-101.5 -131t-152.5 -87t-190 -31.5 q-147 0 -235.5 50t-88.5 136z" />
<glyph unicode="4" horiz-adv-x="954" d="M49 360l21 187l448 737l238 84v-842h149v-164h-149v-362h-221v360h-486zM164 526h368v621z" />
<glyph unicode="5" horiz-adv-x="954" d="M55 145q0 51 38 88t91 37q41 0 69 -21.5t54 -68.5q33 -59 56.5 -78.5t64.5 -19.5q47 0 87 22.5t68.5 63.5t45 96t16.5 121q0 143 -73.5 223t-209.5 80q-47 0 -80.5 -4t-99.5 -18l-35 32l109 615h580l-66 -191h-428l-39 -213q41 6 64.5 8.5t54.5 2.5q199 0 310.5 -110 t111.5 -304q0 -113 -38 -209t-106.5 -167t-163 -109.5t-204.5 -38.5q-123 0 -200 46t-77 117z" />
<glyph unicode="6" horiz-adv-x="968" d="M59 483q0 322 228 574q147 166 360 272l39 19.5t53 25.5l39 -67q-37 -20 -64.5 -38t-49 -34t-41 -33.5t-43.5 -42.5q-61 -61 -109 -137q-41 -66 -69.5 -142.5t-55.5 -181.5q115 90 246 90q70 0 129 -27.5t102 -75.5t67.5 -114.5t24.5 -144.5q0 -94 -32.5 -175t-91 -141.5 t-137.5 -94t-169 -33.5q-96 0 -175 35.5t-134 102t-86 159t-31 204.5zM309 463q0 -186 53.5 -290.5t147.5 -104.5q76 0 119 71.5t43 196.5q0 147 -56.5 238.5t-148.5 91.5q-82 0 -143 -68q-10 -39 -12.5 -62.5t-2.5 -72.5z" />
<glyph unicode="7" horiz-adv-x="933" d="M41 963l72 350h790l21 -49l-518 -1264h-230l547 1122h-307q-72 0 -121 -7t-83 -25.5t-57.5 -49t-41.5 -77.5h-72z" />
<glyph unicode="8" horiz-adv-x="954" d="M66 319q0 76 32.5 143.5t91.5 112.5q12 8 20.5 14.5t20 13.5t27.5 16.5t43 23.5q-104 68 -154.5 146.5t-50.5 183.5q0 80 30 146.5t83 114.5t126 74.5t161 26.5q78 0 142 -21.5t111.5 -61.5t73 -94t25.5 -120q0 -96 -48 -168.5t-161 -144.5q250 -147 250 -369 q0 -82 -32 -150.5t-87 -118.5t-132 -77.5t-167 -27.5q-88 0 -163 24.5t-129 69.5t-83.5 107.5t-29.5 135.5zM291 358q0 -57 17.5 -108t46 -89t67.5 -60.5t84 -22.5q76 0 124 55t48 139q0 74 -46 135.5t-145 120.5l-69 41l-27 17q-57 -59 -78.5 -108.5t-21.5 -119.5z M299 1075q0 -106 104 -196q33 -29 73 -56t77 -43q80 76 80 215q0 104 -52.5 173t-129.5 69q-68 0 -110 -45t-42 -117z" />
<glyph unicode="9" horiz-adv-x="966" d="M53 891q0 96 33 177t89 140.5t134 93t170 33.5q96 0 174 -35.5t134.5 -101t87 -156t30.5 -200.5q0 -160 -56 -309.5t-163 -272.5q-72 -82 -164 -151.5t-198 -122.5q-16 -10 -40 -20.5t-57 -26.5l-43 73q35 18 59.5 33.5t46 31t43 35t48.5 46.5q68 68 111 135 q39 59 67.5 134t56.5 185q-70 -51 -121 -70.5t-112 -19.5q-72 0 -132.5 28t-104.5 77t-68.5 116.5t-24.5 147.5zM295 987q0 -152 57.5 -246t149.5 -94q37 0 68.5 14.5t68.5 49.5q8 49 10 76.5t2 70.5q0 174 -53 278.5t-141 104.5q-74 0 -118 -68.5t-44 -185.5z" />
<glyph unicode=":" horiz-adv-x="485" d="M94 133q0 59 44.5 102.5t105.5 43.5q59 0 103 -42t44 -102q0 -63 -44 -106t-105 -43t-104.5 43t-43.5 104zM94 731q0 59 44.5 102.5t105.5 43.5q59 0 103 -42t44 -102q0 -63 -44 -107t-105 -44t-104.5 44t-43.5 105z" />
<glyph unicode=";" horiz-adv-x="485" d="M68 117q0 66 44 107.5t109 41.5q82 0 134.5 -66.5t52.5 -172.5q0 -143 -90.5 -227.5t-249.5 -86.5l4 72q86 2 140 44t54 105q0 47 -45 48h-20q-57 2 -95 39.5t-38 95.5zM90 731q0 59 43.5 102.5t104.5 43.5t104 -42t43 -102q0 -63 -43 -107t-104 -44t-104.5 44t-43.5 105 z" />
<glyph unicode="&#x3c;" d="M18 621v141l986 422v-137l-820 -355l820 -350v-137z" />
<glyph unicode="=" d="M18 485v127h986v-127h-986zM18 786v127h986v-127h-986z" />
<glyph unicode="&#x3e;" d="M18 205v137l820 354l-820 351v137l986 -416v-139z" />
<glyph unicode="?" horiz-adv-x="688" d="M74 1317q0 35 28.5 50t94.5 15q115 0 209 -71q53 -39 96 -89.5t73.5 -104.5t48 -110.5t17.5 -109.5q0 -129 -86 -215q-41 -39 -82 -57.5t-119 -34.5q-59 -12 -74.5 -30.5t-15.5 -78.5v-55h-76v354q334 31 334 236q0 78 -54 131t-136 53q-59 0 -119 -24q-43 -16 -43 -17 q-8 -4 -23 -4q-29 0 -51 49t-22 113zM98 133q0 59 44.5 102.5t105.5 43.5q59 0 103 -42t44 -102q0 -63 -44 -106t-105 -43t-104.5 43t-43.5 104z" />
<glyph unicode="@" horiz-adv-x="1435" d="M18 678q0 152 54.5 280.5t152 224t228.5 149.5t284 54q141 0 261 -44t208 -121.5t137.5 -185t49.5 -234.5q0 -176 -87 -307.5t-243 -190.5q-70 -29 -121 -29q-47 0 -73.5 28t-26.5 75v14q-84 -109 -213 -108q-133 0 -214 92t-81 239q0 92 28.5 171t77.5 135.5t118 89 t149 32.5q166 0 235 -145l25 121h114l-100 -539q-4 -35 -7 -48t-3 -21q0 -37 39 -37q29 0 73.5 26.5t92.5 67.5q63 57 98 139t35 174q0 113 -43 207t-118 163t-178.5 107.5t-226.5 38.5q-129 0 -241.5 -47t-194.5 -130t-129 -195.5t-47 -243.5q0 -129 48 -241.5t131 -195.5 t195.5 -130t244.5 -47q150 0 264 63q25 12 44 25.5t39.5 29t42 36t52.5 50.5h117q-33 -41 -58.5 -70.5t-48 -51t-44 -38t-50.5 -34.5q-147 -96 -365 -96q-156 0 -288.5 52t-230 145t-152 221t-54.5 280zM471 625q0 -100 54.5 -162t142.5 -62q104 0 166.5 88.5t62.5 231.5 q0 92 -47 143t-133 51q-51 0 -96.5 -22.5t-79 -61t-52 -92t-18.5 -114.5z" />
<glyph unicode="A" horiz-adv-x="1353" d="M-12 0v76q82 0 118 51q25 29 61 97.5t71 154.5l71 170l172 416q23 53 38.5 91t27.5 70.5t24.5 65.5t26.5 74l25 65l170 76q8 -25 13 -42t9 -30q4 -16 19.5 -62t37.5 -120q23 -70 37.5 -113t20.5 -61l172 -500l24 -73q80 -246 142 -297q23 -20 40 -26.5t52 -6.5v-76 q-51 4 -88 5t-67.5 3t-60.5 2h-65h-63.5t-61 -2t-70.5 -3t-91 -5v76h14q66 0 93.5 18.5t27.5 61.5q0 25 -8.5 64.5t-24.5 92.5l-64 199h-387l-86 -221q-16 -43 -24 -78t-8 -55q0 -43 26.5 -60.5t93.5 -21.5h25v-76q-37 4 -62.5 5t-51 3t-54.5 2h-72h-75.5t-56 -2t-51 -3 t-60.5 -5zM485 623h308l-136 450z" />
<glyph unicode="B" horiz-adv-x="1230" d="M72 0v76h24q41 0 66.5 8t41 31.5t21.5 62.5t6 101v90v626v90q0 61 -6 100.5t-21.5 62t-41 31.5t-66.5 9h-24v76l102 -2q72 -4 120 -4h73h77.5t96.5 4q47 2 84 2h67q176 0 272.5 -77t96.5 -218q0 -115 -74 -199.5t-203 -119.5q43 -6 76 -11.5t58.5 -13.5t48 -20.5 t47.5 -28.5q72 -49 106.5 -116.5t34.5 -166.5q0 -104 -51 -195.5t-135 -136.5q-63 -33 -142 -47t-190 -14h-58.5t-80.5 4q-70 4 -106 5t-70 1h-49.5t-50 -2t-62.5 -3t-88 -5zM487 293q0 -59 6.5 -97t21.5 -60.5t42 -31t68 -8.5q123 0 196.5 77t73.5 208q0 150 -84 226.5 t-248 76.5q-14 0 -30.5 -1t-45.5 -3v-387zM487 774q14 -2 23.5 -2h17.5q133 0 207 69.5t74 194.5q0 233 -270 234h-24.5t-27.5 -4v-492z" />
<glyph unicode="C" horiz-adv-x="1429" d="M70 668q0 156 58 289t161.5 231t243 154.5t301.5 56.5q86 0 182 -17.5t227 -54.5q37 -10 49.5 -13t34.5 -7l43 -349l-78 -12q-12 37 -22 62.5t-20.5 45t-20.5 37t-27 37.5q-57 76 -148 117t-202 41q-113 0 -205 -42t-158.5 -119.5t-102.5 -185.5t-36 -241 q0 -137 37 -250.5t102.5 -196.5t156.5 -129t202 -46q100 0 191 41t157 112q23 25 38 47.5t27.5 49t23.5 58.5t24 77l80 -17l-62 -354q-139 -66 -261 -94.5t-251 -28.5q-164 0 -301 51.5t-235.5 144.5t-153.5 222t-55 283z" />
<glyph unicode="D" horiz-adv-x="1579" d="M72 0v76h24q41 0 66.5 8t41 31.5t21.5 62.5t6 101v90v626v90q0 61 -6 100.5t-21.5 62t-41 31.5t-66.5 9h-24v76q37 -2 62.5 -4t49 -4t49 -2h62.5q51 0 120.5 2t178.5 6q53 2 95 2h71q301 0 467 -102q66 -39 117 -97.5t87.5 -131t56 -156.5t19.5 -175q0 -205 -95 -369.5 t-267 -252.5q-86 -45 -177 -62.5t-229 -17.5h-78t-96 4q-160 6 -217 6h-52.5t-56 -2t-71.5 -3t-96 -5zM485 319l2 -47q0 -53 9.5 -86.5t30 -53t57.5 -27t92 -7.5q555 0 555 602q0 186 -67.5 314.5t-194.5 185.5t-330 57q-39 0 -68.5 -1t-85.5 -5v-932z" />
<glyph unicode="E" horiz-adv-x="1232" d="M74 0v76h22q41 0 66.5 9t41 31.5t21.5 62.5t6 102v90v624v90q0 61 -6 100.5t-21.5 62t-41 31.5t-66.5 9h-22v76q39 -2 70.5 -4t65.5 -4t76 -2h101h139l232 4h96t71.5 1t64.5 2t75 3l2 -45q2 -43 4 -69.5t4 -51t5 -54.5t7 -77l5 -33l-86 -10q-20 111 -50 158t-90 63 q-39 10 -101.5 16.5t-139.5 6.5q-72 0 -97.5 -5.5t-31.5 -21.5q-10 -27 -11 -127v-354h148q90 0 143 5t81 21.5t36 50t10 89.5h84q-2 -35 -4 -62.5t-4 -54.5t-2 -53.5v-61.5v-57.5t1 -46t3 -45t6 -53.5h-82q-2 53 -12 86.5t-38 52t-77 26t-127 7.5h-166v-334q0 -74 6.5 -118 t27 -68.5t57 -32t98.5 -7.5h98q152 0 227 56q39 29 68 76t59 135l80 -23q-25 -84 -47 -180t-33 -168q-63 2 -121.5 4t-119 3t-127 2t-148.5 1q-59 0 -122.5 -1t-145.5 -1q-53 0 -88 -1t-62.5 -2t-54 -2t-63.5 -3z" />
<glyph unicode="F" horiz-adv-x="1099" d="M72 0v76h24q41 0 66.5 8t41 31.5t21.5 62.5t6 101v90v630v88q0 61 -6 100.5t-21.5 62t-41 30.5t-66.5 8h-22v76q51 -2 92 -4t79 -4t80 -2h93h118.5t123 1t108.5 2t76 1q25 0 135 6h33l4 -37q4 -43 6 -75.5t6 -63.5t8 -61.5t11 -71.5l4 -39l-82 -17q-14 88 -32.5 140.5 t-51.5 80t-87.5 36t-140.5 8.5q-90 0 -118.5 -4.5t-38.5 -20.5q-10 -14 -12.5 -36.5t-2.5 -80.5v-405h185q66 0 107.5 6t66 21.5t34 43t9.5 72.5v17h82q-2 -37 -4 -65t-3 -52.5t-1 -49v-57.5v-54.5t1 -46t3 -47t4 -56.5h-80q-2 57 -12.5 89.5t-37 50t-75.5 22.5t-133 5h-144 v-247l-2 -90q0 -61 6.5 -100.5t21.5 -63t41 -31.5t67 -8h24v-76q-45 4 -80 5t-65.5 3t-60 2h-68.5h-75t-67.5 -2t-70.5 -3t-86 -5z" />
<glyph unicode="G" horiz-adv-x="1511" d="M70 672q0 164 55 298t157.5 229t246 147.5t319.5 52.5q41 0 80 -3t83 -10.5t97 -19.5t123 -31q29 -8 47 -12t22 -6t10.5 -3t16.5 -5q2 -47 4 -95.5t6 -89.5l19 -161l-80 -9q-70 334 -410 334q-115 0 -211 -47t-164.5 -132t-107.5 -201.5t-39 -258.5q0 -260 135 -413 q66 -74 160 -117t192 -43q68 0 113 11t72.5 38t39 71t11.5 109q0 72 -6 116t-23.5 67.5t-49.5 30.5t-85 7h-53v84q51 -4 93 -6t81 -4t79 -2h87h74.5t59.5 2t57.5 4t68.5 6v-84q-45 -6 -70.5 -17t-40 -38t-18.5 -74t-4 -125q0 -35 2 -82t6 -104l2 -27q-242 -92 -493 -92 q-174 0 -314.5 50.5t-241 142.5t-154.5 222t-54 290z" />
<glyph unicode="H" horiz-adv-x="1654" d="M74 0v76h22q41 0 66.5 8t41 31.5t21.5 62.5t6 101v90v626v90q0 61 -6 100.5t-21.5 62t-41 31.5t-66.5 9h-22v76q47 -2 81.5 -4t64.5 -4t58.5 -2h65.5h68.5t65.5 2t73 4t94 4v-76h-22q-41 0 -68 -9t-42 -31.5t-21.5 -61.5t-6.5 -101l2 -90v-245h680v245v90q0 61 -6 100.5 t-21.5 62t-41 31.5t-66.5 9h-22v76q61 -2 104 -4t74 -4t56.5 -2h51.5h54.5t56.5 2t72 4t100 4v-76h-20q-41 0 -68 -9t-42 -31.5t-21.5 -61.5t-6.5 -101l2 -90v-626l-2 -90q0 -61 6.5 -100.5t21.5 -63t42 -31.5t68 -8h20v-76q-43 4 -76 5t-61.5 3t-60 2h-72.5h-80t-69 -2 t-69.5 -3t-82.5 -5v76h24q41 0 66.5 8t41 31.5t21.5 62.5t6 101v90v274h-680v-272l-2 -92q0 -61 6.5 -100.5t21.5 -63t42 -31.5t68 -8h22v-76q-53 4 -93 5t-74 3t-65.5 2h-68.5h-68.5t-59.5 -2t-63.5 -3t-78.5 -5z" />
<glyph unicode="I" horiz-adv-x="716" d="M76 0v76h20q41 0 66.5 8t41 31.5t21.5 62.5t6 101v90v620v92q0 61 -6 102.5t-21.5 64t-41 31.5t-66.5 9h-20v76l78 -2q49 -2 82.5 -3t59.5 -2t45 -1h40h56.5t55 1t65.5 3t85 4v-76h-20q-41 0 -68 -9t-42 -31.5t-21.5 -63.5t-6.5 -103v-92v-620v-90q0 -61 6.5 -100.5 t21.5 -63t41 -31.5t67 -8h22v-76q-45 2 -79 4t-64.5 3t-62 1h-75.5h-73.5t-63 -1t-66.5 -3t-83 -4z" />
<glyph unicode="J" horiz-adv-x="675" d="M-248 -414q0 6 4 17.5t15 34.5l47 86q23 47 53 47q12 0 37 -9q43 -18 65.5 -23t51.5 -5q184 0 188 313l2 221l2 109v618v90q0 61 -6 100.5t-21.5 62t-41 31.5t-66.5 9h-21v76q47 -2 85 -4t73 -4t73 -2h85h67.5t56 2t58.5 4t72 4v-76h-25q-41 0 -66.5 -9t-41 -31.5 t-21.5 -61.5t-6 -101v-90v-546q0 -70 -2 -124.5t-6 -96.5t-10.5 -76.5t-16.5 -69.5q-31 -106 -105.5 -216t-178.5 -202q-78 -68 -144.5 -97.5t-144.5 -29.5q-51 0 -81 13.5t-30 35.5z" />
<glyph unicode="K" horiz-adv-x="1445" d="M74 0v76h22q41 0 66.5 8t41 31.5t21.5 62.5t6 101v90v626v90q0 61 -6 100.5t-21.5 62t-41 31.5t-66.5 9h-20v76q41 -2 70.5 -4t57 -4t57.5 -2h69h74.5t69.5 2t77 4t94 4v-76h-20q-41 0 -68 -9t-42 -31.5t-21.5 -61.5t-6.5 -101v-90v-288l258 286l70 76q61 66 89 105.5 t28 64.5q0 29 -18.5 39t-67.5 10h-19v76q35 -2 61.5 -4t53.5 -4t55.5 -2h69.5h75t61.5 2t61 4t72.5 4v-76q-125 -2 -217 -74q-33 -25 -69.5 -59.5t-96.5 -99.5l-209 -224l310 -403l78 -104q43 -57 75.5 -97.5t60 -67t51 -43t48.5 -26.5q20 -8 33.5 -11t38.5 -3v-76h-129 q-80 0 -134.5 5t-92 20.5t-66.5 42t-60 71.5l-32 47l-351 473l-88 -90v-198v-92q0 -61 6.5 -100.5t21.5 -63t41 -31.5t67 -8h22v-76q-39 4 -68.5 5t-56 3t-56.5 2h-71q-43 0 -77.5 -1t-71.5 -2t-77 -3t-93 -4z" />
<glyph unicode="L" horiz-adv-x="1159" d="M74 0v76h22q41 0 66.5 8t41 30.5t21.5 61.5t6 98v91v630v90q0 61 -6 100.5t-21.5 62t-41 31.5t-66.5 9h-20v76q37 -2 64.5 -4l55 -4t59.5 -2h77h87t71.5 2t69.5 4t83 4v-76h-20q-43 0 -70 -9t-42 -31.5t-21.5 -61.5t-6.5 -101l2 -90v-614q0 -74 1 -117t4.5 -67.5 t10.5 -37t19 -22.5q23 -20 59.5 -27.5t108.5 -7.5q90 0 154.5 13.5t111.5 44t80 81t58 124.5l79 -27l-98 -338q-31 2 -52.5 3t-44 1t-51 1t-75.5 1l-242 4h-47q-123 0 -252 -3t-235 -7z" />
<glyph unicode="M" horiz-adv-x="1832" d="M37 0v76h4q47 0 75.5 11t46 48t26 103.5t14.5 177.5l28 542q4 68 5.5 105t1.5 59q0 92 -32 129t-110 37h-18v76q59 -4 92 -6t80 -2q43 0 84 2l123 6l14 -29l43 -98q8 -20 24.5 -58t43.5 -92l71 -149l277 -565l291 612q49 104 82.5 178t62.5 142q8 14 25 59 q74 -4 111.5 -6t80.5 -2q41 0 79 2t107 6v-76h-14q-49 0 -81 -7t-49 -25.5t-24.5 -50t-7.5 -83.5v-41.5t2 -56.5l13 -545q2 -94 6 -160.5t10 -110.5t15.5 -68.5t21.5 -35.5q16 -12 42 -18t79 -10v-76q-43 4 -75 5t-61.5 3t-62.5 2h-76q-45 0 -79.5 -1t-67.5 -2t-69 -2 t-85 -5v76q47 4 76 10t45 19.5t22.5 37t8.5 60.5q2 33 2 51v22v97v612l-352 -735l-50 -109l-53 -114l-12 -27h-59l-476 985l-20 -543q0 -14 -1 -38.5t-1 -63.5q-2 -27 -2 -46.5v-33.5q0 -55 6 -90t23.5 -55.5t48 -28.5t80.5 -10v-76q-37 4 -65 5t-52.5 3t-47 2h-51.5 q-57 0 -106 -3t-133 -7z" />
<glyph unicode="N" horiz-adv-x="1632" d="M61 0v76h17q47 2 74.5 9t43 28.5t20.5 60.5t7 105l2 88v665q0 80 -5 129t-18.5 76t-39 37t-68.5 12l-33 2v76q31 -2 54.5 -4t45 -4t44 -2h53.5h51.5t44 2t45 4t56.5 4l26 -31l68 -80l90 -106l61 -70l590 -678v609q0 88 -6 142t-23.5 84t-50 41t-86.5 13v76q37 -2 66 -4 t53.5 -4t49 -2h57.5h55.5t49 2t53 4t67.5 4v-76q-49 0 -79 -7t-45 -30.5t-20.5 -67.5t-7.5 -118l-2 -82l-10 -657v-125v-160v-55h-104q-31 41 -54.5 71.5t-48 61.5t-55.5 65.5t-76 85.5l-725 830l14 -783q0 -74 5.5 -118.5t19.5 -70.5t39 -36t63 -14h10.5t16.5 -2v-76 q-41 2 -70.5 4t-54 3t-46 1h-46.5q-33 0 -66.5 -1t-87.5 -3z" />
<glyph unicode="O" horiz-adv-x="1636" d="M70 674q0 158 57 291t158.5 229t243 150.5t307.5 54.5q158 0 292 -53.5t231 -146.5t151.5 -222t54.5 -283q0 -162 -55.5 -295t-156 -229t-239.5 -149.5t-307 -53.5q-162 0 -297 52.5t-233.5 145.5t-152.5 223t-54 286zM348 688q0 -135 36 -247.5t100.5 -195.5t152.5 -129 t192 -46q102 0 186.5 44t144 123.5t93 191.5t33.5 245q0 135 -34.5 248.5t-96 194.5t-147.5 127t-191 46q-102 0 -188 -44t-148.5 -124t-97.5 -190.5t-35 -243.5z" />
<glyph unicode="P" horiz-adv-x="1142" d="M74 0v76h22q41 0 66.5 8t41 31.5t21.5 62.5t6 101v90v626v90q0 61 -6 100.5t-21.5 62t-41 31.5t-66.5 9h-20v76q37 -2 64.5 -4t52 -4t51 -2h63.5q106 0 236 6q53 2 94 3t72 1q127 0 204.5 -33t126.5 -104q61 -94 62 -226q0 -92 -36 -172.5t-99.5 -141t-148.5 -94.5 t-183 -34h-18.5t-22.5 2v80q129 16 188.5 92t59.5 223q0 162 -72 235t-233 73h-23.5t-26.5 -4v-891v-90q0 -61 6.5 -100.5t21.5 -63t41 -31.5t67 -8h22v-76q-41 4 -71.5 5t-60.5 3t-62.5 2h-79.5h-82t-68 -2t-66.5 -3t-80.5 -5z" />
<glyph unicode="Q" horiz-adv-x="1634" d="M70 670q0 160 56 294t158.5 231t244 150.5t309.5 53.5q158 0 291 -53.5t229 -147.5t150.5 -224t54.5 -286q0 -135 -39 -250.5t-112 -208t-177.5 -156t-237.5 -93.5l29 -15q16 -10 43 -24.5t61 -30.5q66 -35 116 -60.5t85 -42.5q57 -29 111.5 -52t107.5 -44 q88 -33 163 -46t173 -13q43 0 76 1t61.5 5t56 9t60.5 16v-72q-96 -35 -216 -57.5t-224 -22.5q-59 0 -118.5 6t-117.5 23q-53 14 -102 31.5t-96 39.5q-23 10 -68 33t-113 57l-247 125l-199 101l-168 80q-401 195 -401 643zM348 688q0 -133 37 -246.5t101.5 -196.5t152.5 -130 t192 -47q98 0 181.5 45t145 124.5t95 190.5t33.5 242q0 135 -34.5 248.5t-97 195.5t-148.5 128t-191 46q-100 0 -186 -45t-148.5 -125t-97.5 -190.5t-35 -239.5z" />
<glyph unicode="R" horiz-adv-x="1370" d="M74 0v76h22q41 0 66.5 8t41 31.5t21.5 62.5t6 101v90v626v90q0 61 -6 100.5t-21.5 62t-41 31.5t-66.5 9h-20v76q43 -2 74.5 -4t60.5 -4t58.5 -2h68.5q55 0 106.5 1t102.5 3q72 4 107.5 5t52.5 1q186 0 289.5 -86t103.5 -244q0 -119 -62.5 -207t-185.5 -139l201 -305 q86 -127 132 -189.5t77 -87.5q36 -30 90 -30h4v-76h-125q-80 0 -129 3t-82 16.5t-55.5 39t-49.5 70.5l-41 64l-262 421h-123v-245l-2 -90q0 -61 6.5 -100.5t21.5 -63t41 -31.5t67 -8h20v-76q-53 4 -91 5t-66.5 3t-54 2h-54.5q-66 0 -205 -6zM487 709h37q145 0 229.5 79.5 t84.5 219.5q0 254 -283 254q-23 0 -34 -1t-34 -6v-546z" />
<glyph unicode="S" horiz-adv-x="1017" d="M37 369l106 24q27 -102 51.5 -153.5t61.5 -89.5q78 -84 205 -84q53 0 98 17t79 48t53.5 72t19.5 88q0 37 -11.5 67.5t-39 61.5t-76.5 66.5t-125 82.5q-68 41 -116 75t-82 64.5t-57.5 59.5t-41.5 61q-39 76 -39 168q0 90 35 164t97 127t149.5 82t193.5 29 q80 0 147.5 -12.5t139.5 -40.5q2 -27 5 -64t8 -76t11 -76.5t13 -68.5l-99 -19l-6 29q-35 123 -94 177.5t-164 54.5q-92 0 -154.5 -55.5t-62.5 -137.5q0 -37 12.5 -68.5t42 -63.5t79.5 -68t126 -81q74 -45 125 -79.5t87 -67.5t58.5 -66.5t38.5 -74.5q29 -74 29 -150 q0 -94 -36 -172t-101.5 -134t-156.5 -87t-200 -31q-90 0 -165.5 17.5t-180.5 58.5l-8 45l-18 109q-4 27 -11.5 58.5t-15.5 66.5z" />
<glyph unicode="T" horiz-adv-x="1269" d="M8 1040q16 45 31.5 94.5t30 96.5t24.5 89t15 71h67q18 -12 37.5 -18.5t51.5 -10.5t84 -5t136 -1h490q57 0 94 1t62.5 5t44 10t41.5 19h59q-14 -47 -21 -64q-16 -53 -23 -81.5t-11 -35.5q-8 -33 -15.5 -63.5t-13.5 -63.5q0 -8 -2 -18t-4 -25h-86l6 50q6 35 6 57 q0 74 -56.5 103.5t-203.5 29.5h-92v-911v-90q0 -61 6 -100.5t21.5 -63t42 -31.5t67.5 -8h21v-76q-39 4 -68 5t-56.5 3t-56 2h-69.5q-43 0 -79 -1l-72 -2t-76 -3t-93 -4v76h25q41 0 66.5 8t41 31.5t21.5 62.5t6 101v90v911h-105q-63 0 -108 -10t-80 -37t-62.5 -74t-56.5 -119 h-88z" />
<glyph unicode="U" horiz-adv-x="1546" d="M59 1288v76q37 -2 64 -4t51.5 -4t53 -2h69.5h85t76 2t77.5 4t89.5 4v-76h-29q-41 0 -67.5 -9t-42 -31.5t-21.5 -61.5t-6 -101v-90v-415q0 -135 15 -217t50 -136q45 -70 123 -108.5t170 -38.5q106 0 197.5 49t138.5 131q18 33 30.5 69t19.5 83t10.5 108.5t3.5 145.5v260 v131q0 70 -6.5 113.5t-25 69.5t-50 36t-82.5 12v76l63 -4q111 -6 174 -6h48.5t44 2t52 4t70.5 4v-76h-22q-43 0 -70 -11t-41 -46t-19 -99.5t-5 -173.5v-294q0 -78 -4.5 -161t-12.5 -134q-8 -49 -27.5 -98.5t-52.5 -94.5q-74 -104 -201.5 -156.5t-295.5 -52.5 q-180 0 -312.5 64.5t-187.5 181.5q-14 33 -24.5 67.5t-16.5 78.5t-8 102.5t-2 138.5v395v90q0 61 -6.5 100.5t-21.5 62t-40.5 31.5t-66.5 9h-9z" />
<glyph unicode="V" horiz-adv-x="1318" d="M-41 1288v76q47 -2 82 -4t65.5 -4t62.5 -2h73h76.5t67.5 2t71 4t86 4v-76q-66 -4 -95.5 -25.5t-29.5 -68.5q0 -29 16.5 -80t59.5 -164l221 -567l270 655q29 68 39 103t10 61q0 47 -26.5 66.5t-94.5 19.5v76q33 -2 57.5 -4l49 -4t53.5 -2h68h65.5t51 2t50 4t58.5 4v-76 q-35 0 -63.5 -11t-53 -35.5t-48 -66.5t-52.5 -104l-16 -39l-332 -747q-35 -80 -69 -161t-56 -136h-70q-10 27 -18 45t-16.5 39.5t-20.5 51.5t-31 79q-10 29 -19 53.5t-18 42.5l-280 698l-33 84q-23 59 -44.5 98.5t-45 63t-53 33.5t-68.5 12z" />
<glyph unicode="W" horiz-adv-x="1968" d="M-41 1288v76q53 -2 91 -4t71 -4t61.5 -2h63.5h61.5t52 2t55 4t68.5 4v-76h-10q-47 0 -62.5 -10t-15.5 -39q0 -20 15.5 -64.5t50.5 -125.5l22 -56l271 -639l174 344l-144 299l-28 60q-35 74 -58.5 119t-44 69.5t-40 32.5t-48.5 10v76q49 -2 84 -4t62.5 -4t51 -2h50.5h52.5 t49 2t55 4t68.5 4v-76q-45 -2 -63.5 -11t-18.5 -32q0 -16 11.5 -50t31.5 -79l80 -170l74 150l33 67q20 47 20 74q0 49 -90 51v76q33 -2 57.5 -4t47 -4t47 -2h57.5h52.5t42 2t42 4t51.5 4v-76q-43 -4 -71.5 -12t-52 -31.5t-49 -69t-64.5 -122.5l-127 -252l203 -447l200 498 q10 23 20.5 49.5t24.5 61.5q27 68 44.5 113.5t28.5 75.5t15.5 48.5t4.5 30.5q0 57 -80 57h-25v76q41 -2 69.5 -4t53.5 -4t49.5 -2h52.5h51.5t45 2t48 4t60.5 4v-76q-47 -4 -66.5 -8t-35.5 -16q-33 -25 -71 -89.5t-85 -179.5l-55 -127l-260 -596q-35 -78 -60.5 -143.5 t-58.5 -144.5h-57l-23 47l-43 92l-31 65l-172 367l-196 -367q-33 -61 -57.5 -112t-45.5 -92h-57q-14 35 -24.5 60.5t-19.5 50t-21.5 53t-28.5 71.5q-20 51 -36.5 88t-27.5 66l-280 624l-43 99q-25 59 -45.5 96t-42 58.5t-48 28.5t-65.5 9z" />
<glyph unicode="X" horiz-adv-x="1323" d="M0 0v76q31 4 59.5 12t46.5 18q90 49 224 240q27 39 42 60.5t19 27.5l164 228l-190 290q-66 98 -123.5 174t-91.5 107q-23 20 -53.5 30.5t-78.5 14.5v86q49 -2 86 -4t69 -4t62.5 -2h69.5h72t68.5 2t78.5 4t103 4v-86q-12 -2 -21.5 -3t-13.5 -1q-78 -6 -78 -66 q0 -41 98 -188l101 -154l114 160l54 74q47 68 47 106q0 35 -22.5 50.5t-76.5 19.5l-24 2v86q47 -2 81 -4t60.5 -4t51 -2h51.5h52t52 2t65.5 4t88.5 4v-86q-49 -4 -82 -14.5t-64 -34.5q-39 -31 -98 -102.5t-137 -178.5l-140 -196l238 -363l70 -108q66 -104 120 -152.5 t109 -52.5v-76q-47 4 -82 5t-65.5 3t-63.5 2h-76h-77.5t-68.5 -2t-71 -3t-88 -5v76q78 2 103.5 15t25.5 52q0 53 -86 185l-147 221l-183 -256q-23 -33 -37 -54.5t-21 -37t-10 -27.5t-3 -27q0 -39 17.5 -52t70.5 -17q6 0 15 -1t20 -1v-76q-43 4 -76 5t-60.5 3t-54 2h-59.5 q-63 0 -112.5 -2t-133.5 -8z" />
<glyph unicode="Y" horiz-adv-x="1200" d="M-61 1288v76q49 -2 84.5 -4t66.5 -4t61.5 -2h67.5h67.5t65.5 2t77 4t97 4v-76q-61 -4 -82.5 -18.5t-21.5 -50.5q0 -23 17.5 -66t47.5 -96l191 -344l158 295q45 84 64.5 132t19.5 77q0 41 -25 56t-88 15v76q37 -2 65.5 -4t52 -4t47 -2h52.5h52.5t51 2t61.5 4t81 4v-76 q-41 0 -72 -11t-60.5 -37t-59 -71t-68.5 -116l-269 -486v-198v-90q0 -61 6.5 -100.5t21.5 -63t41 -31.5t67 -8h26v-76q-49 2 -88 4t-74.5 3t-71.5 2t-79 1h-70t-59.5 -2t-61 -3t-77.5 -5v76h30q41 0 66.5 8t41 31.5t21.5 62.5t6 101v90v198l-274 455l-47 80 q-59 100 -107.5 140t-119.5 46z" />
<glyph unicode="Z" horiz-adv-x="1337" d="M41 45q25 33 43 55.5t36.5 46t39 51t51.5 68.5q29 37 49.5 65.5t36.5 47.5l649 883h-270q-115 0 -179.5 -10.5t-109.5 -39.5q-53 -33 -89 -83t-65 -138h-88l11 51q20 98 31.5 180.5t21.5 168.5h70q41 -16 96 -24.5t143 -8.5h406h129q23 0 62.5 1t96.5 3l62 2l22 -39 q-18 -31 -32 -47q-12 -18 -40 -56t-75 -98q-29 -37 -57.5 -74.5t-57.5 -78.5l-628 -865h268q166 0 258 27t153 90q66 70 101 195h100q-37 -125 -60.5 -226.5t-39.5 -191.5q-51 2 -89 3t-74 2t-75 2t-94 1q-57 0 -109.5 1t-99.5 1h-53.5t-60 -1t-77.5 -2t-106 -1 q-55 0 -91 -1t-64.5 -1t-55 -1t-65.5 -3z" />
<glyph unicode="[" horiz-adv-x="643" d="M133 -432v1866h442v-78h-219v-1710h219v-78h-442z" />
<glyph unicode="\" horiz-adv-x="790" d="M-139 1409l119 51l811 -1870l-113 -49z" />
<glyph unicode="]" horiz-adv-x="643" d="M68 -354h219v1710h-219v78h440v-1866h-440v78z" />
<glyph unicode="^" d="M43 776l393 588h150l393 -588h-145l-324 475l-324 -475h-143z" />
<glyph unicode="_" d="M0 -154h1024v-149h-1024v149z" />
<glyph unicode="`" horiz-adv-x="622" d="M137 1352q-4 18 27 16h192l129 -356l-53 -29l-287 350l-4 8q-4 8 -4 11z" />
<glyph unicode="a" horiz-adv-x="911" d="M74 193q0 45 10 76.5t39 58t80 51t131 55.5l143 55l41 15v84q0 182 -108 182q-57 0 -97.5 -34t-42.5 -85q0 -43 -44 -74.5t-103 -31.5q-16 0 -23.5 9t-7.5 36q0 31 5 51.5t26.5 44t64.5 54t119 79.5q70 45 106 61.5t64 16.5q129 0 196.5 -68.5t67.5 -201.5v-389 q0 -74 7.5 -95.5t33.5 -21.5q10 0 20.5 4t28.5 16l37 -53q-43 -51 -99 -79.5t-110 -28.5q-59 0 -92 28t-49 94q-105 -122 -244 -122h-2q-92 0 -145 57t-53 156zM295 242q0 -119 90 -119q72 0 133 55v242q-72 -27 -116 -47.5t-67.5 -40t-31.5 -40t-8 -50.5z" />
<glyph unicode="b" horiz-adv-x="1069" d="M55 1282v74q57 12 95 22.5t69 21.5t61.5 26.5t71.5 37.5l43 -24q-10 -94 -16 -170t-6 -113v-385q10 4 17 7t11 7q61 31 97.5 49.5t58 27.5t34.5 11.5t25 2.5q84 0 155 -31t123 -86t82 -131t30 -166q0 -102 -36 -190.5t-96.5 -154t-142.5 -102t-176 -36.5q-16 0 -43 2 t-55 6q-63 6 -94 8t-66 2q-41 0 -72.5 -3t-89.5 -13q10 76 12.5 141t2.5 164v737v154q0 66 -11.5 83t-58.5 19q-4 0 -9 1t-10 1h-6zM373 375q0 -86 8 -143.5t27.5 -91.5t53.5 -48t83 -14q104 0 166.5 84t62.5 223q0 72 -18.5 133.5t-51 108.5t-76.5 73.5t-96 26.5 q-33 0 -76.5 -11t-82.5 -30v-311z" />
<glyph unicode="c" horiz-adv-x="860" d="M63 412q0 100 35 185t96.5 147.5t145.5 97.5t182 35q59 0 112.5 -13.5t94.5 -37t64.5 -53.5t23.5 -62q0 -16 -10 -28.5t-39 -29.5q-35 -20 -57 -20q-31 0 -49 26l-21 33q-63 100 -156 101q-92 0 -142 -72t-50 -195q0 -86 20.5 -157.5t57.5 -123.5t88 -82t110 -30 q55 0 105.5 20.5t136.5 73.5l41 -55q-165 -192 -379 -192h-2q-88 0 -164 31.5t-129 89t-84 137t-31 174.5z" />
<glyph unicode="d" horiz-adv-x="1087" d="M63 401q0 104 31 191.5t85 151t129 98.5t165 35q123 0 205 -62v156v67q0 78 -3 122t-13.5 66.5t-33 29t-59.5 6.5h-14v73q100 23 175 53.5t134 75.5l58 -32q-2 -31 -6.5 -68t-6.5 -76t-4 -73.5t-2 -61.5v-805q0 -82 2 -130t11.5 -73.5t27 -37t47.5 -17.5q6 -2 25 -6v-70 q-49 -2 -88 -5t-75 -8t-73 -12t-82 -20l-32 31q8 35 9 49t3 43q-51 -35 -89 -56.5t-70 -33.5t-60.5 -17t-61.5 -5q-74 0 -135 30.5t-105 86t-69 133t-25 171.5zM301 471q0 -76 16.5 -138.5t47 -108.5t72.5 -71.5t91 -25.5q72 0 150 63v316q0 143 -40 206.5t-132 63.5 t-148.5 -83t-56.5 -222z" />
<glyph unicode="e" horiz-adv-x="872" d="M63 414q0 104 32 189t89.5 145.5t137 94.5t178.5 34q143 0 230 -72t87 -189q0 -43 -15.5 -56t-62.5 -13h-444q-2 -10 -2 -19.5v-19.5q0 -86 20.5 -155.5t57.5 -120t89 -78t115 -27.5q25 0 46.5 4t45 13.5t51 25.5t64.5 41l49 -55q-86 -92 -174 -134t-196 -42 q-88 0 -162 31.5t-126 88t-81 136t-29 178.5zM305 629h215h43q47 0 47 49t-35.5 82t-91.5 33q-143 0 -178 -164z" />
<glyph unicode="f" horiz-adv-x="696" d="M74 0v76h10q59 0 84 21.5t27 74.5l2 55l2 23v471h-113l10 84q57 6 81 33.5t32 97.5q8 61 15 103t16.5 75t24 59.5t34.5 59.5q51 76 113 123q59 45 134 69.5t150 24.5q41 0 81 -9t71 -24.5t49 -35t18 -40.5q0 -41 -49 -84q-53 -45 -80 -45q-16 0 -27 6.5t-24 26.5 q-41 59 -71.5 84t-67.5 25q-41 0 -80 -27t-57 -67q-16 -39 -24.5 -110t-8.5 -194v-131h264l-41 -104h-223v-469v-25l2 -55q2 -53 25.5 -74.5t83.5 -21.5h41v-76q-39 2 -69 4t-55.5 3t-49 1h-54.5h-52.5t-56 -1t-71.5 -3t-96 -4z" />
<glyph unicode="g" horiz-adv-x="927" d="M10 -201q0 35 13 54q12 16 53 57l57 57l39 33l23 25q-29 29 -41.5 51t-12.5 55q0 14 2 26.5t4 16.5q4 4 20.5 19.5t39.5 31.5q61 49 67 56q4 4 11.5 10t17.5 16q-102 29 -155.5 98.5t-53.5 169.5q0 135 92.5 218.5t245.5 83.5q68 0 120 -14.5t99 -49.5h242v-100h-170 q23 -39 28 -63.5t5 -69.5q0 -63 -23.5 -117.5t-64.5 -93.5t-99.5 -60.5t-126.5 -21.5h-20t-27 2l-18 -21q-31 -33 -31 -55q0 -14 7 -24.5t27.5 -15.5t57.5 -7t99 -2q125 0 185 -14.5t101 -53.5q61 -57 62 -151q0 -84 -39 -158t-108.5 -128t-162 -86t-200.5 -32 q-76 0 -142.5 19.5t-115.5 54.5t-78 82t-29 102zM207 -147q0 -41 20.5 -77t56 -63.5t84 -43t101.5 -15.5t101 15.5t85 41t58.5 59t21.5 70.5q0 27 -6 42.5t-29.5 25.5t-66.5 17t-117 14l-115 12q-29 2 -47 5t-32.5 6t-29 7.5t-34.5 12.5q-29 -37 -40 -67t-11 -62zM303 590 q0 -104 33 -161.5t92 -57.5q123 0 123 204q0 111 -33 169.5t-92 58.5t-91 -54.5t-32 -158.5z" />
<glyph unicode="h" horiz-adv-x="1161" d="M68 0v76h12q57 0 81.5 21.5t26.5 74.5l2 55v23v723v67q0 78 -3 122t-13 66.5t-32.5 29t-59.5 6.5h-14v73q98 20 173.5 52t133.5 75l59 -32q-8 -78 -12 -156t-4 -166v-350q86 51 167 84t122 33q68 0 123 -23t90 -63q37 -43 50 -92.5t13 -145.5v-303l2 -23v-55 q2 -51 26.5 -73.5t80.5 -22.5h4v-76q-43 2 -75 4t-57.5 3t-50 1h-53.5h-53.5t-50 -1t-57 -3t-74.5 -4v76h22q57 0 81 21.5t26 74.5l2 55l2 23v256q0 129 -32 177t-116 48q-43 0 -82 -10t-110 -45v-424v-25l2 -55q2 -53 26.5 -74.5t81.5 -21.5h15v-76q-39 2 -66.5 4t-52.5 3 t-47.5 1h-50.5q-78 0 -174 -6z" />
<glyph unicode="i" horiz-adv-x="610" d="M74 0v76h14q35 0 56.5 6t32.5 24.5t15.5 53.5t4.5 90v166v65q0 78 -2 123t-13.5 67.5t-33 28t-58.5 5.5h-14v73q174 31 307 125l59 -31q-4 -49 -7 -86.5t-5 -72.5t-3 -73t-1 -91v-299l2 -23l2 -55q2 -53 23.5 -72.5t85.5 -23.5v-76q-82 4 -128 6t-100 2q-53 0 -101 -2 t-136 -6zM178 1092q0 53 38 92t93 39t95 -39t40 -94q0 -53 -38.5 -92.5t-94.5 -39.5q-55 0 -94 39t-39 95z" />
<glyph unicode="j" horiz-adv-x="550" d="M37 -344q59 43 88 74.5t43 70.5q10 29 16 96.5t6 149.5v369v67v43q-2 86 -6 116t-14 44q-12 12 -28.5 16.5t-57.5 4.5h-14v73q86 16 163.5 48t145.5 79l57 -30q-6 -72 -10 -164t-4 -178v-490q0 -78 -12.5 -131t-38.5 -94q-31 -49 -85.5 -90t-164.5 -99l-53 -28zM164 1096 q0 53 39 92t92 39q55 0 95 -39t40 -94q0 -53 -39 -92t-94 -39t-94 38.5t-39 94.5z" />
<glyph unicode="k" horiz-adv-x="1095" d="M68 0v76h12q57 0 81.5 21.5t26.5 74.5l2 55v23v723v67q0 78 -3 122t-13 66.5t-32.5 29t-59.5 6.5h-14v73q197 41 309 127l59 -34q-6 -51 -9 -94.5t-5 -82.5t-3 -78.5t-1 -87.5v-614l180 158q39 35 54.5 57.5t15.5 42.5q0 27 -20.5 37t-76.5 10v78q31 -2 53.5 -4t43 -3 t42 -1h48.5q94 0 198 6l48 2v-76q-72 -8 -121 -30.5t-115 -79.5l-137 -123l268 -334q35 -43 57.5 -67.5t40 -39t36 -20.5t42.5 -10v-76q-45 4 -70.5 5t-66.5 1q-39 0 -71.5 -1t-98.5 -5l-350 471v-219l2 -25l2 -55q2 -53 25.5 -74.5t80.5 -21.5h15v-76q-37 2 -63.5 4t-49 3 t-46.5 1h-54q-78 0 -183 -6z" />
<glyph unicode="l" horiz-adv-x="602" d="M68 0v76h12q57 0 81.5 21.5t26.5 74.5l2 55v23v723v67q0 78 -3 122t-13 66.5t-32.5 29t-59.5 6.5h-14v73q100 20 174.5 51t134.5 76l57 -32q-4 -47 -7 -92.5t-5 -92.5t-3 -101t-1 -120v-776v-23l2 -55q2 -96 102 -96h6v-76q-33 2 -55 4t-43.5 3t-45.5 1h-58h-69t-58.5 -1 t-59 -3t-71.5 -4z" />
<glyph unicode="m" horiz-adv-x="1689" d="M74 0v76h14q57 0 81 21.5t26 74.5l2 55v23v166v65q0 80 -2 124t-12.5 66.5t-32 28t-60.5 5.5h-14v73q170 31 307 125l59 -31q-8 -31 -11 -49t-7 -63q104 66 160.5 91.5t101.5 25.5q98 0 154.5 -32t91.5 -106q61 43 104 70t74 42t55.5 20.5t51.5 5.5q295 0 294 -283v-342 q0 -57 4.5 -92t15.5 -53.5t31.5 -24.5t55.5 -6h4v-76q-39 2 -68.5 4t-55 3t-49.5 1h-52h-52.5t-50 -1t-58.5 -3t-77 -4v76h15q57 0 80.5 21.5t25.5 74.5l2 55l2 23v233q0 145 -29.5 199.5t-111.5 54.5q-39 0 -80 -17.5t-100 -57.5v-33v-35v-342l2 -25l2 -55q2 -96 108 -96h6 v-76l-75 2q-53 4 -93.5 5t-78.5 1q-51 0 -93.5 -2t-117.5 -6v76h4q55 0 79.5 22.5t26.5 73.5l2 55v23v235q0 74 -6 122t-22.5 76t-45 39t-71.5 11q-72 0 -166 -53v-428q0 -57 3 -91t15.5 -52.5t36 -24.5t62.5 -8v-76q-39 2 -68 4t-53.5 3t-47 1h-50.5h-53.5t-52.5 -1 t-61.5 -3t-80.5 -4z" />
<glyph unicode="n" horiz-adv-x="1169" d="M74 0v76h14q57 0 81 21.5t26 74.5l2 55v23v166v65q0 78 -2 123t-13.5 67.5t-33 28t-58.5 5.5h-14v73q174 31 307 125l59 -31l-4 -22l-10 -68l-4 -22q90 53 169 85t116 32q90 0 156.5 -35t97.5 -101q30 -59 30 -190v-8v-293v-23l2 -55q2 -51 24.5 -73.5t76.5 -22.5h6v-76 q-47 2 -79 4t-56.5 3t-45 1h-42.5h-41t-47.5 -1t-63.5 -3t-90 -4v76h14q59 0 83 21.5t26 74.5l2 55v23v295q0 100 -33 144t-106 44q-43 0 -95.5 -14t-103.5 -41v-428l2 -23v-55q2 -53 26.5 -74.5t82.5 -21.5h18v-76q-49 2 -84 4t-59.5 3t-45 1h-42.5q-55 0 -177 -6z" />
<glyph unicode="o" horiz-adv-x="1042" d="M63 428q0 98 35 183t96.5 147.5t145.5 97.5t182 35q102 0 186.5 -33t143.5 -92t93 -141t34 -183q0 -100 -35 -185t-97.5 -146.5t-148.5 -96t-188 -34.5q-100 0 -182 32.5t-140.5 91t-91.5 141.5t-33 183zM313 463q0 -184 57.5 -288.5t157.5 -104.5q98 0 150.5 90 t52.5 258q0 174 -60.5 277.5t-158.5 103.5q-96 0 -147.5 -87t-51.5 -249z" />
<glyph unicode="p" horiz-adv-x="1089" d="M78 -385h6q53 2 77.5 23.5t26.5 72.5l2 56v22v662v153q0 35 -3 55.5t-12 30.5t-27.5 13.5t-49.5 3.5h-12v73q63 16 104 26.5t73 23t60.5 26.5t67.5 37l39 -23v-20q0 -16 -1 -24.5t-1 -12.5t1 -10t1 -15q59 37 120.5 63t90.5 26q84 0 153.5 -32t122 -88.5t81 -133 t28.5 -166.5q0 -98 -35 -185.5t-94 -152t-139 -102t-170 -37.5q-43 0 -76 7t-94 27v-227v-20l2 -56q2 -53 25.5 -73.5t82.5 -20.5h21v-78q-39 2 -66.5 4t-53.5 2h-52.5h-61.5h-61.5t-52 -1t-55 -2t-68.5 -3v76zM418 131q37 -29 71.5 -42t75.5 -13q100 0 160.5 85t60.5 224 q0 154 -64.5 247t-170.5 93q-25 0 -50.5 -6t-78.5 -23v-47l-2 -78l-2 -82v-358z" />
<glyph unicode="q" horiz-adv-x="1040" d="M63 408q0 104 30 191t84 148.5t131 95.5t169 34q82 0 143.5 -25t122.5 -84l121 123l51 -23q-4 -55 -5 -103t-1 -101v-875l2 -22v-56q2 -51 27 -72.5t78 -21.5h6v-78q-41 2 -70.5 3t-56.5 2t-53.5 1h-59.5h-56.5t-52 -1t-56 -2t-70.5 -3v76h24q59 2 83 22.5t26 73.5l2 56 v22v315q-96 -72 -157.5 -98t-129.5 -26q-74 0 -135 30.5t-105 87t-68 135t-24 175.5zM297 471q0 -154 61.5 -247t163.5 -93q43 0 75 13.5t85 54.5v286q0 158 -40 224.5t-138 66.5q-96 0 -151.5 -82t-55.5 -223z" />
<glyph unicode="r" horiz-adv-x="763" d="M76 0v76h10q59 0 83 21.5t26 74.5l2 55v23v266v47q0 27 -1 42.5t-1 23.5q0 29 -2.5 45t-12.5 24.5t-28.5 10.5t-53.5 2h-22v77q86 10 150.5 34t142.5 75l51 -25q-4 -45 -6 -63t-2 -35v-69l-2 -37q90 211 229 211q104 0 104 -62q0 -23 -12 -58.5t-31 -64.5 q-14 -25 -41 -24h-13t-13 2l-35 8q-25 6 -45 6q-72 0 -102.5 -63.5t-30.5 -219.5v-151l2 -25l2 -55q2 -53 25.5 -74.5t80.5 -21.5h33v-76q-45 2 -76.5 4t-58.5 3t-52.5 1h-56.5q-29 0 -53 -1t-52 -2t-60.5 -2t-77.5 -3z" />
<glyph unicode="s" horiz-adv-x="737" d="M70 258l75 10q27 -111 70 -159t117 -48q59 0 95 31t36 80q0 23 -6 41t-23.5 38.5t-48.5 44t-78 54.5l-49 33q-156 102 -156 252q0 113 78 182.5t207 69.5q59 0 113.5 -11.5t126.5 -35.5l14 -199l-72 -8q-23 98 -58.5 138t-98.5 40q-47 0 -77 -27.5t-30 -74.5 q0 -39 22.5 -70t78.5 -66l47 -30q117 -76 166 -142.5t49 -154.5q0 -119 -87 -192.5t-225 -73.5q-27 0 -47 2t-43.5 6t-55.5 14t-83 25q-4 2 -12.5 4t-18.5 6z" />
<glyph unicode="t" horiz-adv-x="661" d="M76 725l12 72q55 29 84 53t68 72q18 25 32.5 44t25.5 40.5t22.5 47t25.5 60.5h66l-6 -283h241l-33 -106h-215v-291v-65v-22q0 -137 24 -193q26 -60 93 -60q49 0 109 29l22 -68q-76 -41 -129 -58t-115 -17q-119 0 -175 58t-56 181l8 506h-104z" />
<glyph unicode="u" horiz-adv-x="1120" d="M59 768v78h37q133 0 316 33l-2 -56l-2 -90l-2 -80v-340q0 -104 30.5 -149t102.5 -45q39 0 73.5 15.5t89.5 58.5v380v48v65q0 29 -3 45.5t-11 24.5t-26.5 10t-49.5 2h-30v78h51q66 0 148.5 8t166.5 25q-8 -82 -10 -133.5t-2 -114.5v-328v-24q0 -49 4 -79t14.5 -46.5 t31 -21.5t52.5 -5h11v-76q-39 -6 -69 -13t-58.5 -14.5t-58 -16.5t-66.5 -21l-47 -19l-48 33v96q-61 -55 -134.5 -85.5t-145.5 -30.5q-72 2 -128 33.5t-85 86.5q-16 37 -24.5 84t-8.5 125v264v48q0 29 -1 45t-1 20q0 29 -2 45.5t-12 24.5t-28.5 10t-53.5 2h-19z" />
<glyph unicode="v" horiz-adv-x="931" d="M-12 778v78q90 -4 144 -6t118 -2h54.5t47 1t50 3t63.5 4v-76q-10 -2 -17.5 -3t-13.5 -1q-67 -6 -67 -54q0 -21 26 -89l129 -320l127 287q33 82 33 115q0 37 -20.5 50t-79.5 13v78l49 -2q59 -4 91 -5t60 -1q41 0 75 2t95 6v-76q-33 -4 -57.5 -13t-44 -26.5t-36.5 -47 t-38 -77.5l-209 -452l-28 -64l-33 -75l-21 -41h-55l-16 36l-31 74l-29 68l-198 450q-23 49 -40.5 81t-36 50.5t-40 25.5t-51.5 9z" />
<glyph unicode="w" horiz-adv-x="1296" d="M-12 778v78l61 -2q47 -4 83 -5t69 -1q47 0 85 2t107 6v-76q-35 -6 -50 -20.5t-15 -42.5q0 -14 4 -32.5t14 -45.5l113 -307l137 282l-31 76q-23 53 -44 70.5t-62 17.5v78l65 -2q53 -4 95.5 -5t78.5 -1q51 0 90 2t111 6v-76q-92 -6 -92 -69q0 -8 2 -19.5t6 -23.5 q8 -39 16 -54l105 -282l86 227q45 117 45 150q0 39 -21.5 54t-72.5 15v78l49 -2q86 -6 123 -6q20 0 46 1t60 3l66 4v-76q-27 -2 -45.5 -10t-34.5 -25.5t-31.5 -46t-34.5 -73.5l-206 -490l-23 -49l-22 -55l-21 -45h-47l-16 39l-29 73l-27 66l-133 319l-155 -317l-27 -57 l-35 -74l-22 -49h-50l-18 43l-25 69l-26 70l-174 446l-25 56q-27 66 -46 85t-56 23z" />
<glyph unicode="x" horiz-adv-x="1001" d="M12 0v76q66 4 129.5 46t141.5 138l120 141l-159 213q-61 84 -106.5 122t-92.5 42v78q49 -2 82 -4t57.5 -3t45 -1h42.5q33 0 71 1t85 3l80 4v-76q-35 -4 -49.5 -16t-14.5 -37q0 -27 23 -59l78 -105l47 64l29 37q20 29 26 41t6 26q0 45 -63 47v78q72 -4 107.5 -6t72.5 -2 q43 0 73.5 2t88.5 6v-76q-29 -2 -53.5 -11t-51 -29.5t-57.5 -52.5t-72 -81l-96 -121l117 -161q53 -76 91 -123t66.5 -75t54 -38t56.5 -12v-76q-86 4 -141 6t-121 2h-56.5t-52 -1t-55.5 -3t-69 -4v76h16h4q70 0 70 47q0 23 -37 76l-86 125l-99 -121q-43 -55 -43 -80 q0 -43 70 -45h16v-78q-74 4 -114.5 6t-93.5 2t-88 -2t-95 -6z" />
<glyph unicode="y" horiz-adv-x="917" d="M-12 778v78q33 -2 56.5 -4t47 -3t51 -1h68.5h77.5t56.5 1t51.5 3t60.5 4v-76h-15q-45 -2 -63.5 -17t-18.5 -52q0 -14 3.5 -25.5t19.5 -56.5l133 -361l119 316q16 41 25.5 77.5t9.5 53.5q0 63 -82 63h-19v78q66 -4 109 -6t106 -2q55 0 85 2t81 6v-76q-66 -2 -107.5 -43 t-86.5 -151l-250 -592l-37 -88q-43 -104 -86 -181t-82 -118q-68 -74 -156 -74q-59 0 -92 27.5t-33 77.5q0 49 29 77.5t80 28.5h25q10 -2 16 -2h14q53 0 108.5 67.5t90.5 172.5l-250 639q-33 90 -62.5 120.5t-82.5 36.5z" />
<glyph unicode="z" horiz-adv-x="894" d="M27 23q45 59 82.5 112t68.5 98l367 535l-142 -2q-49 0 -84.5 -8t-62.5 -28.5t-47.5 -53.5t-38.5 -84h-68l58 307h59q47 -25 89 -34t120 -9h311h42.5t60.5 2l14 -31l-37 -51q-18 -25 -30.5 -41t-24.5 -33.5t-25.5 -38t-36.5 -53.5l-362 -524h178q55 0 94 9t72 33 t59.5 63.5t57.5 101.5l67 -23l-88 -270l-96 2q-72 0 -138.5 1t-125.5 1q-53 0 -121 -1t-149 -1l-111 -2z" />
<glyph unicode="{" horiz-adv-x="583" d="M82 451v114q66 16 91.5 58.5t25.5 134.5v356q0 150 68.5 216.5t224.5 66.5h20t27 -2v-113q-63 0 -102.5 -7t-60 -28.5t-27.5 -60.5t-7 -105v-333q0 -100 -26.5 -150.5t-98.5 -89.5q70 -39 97.5 -92.5t27.5 -151.5v-321q0 -66 7 -107t27.5 -62.5t59.5 -28.5t103 -7v-113 q-18 -2 -28.5 -2h-21.5q-158 0 -224 68.5t-66 232.5v334q0 92 -26 134t-91 59z" />
<glyph unicode="|" d="M449 -354v1718h124v-1718h-124z" />
<glyph unicode="}" horiz-adv-x="583" d="M45 -262q63 0 101 7t59.5 28.5t29 60.5t7.5 103v333q0 100 26.5 150.5t98.5 89.5q-70 39 -97.5 92t-27.5 152v323q0 66 -7.5 107t-28 62.5t-59 28.5t-102.5 7v113q20 2 29.5 2h21.5q156 0 222.5 -70t66.5 -231v-334q0 -92 25.5 -135t91.5 -60v-112q-66 -18 -91.5 -60.5 t-25.5 -134.5v-356q0 -147 -68.5 -214t-224.5 -67h-20.5t-26.5 2v113z" />
<glyph unicode="~" horiz-adv-x="1021" d="M8 1163q76 129 137.5 181.5t137.5 52.5q23 0 43 -3t47.5 -12.5t67.5 -26t100 -42.5q49 -23 80.5 -37t53 -21.5t35 -10.5t25.5 -3q53 0 100.5 43t100.5 143l78 -71q-72 -129 -135.5 -183.5t-139.5 -54.5q-18 0 -35.5 3t-42 11.5t-61.5 23.5t-94 40q-61 27 -97 42 t-58.5 22.5t-35 9.5t-28.5 2q-53 0 -98.5 -40t-104.5 -145z" />
<glyph unicode="&#xa1;" horiz-adv-x="514" d="M109 791q0 63 43 107t104 44t104 -44t43 -107q0 -59 -43 -101.5t-104 -42.5t-104 42t-43 102zM127 -299q0 27 3 69t8 92t12.5 107.5t15.5 112.5l65 430h52l63 -430q8 -55 15.5 -111.5t12.5 -107.5t8 -92t3 -68q0 -78 -34 -120t-95 -42t-95 42t-34 118z" />
<glyph unicode="&#xa2;" horiz-adv-x="954" d="M94 645q0 186 101.5 306t283.5 155v123h78v-121q61 -4 114.5 -19.5t91.5 -38t60.5 -51t22.5 -59.5q0 -20 -17 -37q-23 -16 -49 -28.5t-49 -12.5q-27 0 -49 37q-37 59 -63.5 83t-61.5 34v-647q16 -4 23.5 -6.5t17.5 -2.5q109 0 242 97l41 -56q-86 -86 -159 -128t-165 -58 v-133h-78v133q-88 4 -158.5 37t-120.5 89t-78 134t-28 170zM319 754q0 -129 43.5 -223.5t116.5 -135.5v627q-78 -16 -119 -84t-41 -184z" />
<glyph unicode="&#xa3;" horiz-adv-x="954" d="M8 166q0 78 56.5 130t138.5 52q59 0 145 -33q-8 92 -21.5 173t-31.5 157h-197v82h178q-20 92 -27 145.5t-7 106.5q0 90 29.5 167t83 133t125 88t157.5 32q113 0 203 -60q35 -25 62.5 -61.5t27.5 -58.5q0 -37 -62 -68q-41 -20 -65 -21q-18 0 -29.5 10.5t-25.5 45.5 q-35 78 -65 106.5t-81 28.5q-66 0 -101.5 -50t-35.5 -138q0 -14 1 -27.5t2 -32t5 -45.5t10 -67q6 -33 10.5 -60t7.5 -52.5t7 -54t8 -67.5h291v-80h-281v-82q0 -78 -9 -156.5t-28 -150.5q109 -49 179.5 -71.5t126.5 -22.5q41 0 71.5 18.5t61.5 61.5l12 14l59 -33 q-74 -141 -135 -199.5t-135 -58.5q-25 0 -46 5t-50 19.5t-68 40t-98 66.5l-25 19q-49 -80 -99 -111t-124 -31q-92 0 -151.5 53.5t-59.5 137.5zM100 164q0 -45 33 -75t80 -30q109 1 125 138q-41 37 -74 53t-63 16q-41 0 -71 -30.5t-30 -71.5z" />
<glyph unicode="&#xa4;" horiz-adv-x="1363" d="M100 254l197 195q-53 72 -76.5 139t-23.5 149q0 84 23.5 150.5t78.5 140.5l-199 197l90 92l199 -199q74 53 142.5 78t150.5 25q80 0 147.5 -22.5t143.5 -76.5l194 193l88 -90l-192 -193q55 -72 79.5 -141.5t24.5 -155.5q0 -80 -22.5 -146.5t-75.5 -137.5l195 -197 l-90 -90l-195 194q-137 -104 -297 -104q-80 0 -148.5 23.5t-146.5 80.5l-197 -194zM346 737q0 -70 26.5 -131t73 -107t106.5 -73t130 -27t131 27t106.5 73t72 107.5t26.5 130.5q0 70 -26.5 131.5t-72 107.5t-105.5 72.5t-128 26.5q-70 0 -132 -26.5t-108.5 -71.5t-73 -106.5 t-26.5 -133.5z" />
<glyph unicode="&#xa5;" horiz-adv-x="954" d="M-2 1288v76q31 -2 56.5 -4t52 -4t59.5 -2h80h70.5t51 2t46 4t53.5 4v-76q-41 -10 -55.5 -24.5t-14.5 -44.5q0 -8 1 -16.5t3 -18.5l13 -35l14 -57l10 -35l103 -350l84 301l28 88q12 43 19.5 73.5t7.5 47.5q0 35 -17.5 50t-64.5 21v76q31 -2 52.5 -4t42 -4t44 -2h54.5h53 t41.5 2l39 4t46.5 4v-76q-72 -18 -119 -73.5t-82 -161.5l-78 -242h236v-80h-260l-56 -164v-37h316v-79h-316v-80l-2 -92q0 -61 6.5 -100.5t20.5 -62t39.5 -31.5t64.5 -9h29v-76q-47 2 -85 4t-71.5 3t-68.5 2t-76 1h-66.5t-57.5 -2t-60.5 -3t-75.5 -5v76h35q39 0 64.5 8 t39.5 31.5t19.5 62.5t5.5 101v90v80h-332v79h332v39l-62 164h-270v80h244l-74 211q-41 119 -93 182.5t-120 83.5z" />
<glyph unicode="&#xa7;" horiz-adv-x="1021" d="M68 549q0 92 42 167t136 148q-80 80 -80 197q0 68 28.5 126t79 101t120 67.5t149.5 24.5q158 0 258 -92q31 -29 50 -62.5t19 -58.5q0 -23 -16 -34q-23 -16 -58.5 -27.5t-64.5 -11.5q-16 0 -27.5 11t-21.5 40q-55 145 -164 145q-57 0 -96 -41t-39 -102q0 -33 10 -60.5 t38 -56.5t74 -63.5t120 -81.5q59 -39 97 -63.5t62.5 -43t42 -34t35.5 -35.5q92 -94 92 -226q0 -188 -176 -321q47 -51 68.5 -101.5t21.5 -113.5q0 -74 -31.5 -136.5t-87 -108.5t-131 -72.5t-163.5 -26.5q-160 0 -277 92q-35 29 -63.5 70.5t-28.5 68.5q0 35 61 60 q47 20 78 20q20 0 31.5 -11.5t24.5 -39.5q39 -88 85 -126t115 -38q74 0 119 46t45 122q0 37 -9 65.5t-36 58t-76 64.5t-129 86q-51 33 -89 57.5t-64.5 46t-47 41t-38.5 40.5q-88 98 -88 223zM225 674q0 -35 13.5 -69t35.5 -60q14 -14 31 -29.5t40.5 -34t58 -43t83.5 -57.5 q72 -49 119 -81t70 -48q16 -12 49 -37q68 70 68 147q0 74 -54 132q-33 33 -79 68.5t-138 96.5l-151 103l-68 45q-41 -29 -59.5 -59.5t-18.5 -73.5z" />
<glyph unicode="&#xa8;" horiz-adv-x="899" d="M135 1182q0 53 38 90t91 37t90 -36t37 -89t-38 -91t-91 -38t-90 36.5t-37 90.5zM508 1182q0 53 38 90t91 37t90 -36t37 -89t-38 -91t-91 -38t-90 36.5t-37 90.5z" />
<glyph unicode="&#xa9;" horiz-adv-x="1595" d="M86 682q0 147 55.5 276t152.5 225.5t226.5 152t276.5 55.5t276 -55.5t226.5 -152t152.5 -225.5t55 -276t-56 -276.5t-152.5 -225.5t-225.5 -151.5t-276 -55.5t-276.5 55.5t-226.5 151.5t-152.5 225.5t-55.5 276.5zM184 682q0 -127 48.5 -239.5t131 -196.5t194.5 -132 t237 -48q127 0 237.5 48t193.5 132t131 196.5t48 239.5t-48 239.5t-131 196.5t-193.5 132t-237.5 48q-125 0 -237 -48t-194.5 -132t-131 -196.5t-48.5 -239.5zM408 688q0 96 29.5 174t83.5 135.5t129 88t165 30.5q72 0 135.5 -21.5t111.5 -59.5t77.5 -91t36.5 -117h-119 q-18 88 -83 137.5t-163 49.5q-129 0 -205 -89t-76 -237q0 -147 76 -235t203 -88q109 0 175.5 62t80.5 179h121q-12 -158 -115.5 -251t-263.5 -93q-88 0 -162 31t-127 87t-81.5 135t-28.5 173z" />
<glyph unicode="&#xaa;" horiz-adv-x="827" d="M125 938q0 164 260 188l84 7q49 4 66.5 17t17.5 48q0 113 -139 113q-72 0 -106 -30t-44 -99h-106q16 209 260 209q127 0 186.5 -47.5t59.5 -149.5v-20l-2 -70v-72v-98q0 -66 4 -96.5t18 -61.5h-115q-8 14 -10 21.5t-2 19.5l-2 19l-2 20q-29 -29 -52.5 -47t-47 -29.5 t-50 -15.5t-61.5 -4q-104 0 -160.5 46t-56.5 132zM127 575v78h600v-78h-600zM242 942q0 -49 32.5 -76.5t92.5 -27.5q184 0 184 204v39q-14 -10 -31.5 -14t-46.5 -8l-76 -6q-156 -14 -155 -111z" />
<glyph unicode="&#xab;" horiz-adv-x="819" d="M61 418v45l320 285l49 -33l-180 -277l180 -272l-49 -29zM375 418v45l319 285l49 -33l-178 -277l178 -272l-49 -29z" />
<glyph unicode="&#xac;" d="M20 430v117h984v-547h-117v430h-867z" />
<glyph unicode="&#xad;" horiz-adv-x="524" d="M0 354v181h524v-181h-524z" />
<glyph unicode="&#xae;" d="M109 1155q0 84 31.5 156.5t86 126t128 85t157.5 31.5t156.5 -31.5t127 -85t86 -126t31.5 -156.5q0 -82 -31.5 -154.5t-86 -126t-127 -85t-156.5 -31.5t-157.5 31.5t-128 85t-86 126t-31.5 154.5zM182 1155q0 -68 25.5 -127t71 -104t105.5 -71t128 -26t127 26t104 71 t71 104t26 127t-26 128t-70 104.5t-104 70t-128 25.5t-128 -25.5t-105.5 -70t-71 -104.5t-25.5 -128zM342 956v408h188q158 0 158 -117q0 -29 -9 -46t-36 -40l2 -20l19 -23q4 -4 10 -26q6 -14 6 -31l4 -29l2 -26l2 -17q0 -6 1 -11t7 -24h-73q-6 14 -8.5 23.5t-4.5 44.5 q-4 66 -21.5 83t-78.5 17h-90v-166h-78zM418 1180h92q104 0 104 61t-96 62h-100v-123z" />
<glyph unicode="&#xaf;" horiz-adv-x="825" d="M135 1112v143h553v-143h-553z" />
<glyph unicode="&#xb0;" d="M207 1094q0 61 23.5 116.5t65.5 95.5t97.5 63.5t118.5 23.5t118.5 -23.5t97.5 -63.5t65.5 -95.5t23.5 -116.5t-23.5 -115.5t-65.5 -94.5t-97.5 -63.5t-118.5 -23.5t-118.5 23.5t-97.5 63.5t-65.5 94t-23.5 116zM311 1094q0 -41 15.5 -78t43 -64.5t63.5 -43t77 -15.5 t78 15.5t64.5 43t43 64.5t15.5 78q0 86 -58.5 144t-142.5 58t-141.5 -58t-57.5 -144z" />
<glyph unicode="&#xb1;" d="M18 133v127h986v-127h-986zM18 719v127h428v401h129v-399h429v-129h-426v-375h-129v375h-431z" />
<glyph unicode="&#xb4;" horiz-adv-x="626" d="M135 1012l131 358h203q20 0 20 -16q0 -6 -2 -8.5t-6 -8.5l-288 -354z" />
<glyph unicode="&#xb5;" d="M92 -344v1333h154v-557q0 -53 4 -91t13 -67.5t25.5 -54t41.5 -49.5q72 -70 172 -70q121 0 194.5 96.5t73.5 252.5v540h154v-989h-152v168q-51 -106 -113.5 -150.5t-156.5 -44.5q-88 0 -146.5 34t-109.5 116v-467h-154z" />
<glyph unicode="&#xb6;" horiz-adv-x="1148" d="M88 1001q0 119 60.5 208t160.5 124q49 16 108.5 24.5t123.5 8.5h471v-82h-99v-1483h-104v1483h-209v-1481h-108v846q-8 -2 -15.5 -2h-13.5q-82 0 -151.5 25.5t-119 73t-77 113t-27.5 142.5z" />
<glyph unicode="&#xb7;" horiz-adv-x="323" d="M0 694q0 66 47 112t115 46q66 0 114 -45t48 -111q0 -70 -48.5 -118t-115.5 -48q-66 0 -113 48.5t-47 115.5z" />
<glyph unicode="&#xb8;" horiz-adv-x="669" d="M135 -295q0 23 16.5 37t41.5 14t32 -18l15 -29q23 -41 65 -41q29 0 45.5 20.5t16.5 55.5q0 41 -24 66.5t-62 25.5q-16 0 -27.5 -3t-32.5 -11l-24 45l145 133h86l-92 -92q16 2 27.5 3t19.5 1q68 0 108.5 -40t40.5 -105q0 -78 -57 -123t-156 -45q-76 0 -130 30.5t-54 75.5z " />
<glyph unicode="&#xba;" horiz-adv-x="849" d="M123 1075q0 141 84 229.5t221 88.5q135 0 216 -87t81 -233q0 -141 -82 -227t-219 -86q-135 0 -218 86t-83 229zM131 575v78h600v-78h-600zM238 1075q0 -106 50 -167.5t138 -61.5q86 0 136 61.5t50 165.5q0 109 -50 170.5t-138 61.5q-86 0 -136 -61.5t-50 -168.5z" />
<glyph unicode="&#xbb;" horiz-adv-x="819" d="M74 170l180 279l-180 270l49 29l321 -279v-45l-321 -287zM389 170l178 279l-178 270l49 29l320 -279v-45l-320 -287z" />
<glyph unicode="&#xbf;" horiz-adv-x="688" d="M47 29q0 129 86 215q39 39 80 57t119 35q59 10 74.5 29.5t15.5 78.5v54h76v-355q-334 -31 -334 -231q0 -80 54 -133t136 -53q61 0 119 24q43 16 45 19q12 4 23 4q29 0 50 -49.5t21 -112.5q0 -35 -27.5 -51.5t-92.5 -16.5q-117 0 -211 72q-51 39 -94.5 89t-74 105.5 t-48 111.5t-17.5 108zM293 791q0 63 43 107t104 44t104.5 -44t43.5 -107q0 -59 -43.5 -101.5t-104.5 -42.5t-104 42t-43 102z" />
<glyph unicode="&#xc0;" horiz-adv-x="1353" d="M-12 0v76q82 0 118 51q25 29 61 97.5t71 154.5l71 170l172 416q23 53 38.5 91t27.5 70.5t24.5 65.5t26.5 74l25 65l170 76q8 -25 13 -42t9 -30q4 -16 19.5 -62t37.5 -120q23 -70 37.5 -113t20.5 -61l172 -500l24 -73q80 -246 142 -297q23 -20 40 -26.5t52 -6.5v-76 q-51 4 -88 5t-67.5 3t-60.5 2h-65h-63.5t-61 -2t-70.5 -3t-91 -5v76h14q66 0 93.5 18.5t27.5 61.5q0 25 -8.5 64.5t-24.5 92.5l-64 199h-387l-86 -221q-16 -43 -24 -78t-8 -55q0 -43 26.5 -60.5t93.5 -21.5h25v-76q-37 4 -62.5 5t-51 3t-54.5 2h-72h-75.5t-56 -2t-51 -3 t-60.5 -5zM485 623h308l-136 450zM524 1602q-8 12 11 20l129 74l223 -187l-25 -41l-325 123q-4 2 -7 4q-6 4 -6 7z" />
<glyph unicode="&#xc1;" horiz-adv-x="1353" d="M-12 0v76q82 0 118 51q25 29 61 97.5t71 154.5l71 170l172 416q23 53 38.5 91t27.5 70.5t24.5 65.5t26.5 74l25 65l170 76q8 -25 13 -42t9 -30q4 -16 19.5 -62t37.5 -120q23 -70 37.5 -113t20.5 -61l172 -500l24 -73q80 -246 142 -297q23 -20 40 -26.5t52 -6.5v-76 q-51 4 -88 5t-67.5 3t-60.5 2h-65h-63.5t-61 -2t-70.5 -3t-91 -5v76h14q66 0 93.5 18.5t27.5 61.5q0 25 -8.5 64.5t-24.5 92.5l-64 199h-387l-86 -221q-16 -43 -24 -78t-8 -55q0 -43 26.5 -60.5t93.5 -21.5h25v-76q-37 4 -62.5 5t-51 3t-54.5 2h-72h-75.5t-56 -2t-51 -3 t-60.5 -5zM485 623h308l-136 450zM526 1503l226 189l135 -78q14 -8 8 -19q-4 -6 -12 -8l-330 -125z" />
<glyph unicode="&#xc2;" horiz-adv-x="1353" d="M-12 0v76q82 0 118 51q25 29 61 97.5t71 154.5l71 170l172 416q23 53 38.5 91t27.5 70.5t24.5 65.5t26.5 74l25 65l170 76q8 -25 13 -42t9 -30q4 -16 19.5 -62t37.5 -120q23 -70 37.5 -113t20.5 -61l172 -500l24 -73q80 -246 142 -297q23 -20 40 -26.5t52 -6.5v-76 q-51 4 -88 5t-67.5 3t-60.5 2h-65h-63.5t-61 -2t-70.5 -3t-91 -5v76h14q66 0 93.5 18.5t27.5 61.5q0 25 -8.5 64.5t-24.5 92.5l-64 199h-387l-86 -221q-16 -43 -24 -78t-8 -55q0 -43 26.5 -60.5t93.5 -21.5h25v-76q-37 4 -62.5 5t-51 3t-54.5 2h-72h-75.5t-56 -2t-51 -3 t-60.5 -5zM485 623h308l-136 450zM526 1481l131 178l109 -2l127 -176l-35 -17l-149 105l-148 -103z" />
<glyph unicode="&#xc3;" horiz-adv-x="1353" d="M-12 0v76q82 0 118 51q25 29 61 97.5t71 154.5l71 170l172 416q23 53 38.5 91t27.5 70.5t24.5 65.5t26.5 74l25 65l170 76q8 -25 13 -42t9 -30q4 -16 19.5 -62t37.5 -120q23 -70 37.5 -113t20.5 -61l172 -500l24 -73q80 -246 142 -297q23 -20 40 -26.5t52 -6.5v-76 q-51 4 -88 5t-67.5 3t-60.5 2h-65h-63.5t-61 -2t-70.5 -3t-91 -5v76h14q66 0 93.5 18.5t27.5 61.5q0 25 -8.5 64.5t-24.5 92.5l-64 199h-387l-86 -221q-16 -43 -24 -78t-8 -55q0 -43 26.5 -60.5t93.5 -21.5h25v-76q-37 4 -62.5 5t-51 3t-54.5 2h-72h-75.5t-56 -2t-51 -3 t-60.5 -5zM485 623h308l-136 450zM504 1466q10 98 35.5 142.5t74.5 44.5q14 0 39 -7.5t84 -27.5q59 -18 76.5 -23.5t34.5 -5.5q45 0 59 53l54 3q-6 -98 -35 -142.5t-86 -44.5q-18 0 -37 4t-72 25q-41 16 -70.5 22.5t-46.5 6.5q-41 0 -57 -52z" />
<glyph unicode="&#xc4;" horiz-adv-x="1353" d="M-12 0v76q82 0 118 51q25 29 61 97.5t71 154.5l71 170l172 416q23 53 38.5 91t27.5 70.5t24.5 65.5t26.5 74l25 65l170 76q8 -25 13 -42t9 -30q4 -16 19.5 -62t37.5 -120q23 -70 37.5 -113t20.5 -61l172 -500l24 -73q80 -246 142 -297q23 -20 40 -26.5t52 -6.5v-76 q-51 4 -88 5t-67.5 3t-60.5 2h-65h-63.5t-61 -2t-70.5 -3t-91 -5v76h14q66 0 93.5 18.5t27.5 61.5q0 25 -8.5 64.5t-24.5 92.5l-64 199h-387l-86 -221q-16 -43 -24 -78t-8 -55q0 -43 26.5 -60.5t93.5 -21.5h25v-76q-37 4 -62.5 5t-51 3t-54.5 2h-72h-75.5t-56 -2t-51 -3 t-60.5 -5zM457 1559q0 41 28.5 69.5t69.5 28.5t69.5 -27.5t28.5 -68.5t-28.5 -70t-69.5 -29t-69.5 28t-28.5 69zM485 623h308l-136 450zM743 1559q0 41 29 69.5t70 28.5t69.5 -27.5t28.5 -68.5t-28.5 -70t-69.5 -29t-70 28t-29 69z" />
<glyph unicode="&#xc5;" horiz-adv-x="1353" d="M-12 0v76q82 0 118 51q25 29 61 97.5t71 154.5l71 170l172 416q23 53 38.5 91t27.5 70.5t24.5 65.5t26.5 74l25 65l170 76q8 -25 13 -42t9 -30q4 -16 19.5 -62t37.5 -120q23 -70 37.5 -113t20.5 -61l172 -500l24 -73q80 -246 142 -297q23 -20 40 -26.5t52 -6.5v-76 q-51 4 -88 5t-67.5 3t-60.5 2h-65h-63.5t-61 -2t-70.5 -3t-91 -5v76h14q66 0 93.5 18.5t27.5 61.5q0 25 -8.5 64.5t-24.5 92.5l-64 199h-387l-86 -221q-16 -43 -24 -78t-8 -55q0 -43 26.5 -60.5t93.5 -21.5h25v-76q-37 4 -62.5 5t-51 3t-54.5 2h-72h-75.5t-56 -2t-51 -3 t-60.5 -5zM485 623h308l-136 450zM571 1583q0 53 37 91t90 38t89 -37t36 -90q0 -51 -36.5 -87t-90.5 -36q-51 0 -88 36t-37 85zM635 1587q0 -27 17.5 -45t45.5 -18q25 0 43.5 17.5t18.5 41.5q0 29 -18.5 49.5t-45.5 20.5t-44 -19.5t-17 -46.5z" />
<glyph unicode="&#xc6;" horiz-adv-x="1824" d="M-33 0v76q49 10 81 32.5t71 75.5q41 53 82 126t90 175l88 187l141 286q4 6 8 17.5t15 30.5q37 72 51 113.5t14 70.5q0 43 -30.5 60.5t-116.5 19.5v94q39 -2 66.5 -3t56 -1t65.5 -1t92 -1q80 -2 133.5 -3t89 -1h61.5h52h145.5t139 1t118 2t79.5 3q16 0 39.5 1t54.5 3 q2 -61 5 -107.5t6 -84t8 -70.5t11 -68l-84 -10l-6 29q-14 63 -32.5 105t-48 66.5t-73.5 35t-110 10.5h-39h-114q-49 0 -62.5 -13.5t-13.5 -62.5l-2 -72v-360h182q74 0 117 4t64.5 21.5t27.5 50t6 88.5h84q-4 -78 -6 -132.5t-2 -119.5v-48.5t1 -41t3 -41t4 -51.5h-84 q0 59 -6 92.5t-29.5 50t-68.5 22t-125 5.5h-166v-289q0 -92 5 -145.5t27.5 -81t64.5 -36t116 -8.5t124 4.5t86 16.5t62.5 32.5t50.5 51.5q29 39 45.5 70.5t36.5 95.5l80 -21q-8 -31 -16 -60.5t-16.5 -63t-17.5 -75.5t-19 -98l-11 -55q-57 2 -109.5 4t-105.5 3t-111.5 2 t-129.5 1q-70 0 -145 -1t-142.5 -2t-123.5 -2t-87 -3q-14 0 -32.5 -1t-45.5 -1v76h25q41 0 67.5 9t42 31.5t21.5 62.5t6 102l-2 92v289h-326l-164 -373q-6 -14 -18 -51q-14 -33 -16 -52q-6 -14 -7 -34q0 -76 107 -76v-76q-80 6 -124 8t-93 2q-37 0 -78 -2t-107 -6zM569 762 h277v508h-49z" />
<glyph unicode="&#xc7;" horiz-adv-x="1427" d="M70 672q0 156 58 289t160.5 230t243 152.5t302.5 55.5q84 0 181 -17.5t228 -54.5q39 -10 50.5 -13t33.5 -7l43 -349l-78 -12q-12 37 -22 62.5t-20.5 45t-20.5 37t-27 37.5q-57 76 -148 117t-204 41t-205 -42t-158.5 -119.5t-102.5 -185.5t-36 -241q0 -137 37 -250.5 t103.5 -196.5t157.5 -129t202 -46q98 0 190 41t156 112q23 25 38 47.5t27.5 48t23.5 58.5t24 78l79 -17l-59 -354q-41 -18 -71.5 -31.5t-58.5 -22.5t-58.5 -17.5t-71.5 -18.5q-31 -8 -54.5 -13t-45 -8.5t-45 -4.5t-54.5 -3l-67 -69q16 4 25.5 4h19.5q72 0 115 -38t43 -101 q0 -78 -59.5 -126.5t-158.5 -48.5q-72 0 -128 33t-56 76q0 23 17.5 37t42.5 14q27 0 40 -31q16 -35 29.5 -47t36.5 -12q29 0 47.5 22.5t18.5 57.5q0 39 -25 63.5t-66 24.5q-16 0 -26 -2t-29 -10l-24 47l120 106q-160 6 -292 59.5t-226 145.5t-145 218t-51 278z" />
<glyph unicode="&#xc8;" horiz-adv-x="1232" d="M74 0v76h22q41 0 66.5 9t41 31.5t21.5 62.5t6 102v90v624v90q0 61 -6 100.5t-21.5 62t-41 31.5t-66.5 9h-22v76q39 -2 70.5 -4t65.5 -4t76 -2h101h139l232 4h96t71.5 1t64.5 2t75 3l2 -45q2 -43 4 -69.5t4 -51t5 -54.5t7 -77l5 -33l-86 -10q-20 111 -50 158t-90 63 q-39 10 -101.5 16.5t-139.5 6.5q-72 0 -97.5 -5.5t-31.5 -21.5q-10 -27 -11 -127v-354h148q90 0 143 5t81 21.5t36 50t10 89.5h84q-2 -35 -4 -62.5t-4 -54.5t-2 -53.5v-61.5v-57.5t1 -46t3 -45t6 -53.5h-82q-2 53 -12 86.5t-38 52t-77 26t-127 7.5h-166v-334q0 -74 6.5 -118 t27 -68.5t57 -32t98.5 -7.5h98q152 0 227 56q39 29 68 76t59 135l80 -23q-25 -84 -47 -180t-33 -168q-63 2 -121.5 4t-119 3t-127 2t-148.5 1q-59 0 -122.5 -1t-145.5 -1q-53 0 -88 -1t-62.5 -2t-54 -2t-63.5 -3zM434 1597q-8 12 10 21l129 74l224 -187l-25 -41l-326 123 q-4 2 -6 4q-6 4 -6 6z" />
<glyph unicode="&#xc9;" horiz-adv-x="1232" d="M74 0v76h22q41 0 66.5 9t41 31.5t21.5 62.5t6 102v90v624v90q0 61 -6 100.5t-21.5 62t-41 31.5t-66.5 9h-22v76q39 -2 70.5 -4t65.5 -4t76 -2h101h139l232 4h96t71.5 1t64.5 2t75 3l2 -45q2 -43 4 -69.5t4 -51t5 -54.5t7 -77l5 -33l-86 -10q-20 111 -50 158t-90 63 q-39 10 -101.5 16.5t-139.5 6.5q-72 0 -97.5 -5.5t-31.5 -21.5q-10 -27 -11 -127v-354h148q90 0 143 5t81 21.5t36 50t10 89.5h84q-2 -35 -4 -62.5t-4 -54.5t-2 -53.5v-61.5v-57.5t1 -46t3 -45t6 -53.5h-82q-2 53 -12 86.5t-38 52t-77 26t-127 7.5h-166v-334q0 -74 6.5 -118 t27 -68.5t57 -32t98.5 -7.5h98q152 0 227 56q39 29 68 76t59 135l80 -23q-25 -84 -47 -180t-33 -168q-63 2 -121.5 4t-119 3t-127 2t-148.5 1q-59 0 -122.5 -1t-145.5 -1q-53 0 -88 -1t-62.5 -2t-54 -2t-63.5 -3zM483 1503l226 189l135 -78q14 -8 8 -19q-4 -6 -12 -8 l-330 -125z" />
<glyph unicode="&#xca;" horiz-adv-x="1232" d="M74 0v76h22q41 0 66.5 9t41 31.5t21.5 62.5t6 102v90v624v90q0 61 -6 100.5t-21.5 62t-41 31.5t-66.5 9h-22v76q39 -2 70.5 -4t65.5 -4t76 -2h101h139l232 4h96t71.5 1t64.5 2t75 3l2 -45q2 -43 4 -69.5t4 -51t5 -54.5t7 -77l5 -33l-86 -10q-20 111 -50 158t-90 63 q-39 10 -101.5 16.5t-139.5 6.5q-72 0 -97.5 -5.5t-31.5 -21.5q-10 -27 -11 -127v-354h148q90 0 143 5t81 21.5t36 50t10 89.5h84q-2 -35 -4 -62.5t-4 -54.5t-2 -53.5v-61.5v-57.5t1 -46t3 -45t6 -53.5h-82q-2 53 -12 86.5t-38 52t-77 26t-127 7.5h-166v-334q0 -74 6.5 -118 t27 -68.5t57 -32t98.5 -7.5h98q152 0 227 56q39 29 68 76t59 135l80 -23q-25 -84 -47 -180t-33 -168q-63 2 -121.5 4t-119 3t-127 2t-148.5 1q-59 0 -122.5 -1t-145.5 -1q-53 0 -88 -1t-62.5 -2t-54 -2t-63.5 -3zM444 1481l131 178l109 -2l127 -176l-35 -17l-149 105 l-148 -103z" />
<glyph unicode="&#xcb;" horiz-adv-x="1232" d="M74 0v76h22q41 0 66.5 9t41 31.5t21.5 62.5t6 102v90v624v90q0 61 -6 100.5t-21.5 62t-41 31.5t-66.5 9h-22v76q39 -2 70.5 -4t65.5 -4t76 -2h101h139l232 4h96t71.5 1t64.5 2t75 3l2 -45q2 -43 4 -69.5t4 -51t5 -54.5t7 -77l5 -33l-86 -10q-20 111 -50 158t-90 63 q-39 10 -101.5 16.5t-139.5 6.5q-72 0 -97.5 -5.5t-31.5 -21.5q-10 -27 -11 -127v-354h148q90 0 143 5t81 21.5t36 50t10 89.5h84q-2 -35 -4 -62.5t-4 -54.5t-2 -53.5v-61.5v-57.5t1 -46t3 -45t6 -53.5h-82q-2 53 -12 86.5t-38 52t-77 26t-127 7.5h-166v-334q0 -74 6.5 -118 t27 -68.5t57 -32t98.5 -7.5h98q152 0 227 56q39 29 68 76t59 135l80 -23q-25 -84 -47 -180t-33 -168q-63 2 -121.5 4t-119 3t-127 2t-148.5 1q-59 0 -122.5 -1t-145.5 -1q-53 0 -88 -1t-62.5 -2t-54 -2t-63.5 -3zM369 1561q0 41 28.5 69.5t69.5 28.5t69.5 -27.5t28.5 -68.5 t-28.5 -70t-69.5 -29t-69.5 28t-28.5 69zM655 1561q0 41 29 69.5t70 28.5t69.5 -27.5t28.5 -68.5t-28.5 -70t-69.5 -29t-70 28t-29 69z" />
<glyph unicode="&#xcc;" horiz-adv-x="716" d="M76 0v76h20q41 0 66.5 8t41 31.5t21.5 62.5t6 101v90v620v92q0 61 -6 102.5t-21.5 64t-41 31.5t-66.5 9h-20v76l78 -2q49 -2 82.5 -3t59.5 -2t45 -1h40h56.5t55 1t65.5 3t85 4v-76h-20q-41 0 -68 -9t-42 -31.5t-21.5 -63.5t-6.5 -103v-92v-620v-90q0 -61 6.5 -100.5 t21.5 -63t41 -31.5t67 -8h22v-76q-45 2 -79 4t-64.5 3t-62 1h-75.5h-73.5t-63 -1t-66.5 -3t-83 -4zM176 1597q-8 12 10 21l129 74l224 -187l-25 -41l-326 123q-4 2 -6 4q-6 4 -6 6z" />
<glyph unicode="&#xcd;" horiz-adv-x="716" d="M76 0v76h20q41 0 66.5 8t41 31.5t21.5 62.5t6 101v90v620v92q0 61 -6 102.5t-21.5 64t-41 31.5t-66.5 9h-20v76l78 -2q49 -2 82.5 -3t59.5 -2t45 -1h40h56.5t55 1t65.5 3t85 4v-76h-20q-41 0 -68 -9t-42 -31.5t-21.5 -63.5t-6.5 -103v-92v-620v-90q0 -61 6.5 -100.5 t21.5 -63t41 -31.5t67 -8h22v-76q-45 2 -79 4t-64.5 3t-62 1h-75.5h-73.5t-63 -1t-66.5 -3t-83 -4zM178 1507l225 189l136 -78q14 -8 8 -19q-4 -6 -12 -8l-330 -125z" />
<glyph unicode="&#xce;" horiz-adv-x="716" d="M76 0v76h20q41 0 66.5 8t41 31.5t21.5 62.5t6 101v90v620v92q0 61 -6 102.5t-21.5 64t-41 31.5t-66.5 9h-20v76l78 -2q49 -2 82.5 -3t59.5 -2t45 -1h40h56.5t55 1t65.5 3t85 4v-76h-20q-41 0 -68 -9t-42 -31.5t-21.5 -63.5t-6.5 -103v-92v-620v-90q0 -61 6.5 -100.5 t21.5 -63t41 -31.5t67 -8h22v-76q-45 2 -79 4t-64.5 3t-62 1h-75.5h-73.5t-63 -1t-66.5 -3t-83 -4zM182 1483l131 178l109 -2l127 -176l-35 -17l-149 105l-148 -103z" />
<glyph unicode="&#xcf;" horiz-adv-x="716" d="M76 0v76h20q41 0 66.5 8t41 31.5t21.5 62.5t6 101v90v620v92q0 61 -6 102.5t-21.5 64t-41 31.5t-66.5 9h-20v76l78 -2q49 -2 82.5 -3t59.5 -2t45 -1h40h56.5t55 1t65.5 3t85 4v-76h-20q-41 0 -68 -9t-42 -31.5t-21.5 -63.5t-6.5 -103v-92v-620v-90q0 -61 6.5 -100.5 t21.5 -63t41 -31.5t67 -8h22v-76q-45 2 -79 4t-64.5 3t-62 1h-75.5h-73.5t-63 -1t-66.5 -3t-83 -4zM125 1561q0 41 28.5 69.5t69.5 28.5t70 -27.5t29 -68.5t-29 -70t-70 -29t-69.5 28t-28.5 69zM412 1561q0 41 28.5 69.5t69.5 28.5t69.5 -27.5t28.5 -68.5t-28.5 -70 t-69.5 -29t-69.5 28t-28.5 69z" />
<glyph unicode="&#xd1;" horiz-adv-x="1632" d="M61 0v76h17q47 2 74.5 9t43 28.5t20.5 60.5t7 105l2 88v665q0 80 -5 129t-18.5 76t-39 37t-68.5 12l-33 2v76q31 -2 54.5 -4t45 -4t44 -2h53.5h51.5t44 2t45 4t56.5 4l26 -31l68 -80l90 -106l61 -70l590 -678v609q0 88 -6 142t-23.5 84t-50 41t-86.5 13v76q37 -2 66 -4 t53.5 -4t49 -2h57.5h55.5t49 2t53 4t67.5 4v-76q-49 0 -79 -7t-45 -30.5t-20.5 -67.5t-7.5 -118l-2 -82l-10 -657v-125v-160v-55h-104q-31 41 -54.5 71.5t-48 61.5t-55.5 65.5t-76 85.5l-725 830l14 -783q0 -74 5.5 -118.5t19.5 -70.5t39 -36t63 -14h10.5t16.5 -2v-76 q-41 2 -70.5 4t-54 3t-46 1h-46.5q-33 0 -66.5 -1t-87.5 -3zM588 1470q10 98 35.5 142.5t74.5 44.5q14 0 39 -7.5t84 -27.5q59 -18 76.5 -23.5t34.5 -5.5q45 0 59 54l53 2q-6 -98 -34.5 -142.5t-85.5 -44.5q-18 0 -37 4t-72 25q-41 16 -70.5 22.5t-46.5 6.5q-41 0 -57 -52z " />
<glyph unicode="&#xd2;" horiz-adv-x="1636" d="M70 674q0 158 57 291t158.5 229t243 150.5t307.5 54.5q158 0 292 -53.5t231 -146.5t151.5 -222t54.5 -283q0 -162 -55.5 -295t-156 -229t-239.5 -149.5t-307 -53.5q-162 0 -297 52.5t-233.5 145.5t-152.5 223t-54 286zM348 688q0 -135 36 -247.5t100.5 -195.5t152.5 -129 t192 -46q102 0 186.5 44t144 123.5t93 191.5t33.5 245q0 135 -34.5 248.5t-96 194.5t-147.5 127t-191 46q-102 0 -188 -44t-148.5 -124t-97.5 -190.5t-35 -243.5zM635 1602q-8 12 10 20l129 74l223 -187l-24 -41l-326 123q-4 2 -6 4q-6 4 -6 7z" />
<glyph unicode="&#xd3;" horiz-adv-x="1636" d="M70 674q0 158 57 291t158.5 229t243 150.5t307.5 54.5q158 0 292 -53.5t231 -146.5t151.5 -222t54.5 -283q0 -162 -55.5 -295t-156 -229t-239.5 -149.5t-307 -53.5q-162 0 -297 52.5t-233.5 145.5t-152.5 223t-54 286zM348 688q0 -135 36 -247.5t100.5 -195.5t152.5 -129 t192 -46q102 0 186.5 44t144 123.5t93 191.5t33.5 245q0 135 -34.5 248.5t-96 194.5t-147.5 127t-191 46q-102 0 -188 -44t-148.5 -124t-97.5 -190.5t-35 -243.5zM637 1509l225 189l135 -78q14 -8 9 -18q-4 -6 -13 -9l-329 -125z" />
<glyph unicode="&#xd4;" horiz-adv-x="1636" d="M70 674q0 158 57 291t158.5 229t243 150.5t307.5 54.5q158 0 292 -53.5t231 -146.5t151.5 -222t54.5 -283q0 -162 -55.5 -295t-156 -229t-239.5 -149.5t-307 -53.5q-162 0 -297 52.5t-233.5 145.5t-152.5 223t-54 286zM348 688q0 -135 36 -247.5t100.5 -195.5t152.5 -129 t192 -46q102 0 186.5 44t144 123.5t93 191.5t33.5 245q0 135 -34.5 248.5t-96 194.5t-147.5 127t-191 46q-102 0 -188 -44t-148.5 -124t-97.5 -190.5t-35 -243.5zM662 1481l131 178l108 -2l127 -176l-35 -17l-149 105l-148 -103z" />
<glyph unicode="&#xd5;" horiz-adv-x="1636" d="M70 674q0 158 57 291t158.5 229t243 150.5t307.5 54.5q158 0 292 -53.5t231 -146.5t151.5 -222t54.5 -283q0 -162 -55.5 -295t-156 -229t-239.5 -149.5t-307 -53.5q-162 0 -297 52.5t-233.5 145.5t-152.5 223t-54 286zM348 688q0 -135 36 -247.5t100.5 -195.5t152.5 -129 t192 -46q102 0 186.5 44t144 123.5t93 191.5t33.5 245q0 135 -34.5 248.5t-96 194.5t-147.5 127t-191 46q-102 0 -188 -44t-148.5 -124t-97.5 -190.5t-35 -243.5zM623 1475q10 98 35.5 142t74.5 44q14 0 39 -7t84 -28q59 -18 76.5 -23.5t34.5 -5.5q45 0 59 54l53 2 q-6 -98 -34.5 -142.5t-86.5 -44.5q-18 0 -36.5 4.5t-71.5 24.5q-41 16 -70.5 22.5t-46.5 6.5q-41 0 -57 -51z" />
<glyph unicode="&#xd6;" horiz-adv-x="1636" d="M70 674q0 158 57 291t158.5 229t243 150.5t307.5 54.5q158 0 292 -53.5t231 -146.5t151.5 -222t54.5 -283q0 -162 -55.5 -295t-156 -229t-239.5 -149.5t-307 -53.5q-162 0 -297 52.5t-233.5 145.5t-152.5 223t-54 286zM348 688q0 -135 36 -247.5t100.5 -195.5t152.5 -129 t192 -46q102 0 186.5 44t144 123.5t93 191.5t33.5 245q0 135 -34.5 248.5t-96 194.5t-147.5 127t-191 46q-102 0 -188 -44t-148.5 -124t-97.5 -190.5t-35 -243.5zM559 1550q0 41 28.5 70t69.5 29t70 -28t29 -69t-29 -69.5t-70 -28.5t-69.5 27.5t-28.5 68.5zM846 1550 q0 41 28.5 70t69.5 29t69.5 -28t28.5 -69t-28.5 -69.5t-69.5 -28.5t-69.5 27.5t-28.5 68.5z" />
<glyph unicode="&#xd8;" horiz-adv-x="1636" d="M70 662q0 164 56 299t157.5 232t243 151.5t309.5 54.5q190 0 358 -76l104 150l91 -64l-103 -145q141 -113 210 -251.5t69 -316.5q0 -162 -55.5 -297t-156 -230t-240.5 -148.5t-308 -53.5q-51 0 -95 4t-87 13.5t-88.5 25t-98.5 35.5l-108 -149l-90 65l104 143 q-272 205 -272 558zM348 688q0 -119 31 -226.5t88 -195.5l623 920q-63 53 -129 77.5t-144 24.5q-102 0 -188 -45t-148.5 -125t-97.5 -189.5t-35 -240.5zM543 182q74 -59 142.5 -85.5t145.5 -26.5q100 0 184.5 45t145 124.5t94 191.5t33.5 243q0 123 -32.5 236.5t-92.5 189.5 z" />
<glyph unicode="&#xd9;" horiz-adv-x="1546" d="M59 1288v76q37 -2 64 -4t51.5 -4t53 -2h69.5h85t76 2t77.5 4t89.5 4v-76h-29q-41 0 -67.5 -9t-42 -31.5t-21.5 -61.5t-6 -101v-90v-415q0 -135 15 -217t50 -136q45 -70 123 -108.5t170 -38.5q106 0 197.5 49t138.5 131q18 33 30.5 69t19.5 83t10.5 108.5t3.5 145.5v260 v131q0 70 -6.5 113.5t-25 69.5t-50 36t-82.5 12v76l63 -4q111 -6 174 -6h48.5t44 2t52 4t70.5 4v-76h-22q-43 0 -70 -11t-41 -46t-19 -99.5t-5 -173.5v-294q0 -78 -4.5 -161t-12.5 -134q-8 -49 -27.5 -98.5t-52.5 -94.5q-74 -104 -201.5 -156.5t-295.5 -52.5 q-180 0 -312.5 64.5t-187.5 181.5q-14 33 -24.5 67.5t-16.5 78.5t-8 102.5t-2 138.5v395v90q0 61 -6.5 100.5t-21.5 62t-40.5 31.5t-66.5 9h-9zM641 1602q-8 12 10 20l129 74l224 -187l-25 -41l-326 123q-4 2 -6 4q-6 4 -6 7z" />
<glyph unicode="&#xda;" horiz-adv-x="1546" d="M59 1288v76q37 -2 64 -4t51.5 -4t53 -2h69.5h85t76 2t77.5 4t89.5 4v-76h-29q-41 0 -67.5 -9t-42 -31.5t-21.5 -61.5t-6 -101v-90v-415q0 -135 15 -217t50 -136q45 -70 123 -108.5t170 -38.5q106 0 197.5 49t138.5 131q18 33 30.5 69t19.5 83t10.5 108.5t3.5 145.5v260 v131q0 70 -6.5 113.5t-25 69.5t-50 36t-82.5 12v76l63 -4q111 -6 174 -6h48.5t44 2t52 4t70.5 4v-76h-22q-43 0 -70 -11t-41 -46t-19 -99.5t-5 -173.5v-294q0 -78 -4.5 -161t-12.5 -134q-8 -49 -27.5 -98.5t-52.5 -94.5q-74 -104 -201.5 -156.5t-295.5 -52.5 q-180 0 -312.5 64.5t-187.5 181.5q-14 33 -24.5 67.5t-16.5 78.5t-8 102.5t-2 138.5v395v90q0 61 -6.5 100.5t-21.5 62t-40.5 31.5t-66.5 9h-9zM631 1509l225 189l135 -78q14 -8 8 -18q-4 -6 -12 -9l-330 -125z" />
<glyph unicode="&#xdb;" horiz-adv-x="1546" d="M59 1288v76q37 -2 64 -4t51.5 -4t53 -2h69.5h85t76 2t77.5 4t89.5 4v-76h-29q-41 0 -67.5 -9t-42 -31.5t-21.5 -61.5t-6 -101v-90v-415q0 -135 15 -217t50 -136q45 -70 123 -108.5t170 -38.5q106 0 197.5 49t138.5 131q18 33 30.5 69t19.5 83t10.5 108.5t3.5 145.5v260 v131q0 70 -6.5 113.5t-25 69.5t-50 36t-82.5 12v76l63 -4q111 -6 174 -6h48.5t44 2t52 4t70.5 4v-76h-22q-43 0 -70 -11t-41 -46t-19 -99.5t-5 -173.5v-294q0 -78 -4.5 -161t-12.5 -134q-8 -49 -27.5 -98.5t-52.5 -94.5q-74 -104 -201.5 -156.5t-295.5 -52.5 q-180 0 -312.5 64.5t-187.5 181.5q-14 33 -24.5 67.5t-16.5 78.5t-8 102.5t-2 138.5v395v90q0 61 -6.5 100.5t-21.5 62t-40.5 31.5t-66.5 9h-9zM659 1479l132 178l108 -2l127 -176l-35 -17l-149 105l-148 -103z" />
<glyph unicode="&#xdc;" horiz-adv-x="1546" d="M59 1288v76q37 -2 64 -4t51.5 -4t53 -2h69.5h85t76 2t77.5 4t89.5 4v-76h-29q-41 0 -67.5 -9t-42 -31.5t-21.5 -61.5t-6 -101v-90v-415q0 -135 15 -217t50 -136q45 -70 123 -108.5t170 -38.5q106 0 197.5 49t138.5 131q18 33 30.5 69t19.5 83t10.5 108.5t3.5 145.5v260 v131q0 70 -6.5 113.5t-25 69.5t-50 36t-82.5 12v76l63 -4q111 -6 174 -6h48.5t44 2t52 4t70.5 4v-76h-22q-43 0 -70 -11t-41 -46t-19 -99.5t-5 -173.5v-294q0 -78 -4.5 -161t-12.5 -134q-8 -49 -27.5 -98.5t-52.5 -94.5q-74 -104 -201.5 -156.5t-295.5 -52.5 q-180 0 -312.5 64.5t-187.5 181.5q-14 33 -24.5 67.5t-16.5 78.5t-8 102.5t-2 138.5v395v90q0 61 -6.5 100.5t-21.5 62t-40.5 31.5t-66.5 9h-9zM588 1554q0 41 28.5 70t69.5 29t69.5 -28t28.5 -69t-28.5 -69.5t-69.5 -28.5t-69.5 27.5t-28.5 68.5zM874 1554q0 41 29 70 t70 29t69.5 -28t28.5 -69t-28.5 -69.5t-69.5 -28.5t-70 27.5t-29 68.5z" />
<glyph unicode="&#xdf;" horiz-adv-x="1124" d="M74 0v76h12q109 0 109 96l2 55v23v502h-123l6 71q39 4 61.5 10.5t34.5 18.5t16.5 34.5t6.5 61.5q6 127 38.5 208t106.5 155q139 139 318 139q72 0 131 -20.5t102 -58.5t67.5 -89t24.5 -113q0 -35 -6 -65.5t-23.5 -64t-46 -72.5t-71.5 -90q-39 -45 -51.5 -64.5 t-12.5 -42.5q0 -27 24.5 -65.5t94.5 -124.5l86 -105q53 -66 77.5 -120t24.5 -111q0 -117 -82.5 -190.5t-214.5 -73.5q-53 0 -102 14t-86 38.5t-58.5 57.5t-21.5 70q0 39 57 65q31 14 60 15q47 0 63 -50l17 -43q18 -49 38.5 -69.5t53.5 -20.5q41 0 65.5 24.5t24.5 61.5 q0 16 -5 33t-20.5 41.5t-42 59t-69.5 88.5q-57 68 -92 111.5t-53.5 72.5t-24.5 47t-6 37q0 37 37 86l47 61q70 90 97.5 163t27.5 165q0 123 -48.5 194.5t-132.5 71.5q-59 0 -104 -41t-62 -108q-6 -27 -10 -49.5t-5 -53t-2 -77t-1 -119.5v-926q-68 4 -98.5 6t-65.5 2 q-23 0 -51.5 -1t-65.5 -3z" />
<glyph unicode="&#xe0;" horiz-adv-x="911" d="M74 193q0 45 10 76.5t39 58t80 51t131 55.5l143 55l41 15v84q0 182 -108 182q-57 0 -97.5 -34t-42.5 -85q0 -43 -44 -74.5t-103 -31.5q-16 0 -23.5 9t-7.5 36q0 31 5 51.5t26.5 44t64.5 54t119 79.5q70 45 106 61.5t64 16.5q129 0 196.5 -68.5t67.5 -201.5v-389 q0 -74 7.5 -95.5t33.5 -21.5q10 0 20.5 4t28.5 16l37 -53q-43 -51 -99 -79.5t-110 -28.5q-59 0 -92 28t-49 94q-106 -123 -246 -122q-92 0 -145 57t-53 156zM270 1096q-8 12 11 20l129 74l223 -186l-25 -41l-325 122q-4 2 -7 5q-6 4 -6 6zM295 242q0 -119 90 -119 q72 0 133 55v242q-72 -27 -116 -47.5t-67.5 -40t-31.5 -40t-8 -50.5z" />
<glyph unicode="&#xe1;" horiz-adv-x="911" d="M74 193q0 45 10 76.5t39 58t80 51t131 55.5l143 55l41 15v84q0 182 -108 182q-57 0 -97.5 -34t-42.5 -85q0 -43 -44 -74.5t-103 -31.5q-16 0 -23.5 9t-7.5 36q0 31 5 51.5t26.5 44t64.5 54t119 79.5q70 45 106 61.5t64 16.5q129 0 196.5 -68.5t67.5 -201.5v-389 q0 -74 7.5 -95.5t33.5 -21.5q10 0 20.5 4t28.5 16l37 -53q-43 -51 -99 -79.5t-110 -28.5q-59 0 -92 28t-49 94q-106 -123 -246 -122q-92 0 -145 57t-53 156zM270 1010l226 188l135 -78q14 -8 8 -18q-4 -6 -12 -8l-330 -125zM295 242q0 -119 90 -119q72 0 133 55v242 q-72 -27 -116 -47.5t-67.5 -40t-31.5 -40t-8 -50.5z" />
<glyph unicode="&#xe2;" horiz-adv-x="911" d="M74 193q0 45 10 76.5t39 58t80 51t131 55.5l143 55l41 15v84q0 182 -108 182q-57 0 -97.5 -34t-42.5 -85q0 -43 -44 -74.5t-103 -31.5q-16 0 -23.5 9t-7.5 36q0 31 5 51.5t26.5 44t64.5 54t119 79.5q70 45 106 61.5t64 16.5q129 0 196.5 -68.5t67.5 -201.5v-389 q0 -74 7.5 -95.5t33.5 -21.5q10 0 20.5 4t28.5 16l37 -53q-43 -51 -99 -79.5t-110 -28.5q-59 0 -92 28t-49 94q-106 -123 -246 -122q-92 0 -145 57t-53 156zM254 977l131 178l109 -2l127 -176l-35 -16l-150 104l-147 -102zM295 242q0 -119 90 -119q72 0 133 55v242 q-72 -27 -116 -47.5t-67.5 -40t-31.5 -40t-8 -50.5z" />
<glyph unicode="&#xe3;" horiz-adv-x="911" d="M74 193q0 45 10 76.5t39 58t80 51t131 55.5l143 55l41 15v84q0 182 -108 182q-57 0 -97.5 -34t-42.5 -85q0 -43 -44 -74.5t-103 -31.5q-16 0 -23.5 9t-7.5 36q0 31 5 51.5t26.5 44t64.5 54t119 79.5q70 45 106 61.5t64 16.5q129 0 196.5 -68.5t67.5 -201.5v-389 q0 -74 7.5 -95.5t33.5 -21.5q10 0 20.5 4t28.5 16l37 -53q-43 -51 -99 -79.5t-110 -28.5q-59 0 -92 28t-49 94q-106 -123 -246 -122q-92 0 -145 57t-53 156zM205 963q10 98 35.5 142t74.5 44q14 0 39 -7t84 -28q59 -18 76.5 -23.5t34.5 -5.5q45 0 59 54l54 2 q-6 -98 -35 -142.5t-86 -44.5q-18 0 -37 4.5t-72 24.5q-41 16 -70.5 22.5t-46.5 6.5q-41 0 -57 -51zM295 242q0 -119 90 -119q72 0 133 55v242q-72 -27 -116 -47.5t-67.5 -40t-31.5 -40t-8 -50.5z" />
<glyph unicode="&#xe4;" horiz-adv-x="911" d="M74 193q0 45 10 76.5t39 58t80 51t131 55.5l143 55l41 15v84q0 182 -108 182q-57 0 -97.5 -34t-42.5 -85q0 -43 -44 -74.5t-103 -31.5q-16 0 -23.5 9t-7.5 36q0 31 5 51.5t26.5 44t64.5 54t119 79.5q70 45 106 61.5t64 16.5q129 0 196.5 -68.5t67.5 -201.5v-389 q0 -74 7.5 -95.5t33.5 -21.5q10 0 20.5 4t28.5 16l37 -53q-43 -51 -99 -79.5t-110 -28.5q-59 0 -92 28t-49 94q-106 -123 -246 -122q-92 0 -145 57t-53 156zM205 1053q0 41 28.5 69.5t69.5 28.5t69.5 -27.5t28.5 -68.5t-28.5 -70t-69.5 -29t-69.5 28t-28.5 69zM295 242 q0 -119 90 -119q72 0 133 55v242q-72 -27 -116 -47.5t-67.5 -40t-31.5 -40t-8 -50.5zM492 1053q0 41 28.5 69.5t69.5 28.5t69.5 -27.5t28.5 -68.5t-28.5 -70t-69.5 -29t-69.5 28t-28.5 69z" />
<glyph unicode="&#xe5;" horiz-adv-x="911" d="M74 193q0 45 10 76.5t39 58t80 51t131 55.5l143 55l41 15v84q0 182 -108 182q-57 0 -97.5 -34t-42.5 -85q0 -43 -44 -74.5t-103 -31.5q-16 0 -23.5 9t-7.5 36q0 31 5 51.5t26.5 44t64.5 54t119 79.5q70 45 106 61.5t64 16.5q129 0 196.5 -68.5t67.5 -201.5v-389 q0 -74 7.5 -95.5t33.5 -21.5q10 0 20.5 4t28.5 16l37 -53q-43 -51 -99 -79.5t-110 -28.5q-59 0 -92 28t-49 94q-106 -123 -246 -122q-92 0 -145 57t-53 156zM295 242q0 -119 90 -119q72 0 133 55v242q-72 -27 -116 -47.5t-67.5 -40t-31.5 -40t-8 -50.5zM338 1077q0 53 37 91 t90 38t89 -36.5t36 -90.5q0 -51 -37 -87t-90 -36q-51 0 -88 36t-37 85zM401 1081q0 -27 17.5 -45t46.5 -18q25 0 43 17.5t18 41.5q0 29 -18 49.5t-45 20.5t-44.5 -19.5t-17.5 -46.5z" />
<glyph unicode="&#xe6;" horiz-adv-x="1290" d="M74 193q0 41 12 72.5t42 59t80 52t128 53.5l168 62v32q0 74 -5 120t-17.5 72.5t-35 37t-57.5 10.5q-47 0 -81 -26.5t-40 -67.5q-4 -25 -10 -32t-29 -17l-71 -25q-12 -4 -21.5 -6t-15.5 -2q-23 0 -23 37q0 94 113 151q121 59 175 83t71 24h16l21 -4q115 -19 168 -119 q117 117 280 117q53 0 100.5 -16.5t83 -44.5t57 -63.5t21.5 -76.5q0 -43 -57 -64l-432 -145q-2 -10 -2 -16.5v-10.5q0 -154 72.5 -241.5t195.5 -87.5q59 0 107.5 19.5t115.5 72.5l45 -53q-86 -86 -184 -128t-205 -42q-92 0 -171 38.5t-126 108.5q-66 -82 -125 -114.5 t-137 -32.5q-104 0 -165.5 57t-61.5 156zM281 219q0 -49 27.5 -79.5t74.5 -30.5q41 0 81 21.5t75 57.5q-16 51 -24.5 102.5t-8.5 117.5l-78 -29q-147 -53 -147 -160zM715 547l188 63q100 31 101 78q0 43 -33 69.5t-82 26.5q-80 0 -125 -60t-49 -177z" />
<glyph unicode="&#xe7;" horiz-adv-x="860" d="M63 410q0 102 34 188t95.5 147.5t145.5 96.5t184 35q57 0 110.5 -13.5t93.5 -36t64.5 -52.5t24.5 -62q0 -37 -43 -58q-39 -23 -67 -22q-31 0 -48 26l-22 33q-63 100 -156 101q-86 0 -136 -72t-50 -193q0 -86 20.5 -158.5t56.5 -124.5t86 -82t107 -30q59 0 117.5 23.5 t130.5 74.5l43 -57q-51 -66 -134 -117t-165 -67l-78 -82q14 2 24.5 2h16.5q72 0 114 -39t42 -104q0 -78 -58.5 -123t-156.5 -45q-78 0 -132.5 30.5t-54.5 73.5q0 23 17.5 38t40.5 15q18 0 26.5 -8t22.5 -39q20 -43 61 -43q29 0 47.5 22.5t18.5 55.5q0 41 -25.5 65.5 t-66.5 24.5q-12 0 -22.5 -2t-31.5 -10l-22 43l125 117q-186 10 -293 123.5t-107 304.5z" />
<glyph unicode="&#xe8;" horiz-adv-x="872" d="M63 414q0 104 32 189t89.5 145.5t137 94.5t178.5 34q143 0 230 -72t87 -189q0 -43 -15.5 -56t-62.5 -13h-444q-2 -10 -2 -19.5v-19.5q0 -86 20.5 -155.5t57.5 -120t89 -78t115 -27.5q25 0 46.5 4t45 13.5t51 25.5t64.5 41l49 -55q-86 -92 -174 -134t-196 -42 q-88 0 -162 31.5t-126 88t-81 136t-29 178.5zM266 1096q-8 12 10 20l130 74l223 -186l-25 -41l-325 122q-4 2 -7 5q-6 4 -6 6zM305 629h215h43q47 0 47 49t-35.5 82t-91.5 33q-143 0 -178 -164z" />
<glyph unicode="&#xe9;" horiz-adv-x="872" d="M63 414q0 104 32 189t89.5 145.5t137 94.5t178.5 34q143 0 230 -72t87 -189q0 -43 -15.5 -56t-62.5 -13h-444q-2 -10 -2 -19.5v-19.5q0 -86 20.5 -155.5t57.5 -120t89 -78t115 -27.5q25 0 46.5 4t45 13.5t51 25.5t64.5 41l49 -55q-86 -92 -174 -134t-196 -42 q-88 0 -162 31.5t-126 88t-81 136t-29 178.5zM293 1010l225 188l135 -78q14 -8 9 -18q-4 -6 -13 -8l-330 -125zM305 629h215h43q47 0 47 49t-35.5 82t-91.5 33q-143 0 -178 -164z" />
<glyph unicode="&#xea;" horiz-adv-x="872" d="M63 414q0 104 32 189t89.5 145.5t137 94.5t178.5 34q143 0 230 -72t87 -189q0 -43 -15.5 -56t-62.5 -13h-444q-2 -10 -2 -19.5v-19.5q0 -86 20.5 -155.5t57.5 -120t89 -78t115 -27.5q25 0 46.5 4t45 13.5t51 25.5t64.5 41l49 -55q-86 -92 -174 -134t-196 -42 q-88 0 -162 31.5t-126 88t-81 136t-29 178.5zM276 977l132 178l108 -2l127 -176l-35 -16l-149 104l-148 -102zM305 629h215h43q47 0 47 49t-35.5 82t-91.5 33q-143 0 -178 -164z" />
<glyph unicode="&#xeb;" horiz-adv-x="872" d="M63 414q0 104 32 189t89.5 145.5t137 94.5t178.5 34q143 0 230 -72t87 -189q0 -43 -15.5 -56t-62.5 -13h-444q-2 -10 -2 -19.5v-19.5q0 -86 20.5 -155.5t57.5 -120t89 -78t115 -27.5q25 0 46.5 4t45 13.5t51 25.5t64.5 41l49 -55q-86 -92 -174 -134t-196 -42 q-88 0 -162 31.5t-126 88t-81 136t-29 178.5zM215 1049q0 41 28.5 69.5t69.5 28.5t70 -27.5t29 -68.5t-29 -70t-70 -29t-69.5 28t-28.5 69zM305 629h215h43q47 0 47 49t-35.5 82t-91.5 33q-143 0 -178 -164zM502 1049q0 41 28.5 69.5t69.5 28.5t69.5 -27.5t28.5 -68.5 t-28.5 -70t-69.5 -29t-69.5 28t-28.5 69z" />
<glyph unicode="&#xec;" horiz-adv-x="610" d="M70 1090q-8 12 10 20l129 74l223 -187l-24 -41l-326 123q-4 2 -6 4q-6 4 -6 7zM74 0v76h14q35 0 56.5 6t32.5 24.5t15.5 53.5t4.5 90v166v65q0 78 -2 123t-13.5 67.5t-33 28t-58.5 5.5h-14v73q174 31 307 125l59 -31q-4 -49 -7 -86.5t-5 -72.5t-3 -73t-1 -91v-299l2 -23 l2 -55q2 -53 23.5 -72.5t85.5 -23.5v-76q-82 4 -128 6t-100 2q-53 0 -101 -2t-136 -6z" />
<glyph unicode="&#xed;" horiz-adv-x="610" d="M74 0v76h14q35 0 56.5 6t32.5 24.5t15.5 53.5t4.5 90v166v65q0 78 -2 123t-13.5 67.5t-33 28t-58.5 5.5h-14v73q174 31 307 125l59 -31q-4 -49 -7 -86.5t-5 -72.5t-3 -73t-1 -91v-299l2 -23l2 -55q2 -53 23.5 -72.5t85.5 -23.5v-76q-82 4 -128 6t-100 2q-53 0 -101 -2 t-136 -6zM96 1001l226 189l135 -78q14 -8 8 -18q-4 -6 -12 -9l-330 -124z" />
<glyph unicode="&#xee;" horiz-adv-x="610" d="M74 0v76h14q35 0 56.5 6t32.5 24.5t15.5 53.5t4.5 90v166v65q0 78 -2 123t-13.5 67.5t-33 28t-58.5 5.5h-14v73q174 31 307 125l59 -31q-4 -49 -7 -86.5t-5 -72.5t-3 -73t-1 -91v-299l2 -23l2 -55q2 -53 23.5 -72.5t85.5 -23.5v-76q-82 4 -128 6t-100 2q-53 0 -101 -2 t-136 -6zM102 975l131 178l109 -2l127 -176l-35 -17l-149 105l-148 -102z" />
<glyph unicode="&#xef;" horiz-adv-x="610" d="M29 1057q0 41 28.5 69.5t69.5 28.5t69.5 -27.5t28.5 -68.5t-28.5 -69.5t-69.5 -28.5t-69.5 27.5t-28.5 68.5zM74 0v76h14q35 0 56.5 6t32.5 24.5t15.5 53.5t4.5 90v166v65q0 78 -2 123t-13.5 67.5t-33 28t-58.5 5.5h-14v73q174 31 307 125l59 -31q-4 -49 -7 -86.5 t-5 -72.5t-3 -73t-1 -91v-299l2 -23l2 -55q2 -53 23.5 -72.5t85.5 -23.5v-76q-82 4 -128 6t-100 2q-53 0 -101 -2t-136 -6zM315 1057q0 41 29 69.5t70 28.5t69.5 -27.5t28.5 -68.5t-28.5 -69.5t-69.5 -28.5t-70 27.5t-29 68.5z" />
<glyph unicode="&#xf1;" horiz-adv-x="1169" d="M74 0v76h14q57 0 81 21.5t26 74.5l2 55v23v166v65q0 78 -2 123t-13.5 67.5t-33 28t-58.5 5.5h-14v73q174 31 307 125l59 -31l-4 -22l-10 -68l-4 -22q90 53 169 85t116 32q90 0 156.5 -35t97.5 -101q31 -61 30 -198v-293v-23l2 -55q2 -51 24.5 -73.5t76.5 -22.5h6v-76 q-47 2 -79 4t-56.5 3t-45 1h-42.5h-41t-47.5 -1t-63.5 -3t-90 -4v76h14q59 0 83 21.5t26 74.5l2 55v23v295q0 100 -33 144t-106 44q-43 0 -95.5 -14t-103.5 -41v-428l2 -23v-55q2 -53 26.5 -74.5t82.5 -21.5h18v-76q-49 2 -84 4t-59.5 3t-45 1h-42.5q-55 0 -177 -6zM309 965 q10 98 36 142t75 44q14 0 38.5 -7t84.5 -28q59 -18 76.5 -23.5t33.5 -5.5q45 0 60 54l53 2q-6 -98 -35 -142.5t-86 -44.5q-18 0 -36.5 4.5t-71.5 24.5q-41 16 -71 22.5t-46 6.5q-41 0 -58 -51z" />
<glyph unicode="&#xf2;" horiz-adv-x="1042" d="M63 428q0 98 35 183t96.5 147.5t145.5 97.5t182 35q102 0 186.5 -33t143.5 -92t93 -141t34 -183q0 -100 -35 -185t-97.5 -146.5t-148.5 -96t-188 -34.5q-100 0 -182 32.5t-140.5 91t-91.5 141.5t-33 183zM313 463q0 -184 57.5 -288.5t157.5 -104.5q98 0 150.5 90 t52.5 258q0 174 -60.5 277.5t-158.5 103.5q-96 0 -147.5 -87t-51.5 -249zM328 1096q-8 12 10 20l129 74l223 -186l-24 -41l-326 122q-4 2 -6 5q-6 4 -6 6z" />
<glyph unicode="&#xf3;" horiz-adv-x="1042" d="M63 428q0 98 35 183t96.5 147.5t145.5 97.5t182 35q102 0 186.5 -33t143.5 -92t93 -141t34 -183q0 -100 -35 -185t-97.5 -146.5t-148.5 -96t-188 -34.5q-100 0 -182 32.5t-140.5 91t-91.5 141.5t-33 183zM313 463q0 -184 57.5 -288.5t157.5 -104.5q98 0 150.5 90 t52.5 258q0 174 -60.5 277.5t-158.5 103.5q-96 0 -147.5 -87t-51.5 -249zM336 1004l225 188l135 -78q14 -8 9 -18q-4 -6 -13 -9l-330 -124z" />
<glyph unicode="&#xf4;" horiz-adv-x="1042" d="M63 428q0 98 35 183t96.5 147.5t145.5 97.5t182 35q102 0 186.5 -33t143.5 -92t93 -141t34 -183q0 -100 -35 -185t-97.5 -146.5t-148.5 -96t-188 -34.5q-100 0 -182 32.5t-140.5 91t-91.5 141.5t-33 183zM313 463q0 -184 57.5 -288.5t157.5 -104.5q98 0 150.5 90 t52.5 258q0 174 -60.5 277.5t-158.5 103.5q-96 0 -147.5 -87t-51.5 -249zM336 975l131 178l108 -2l127 -176l-34 -17l-150 105l-147 -102z" />
<glyph unicode="&#xf5;" horiz-adv-x="1042" d="M63 428q0 98 35 183t96.5 147.5t145.5 97.5t182 35q102 0 186.5 -33t143.5 -92t93 -141t34 -183q0 -100 -35 -185t-97.5 -146.5t-148.5 -96t-188 -34.5q-100 0 -182 32.5t-140.5 91t-91.5 141.5t-33 183zM293 965q10 98 35.5 142t74.5 44q14 0 39 -7t84 -28 q59 -18 77 -23.5t34 -5.5q45 0 59 54l54 2q-6 -98 -35 -142.5t-86 -44.5q-18 0 -37 4.5t-72 24.5q-41 16 -70.5 22.5t-46.5 6.5q-41 0 -57 -51zM313 463q0 -184 57.5 -288.5t157.5 -104.5q98 0 150.5 90t52.5 258q0 174 -60.5 277.5t-158.5 103.5q-96 0 -147.5 -87 t-51.5 -249z" />
<glyph unicode="&#xf6;" horiz-adv-x="1042" d="M63 428q0 98 35 183t96.5 147.5t145.5 97.5t182 35q102 0 186.5 -33t143.5 -92t93 -141t34 -183q0 -100 -35 -185t-97.5 -146.5t-148.5 -96t-188 -34.5q-100 0 -182 32.5t-140.5 91t-91.5 141.5t-33 183zM264 1057q0 41 28.5 69.5t69.5 28.5t70 -27.5t29 -68.5t-29 -69.5 t-70 -28.5t-69.5 27.5t-28.5 68.5zM313 463q0 -184 57.5 -288.5t157.5 -104.5q98 0 150.5 90t52.5 258q0 174 -60.5 277.5t-158.5 103.5q-96 0 -147.5 -87t-51.5 -249zM551 1057q0 41 28.5 69.5t69.5 28.5t70 -27.5t29 -68.5t-29 -69.5t-70 -28.5t-69.5 27.5t-28.5 68.5z " />
<glyph unicode="&#xf7;" d="M18 635v127h986v-127h-986zM403 313q0 45 32 76t75 31q45 0 75.5 -31t30.5 -76t-30.5 -75.5t-75.5 -30.5q-43 0 -75 30.5t-32 75.5zM403 1083q0 45 32 76t75 31q45 0 75.5 -31t30.5 -76t-30.5 -75.5t-75.5 -30.5q-43 0 -75 30.5t-32 75.5z" />
<glyph unicode="&#xf8;" horiz-adv-x="1040" d="M63 418q0 104 35 191t96.5 148.5t147.5 96.5t188 35q72 0 127.5 -14.5t108.5 -47.5l65 91l70 -48l-67 -92q72 -63 107.5 -144t35.5 -190q0 -104 -35 -189t-97.5 -146.5t-150.5 -95t-192 -33.5q-53 0 -101.5 9t-105.5 29l-76 -102l-69 49l69 96q-76 61 -116 152.5 t-40 204.5zM299 479q0 -76 10 -137t33 -123l328 483q-39 51 -77 74t-85 23q-98 0 -153.5 -85t-55.5 -235zM387 137q31 -41 63.5 -58.5t79.5 -17.5q100 0 155.5 83t55.5 237q0 66 -7 118t-23 113z" />
<glyph unicode="&#xf9;" horiz-adv-x="1120" d="M59 768v78h37q133 0 316 33l-2 -56l-2 -90l-2 -80v-340q0 -104 30.5 -149t102.5 -45q39 0 73.5 15.5t89.5 58.5v380v48v65q0 29 -3 45.5t-11 24.5t-26.5 10t-49.5 2h-30v78h51q66 0 148.5 8t166.5 25q-8 -82 -10 -133.5t-2 -114.5v-328v-24q0 -49 4 -79t14.5 -46.5 t31 -21.5t52.5 -5h11v-76q-39 -6 -69 -13t-58.5 -14.5t-58 -16.5t-66.5 -21l-47 -19l-48 33v96q-61 -55 -134.5 -85.5t-145.5 -30.5q-72 2 -128 33.5t-85 86.5q-16 37 -24.5 84t-8.5 125v264v48q0 29 -1 45t-1 20q0 29 -2 45.5t-12 24.5t-28.5 10t-53.5 2h-19zM334 1094 q-8 12 10 20l129 74l223 -187l-24 -40l-326 122q-4 2 -6 4q-6 4 -6 7z" />
<glyph unicode="&#xfa;" horiz-adv-x="1120" d="M59 768v78h37q133 0 316 33l-2 -56l-2 -90l-2 -80v-340q0 -104 30.5 -149t102.5 -45q39 0 73.5 15.5t89.5 58.5v380v48v65q0 29 -3 45.5t-11 24.5t-26.5 10t-49.5 2h-30v78h51q66 0 148.5 8t166.5 25q-8 -82 -10 -133.5t-2 -114.5v-328v-24q0 -49 4 -79t14.5 -46.5 t31 -21.5t52.5 -5h11v-76q-39 -6 -69 -13t-58.5 -14.5t-58 -16.5t-66.5 -21l-47 -19l-48 33v96q-61 -55 -134.5 -85.5t-145.5 -30.5q-72 2 -128 33.5t-85 86.5q-16 37 -24.5 84t-8.5 125v264v48q0 29 -1 45t-1 20q0 29 -2 45.5t-12 24.5t-28.5 10t-53.5 2h-19zM336 1001 l225 189l135 -78q14 -8 9 -18q-4 -6 -13 -9l-330 -124z" />
<glyph unicode="&#xfb;" horiz-adv-x="1120" d="M59 768v78h37q133 0 316 33l-2 -56l-2 -90l-2 -80v-340q0 -104 30.5 -149t102.5 -45q39 0 73.5 15.5t89.5 58.5v380v48v65q0 29 -3 45.5t-11 24.5t-26.5 10t-49.5 2h-30v78h51q66 0 148.5 8t166.5 25q-8 -82 -10 -133.5t-2 -114.5v-328v-24q0 -49 4 -79t14.5 -46.5 t31 -21.5t52.5 -5h11v-76q-39 -6 -69 -13t-58.5 -14.5t-58 -16.5t-66.5 -21l-47 -19l-48 33v96q-61 -55 -134.5 -85.5t-145.5 -30.5q-72 2 -128 33.5t-85 86.5q-16 37 -24.5 84t-8.5 125v264v48q0 29 -1 45t-1 20q0 29 -2 45.5t-12 24.5t-28.5 10t-53.5 2h-19zM365 971 l131 178l108 -2l127 -176l-35 -17l-149 105l-148 -103z" />
<glyph unicode="&#xfc;" horiz-adv-x="1120" d="M59 768v78h37q133 0 316 33l-2 -56l-2 -90l-2 -80v-340q0 -104 30.5 -149t102.5 -45q39 0 73.5 15.5t89.5 58.5v380v48v65q0 29 -3 45.5t-11 24.5t-26.5 10t-49.5 2h-30v78h51q66 0 148.5 8t166.5 25q-8 -82 -10 -133.5t-2 -114.5v-328v-24q0 -49 4 -79t14.5 -46.5 t31 -21.5t52.5 -5h11v-76q-39 -6 -69 -13t-58.5 -14.5t-58 -16.5t-66.5 -21l-47 -19l-48 33v96q-61 -55 -134.5 -85.5t-145.5 -30.5q-72 2 -128 33.5t-85 86.5q-16 37 -24.5 84t-8.5 125v264v48q0 29 -1 45t-1 20q0 29 -2 45.5t-12 24.5t-28.5 10t-53.5 2h-19zM254 1055 q0 41 28.5 69.5t69.5 28.5t70 -27.5t29 -68.5t-29 -70t-70 -29t-69.5 28t-28.5 69zM541 1055q0 41 28.5 69.5t69.5 28.5t69.5 -27.5t28.5 -68.5t-28.5 -70t-69.5 -29t-69.5 28t-28.5 69z" />
<glyph unicode="&#xff;" horiz-adv-x="917" d="M-12 778v78q33 -2 56.5 -4t47 -3t51 -1h68.5h77.5t56.5 1t51.5 3t60.5 4v-76h-15q-45 -2 -63.5 -17t-18.5 -52q0 -14 3.5 -25.5t19.5 -56.5l133 -361l119 316q16 41 25.5 77.5t9.5 53.5q0 63 -82 63h-19v78q66 -4 109 -6t106 -2q55 0 85 2t81 6v-76q-66 -2 -107.5 -43 t-86.5 -151l-250 -592l-37 -88q-43 -104 -86 -181t-82 -118q-68 -74 -156 -74q-59 0 -92 27.5t-33 77.5q0 49 29 77.5t80 28.5h25q10 -2 16 -2h14q53 0 108.5 67.5t90.5 172.5l-250 639q-33 90 -62.5 120.5t-82.5 36.5zM225 1049q0 41 29 69.5t70 28.5t69.5 -27.5 t28.5 -68.5t-28.5 -70t-69.5 -29t-70 28t-29 69zM512 1049q0 41 28.5 69.5t69.5 28.5t70 -27.5t29 -68.5t-29 -70t-70 -29t-69.5 28t-28.5 69z" />
<glyph unicode="&#x152;" horiz-adv-x="2054" d="M70 674q0 160 57 293t159.5 229t244 149.5t311.5 53.5q37 0 65.5 -1t56 -5t58.5 -11.5t72 -17.5h526h92l135 2l45 -2q0 -45 1 -80t3 -67.5t6.5 -66.5t10.5 -79l4 -39l-86 -10q-4 12 -6 22.5t-4 16.5q-14 66 -35 105.5t-57.5 61t-96 29t-155.5 7.5h-189q80 -61 136.5 -132 t91.5 -161q10 -27 17 -49.5t12 -45t9.5 -50t6.5 -64.5q10 -2 17 -2h13q72 0 101.5 37t31.5 129h84q-2 -37 -4 -66t-3 -53.5t-1 -51v-61.5v-56.5t1 -45t3 -45t4 -55.5h-84q-2 100 -30.5 135t-110.5 35h-22q-6 -76 -16.5 -137.5t-28 -113t-42 -96.5t-59.5 -88 q-18 -23 -33.5 -40t-32 -31.5t-36 -27.5t-47.5 -32h346q86 0 135 17.5t92 62.5q35 37 56.5 75t48.5 114l84 -25q-29 -98 -49.5 -180t-34.5 -160h-873q-37 -10 -65.5 -17.5t-55 -10.5t-56.5 -4t-69 -1q-168 0 -307 51.5t-239.5 143.5t-154.5 222t-54 290zM348 688 q0 -135 37 -248.5t102.5 -195.5t156.5 -128t200 -46h16t21 4v1210q-18 4 -28.5 5t-29.5 1q-217 0 -336 -160q-66 -88 -102.5 -202.5t-36.5 -239.5zM1114 154q215 178 215 479v29h-215v-508zM1114 762h209q-8 139 -58.5 244.5t-150.5 193.5v-438z" />
<glyph unicode="&#x153;" horiz-adv-x="1560" d="M63 420q0 98 35 182t97.5 145.5t147.5 95.5t185 34q219 0 338 -148q127 147 318 148q68 0 126 -19.5t101 -55.5t67.5 -84t24.5 -104q0 -47 -17.5 -61t-70.5 -14h-448q-6 -49 -6 -74q0 -74 22.5 -136.5t62 -108.5t94 -72.5t117.5 -26.5q59 0 109.5 19.5t103.5 66.5l50 -55 q-137 -172 -367 -172q-100 0 -167.5 30.5t-131.5 106.5q-78 -76 -154.5 -106.5t-181.5 -30.5q-100 0 -183 31.5t-143.5 90t-94.5 139.5t-34 179zM301 440q0 -176 59.5 -274t165.5 -98q104 0 163 94t59 266q0 164 -62 263.5t-164 99.5q-104 0 -162.5 -92.5t-58.5 -258.5z M981 623h244l22 2q31 2 43.5 11t12.5 32q0 53 -40 90t-100 37q-72 0 -122 -48.5t-60 -123.5z" />
<glyph unicode="&#x178;" horiz-adv-x="1200" d="M-61 1288v76q49 -2 84.5 -4t66.5 -4t61.5 -2h67.5h67.5t65.5 2t77 4t97 4v-76q-61 -4 -82.5 -18.5t-21.5 -50.5q0 -23 17.5 -66t47.5 -96l191 -344l158 295q45 84 64.5 132t19.5 77q0 41 -25 56t-88 15v76q37 -2 65.5 -4t52 -4t47 -2h52.5h52.5t51 2t61.5 4t81 4v-76 q-41 0 -72 -11t-60.5 -37t-59 -71t-68.5 -116l-269 -486v-198v-90q0 -61 6.5 -100.5t21.5 -63t41 -31.5t67 -8h26v-76q-49 2 -88 4t-74.5 3t-71.5 2t-79 1h-70t-59.5 -2t-61 -3t-77.5 -5v76h30q41 0 66.5 8t41 31.5t21.5 62.5t6 101v90v198l-274 455l-47 80 q-59 100 -107.5 140t-119.5 46zM373 1561q0 41 28.5 69.5t69.5 28.5t69.5 -27.5t28.5 -68.5t-28.5 -70t-69.5 -29t-69.5 28t-28.5 69zM659 1561q0 41 29 69.5t70 28.5t69.5 -27.5t28.5 -68.5t-28.5 -70t-69.5 -29t-70 28t-29 69z" />
<glyph unicode="&#x2c6;" horiz-adv-x="749" d="M135 1014l170 356l141 -2l166 -354l-47 -31l-192 209l-193 -207z" />
<glyph unicode="&#x2dc;" horiz-adv-x="866" d="M135 1071q12 129 46 186.5t100 57.5q16 0 47.5 -9.5t109.5 -35.5q39 -12 62.5 -19.5t39 -12.5t24.5 -6t18 -1q57 0 77 69l70 3q-8 -127 -46 -184.5t-112 -57.5q-12 0 -22 1t-24.5 5t-37 11t-57.5 20q-53 20 -91 29.5t-58 9.5q-29 0 -46.5 -15.5t-29.5 -52.5z" />
<glyph unicode="&#x2000;" horiz-adv-x="856" />
<glyph unicode="&#x2001;" horiz-adv-x="1712" />
<glyph unicode="&#x2002;" horiz-adv-x="856" />
<glyph unicode="&#x2003;" horiz-adv-x="1712" />
<glyph unicode="&#x2004;" horiz-adv-x="570" />
<glyph unicode="&#x2005;" horiz-adv-x="428" />
<glyph unicode="&#x2006;" horiz-adv-x="285" />
<glyph unicode="&#x2007;" horiz-adv-x="285" />
<glyph unicode="&#x2008;" horiz-adv-x="214" />
<glyph unicode="&#x2009;" horiz-adv-x="342" />
<glyph unicode="&#x200a;" horiz-adv-x="95" />
<glyph unicode="&#x2010;" horiz-adv-x="524" d="M0 354v181h524v-181h-524z" />
<glyph unicode="&#x2011;" horiz-adv-x="524" d="M0 354v181h524v-181h-524z" />
<glyph unicode="&#x2012;" horiz-adv-x="524" d="M0 354v181h524v-181h-524z" />
<glyph unicode="&#x2013;" d="M18 635v127h986v-127h-986z" />
<glyph unicode="&#x2014;" horiz-adv-x="1314" d="M0 358v174h1315v-174h-1315z" />
<glyph unicode="&#x2018;" horiz-adv-x="516" d="M88 1145q0 145 90 228t248 87l-4 -71q-86 -4 -139.5 -45t-53.5 -107q0 -45 43 -45h21q57 -2 96 -41t39 -98q0 -63 -45 -106.5t-111 -43.5q-82 0 -133 67.5t-51 174.5z" />
<glyph unicode="&#x2019;" horiz-adv-x="516" d="M88 903l4 72q86 4 140.5 45t54.5 106q0 45 -45 45l-21 3q-57 0 -95 38.5t-38 98.5q0 63 44 106t110 43q82 0 134 -66.5t52 -172.5q0 -147 -90 -230.5t-250 -87.5z" />
<glyph unicode="&#x201a;" horiz-adv-x="516" d="M88 117q0 66 44 107.5t110 41.5q82 0 134 -66.5t52 -172.5q0 -143 -90 -227.5t-250 -86.5l4 72q86 2 140.5 44t54.5 105q0 47 -45 48h-21q-57 2 -95 39.5t-38 95.5z" />
<glyph unicode="&#x201c;" horiz-adv-x="952" d="M88 1145q0 145 90 228t248 87l-4 -71q-86 -4 -139.5 -45t-53.5 -107q0 -45 43 -45h21q57 -2 96 -41t39 -98q0 -63 -45 -106.5t-111 -43.5q-82 0 -133 67.5t-51 174.5zM524 1145q0 145 90.5 228t247.5 87l-4 -71q-86 -4 -139 -45t-53 -107q0 -45 45 -45h18q59 -2 97 -41 t38 -98q0 -63 -44 -106.5t-109 -43.5q-84 0 -135.5 67.5t-51.5 174.5z" />
<glyph unicode="&#x201d;" horiz-adv-x="952" d="M88 903l4 72q86 4 140.5 45t54.5 106q0 45 -45 45l-21 3q-57 0 -95 38.5t-38 98.5q0 63 44 106t110 43q82 0 134 -66.5t52 -172.5q0 -147 -90 -230.5t-250 -87.5zM524 1311q0 63 45 106t111 43q82 0 133 -66.5t51 -172.5q0 -147 -90 -230.5t-248 -87.5l4 72 q86 4 139.5 45t53.5 106q0 45 -45 45l-19 3q-59 0 -97 38.5t-38 98.5z" />
<glyph unicode="&#x201e;" horiz-adv-x="952" d="M88 117q0 66 44 107.5t110 41.5q82 0 134 -66.5t52 -172.5q0 -143 -90 -227.5t-250 -86.5l4 72q86 2 140.5 44t54.5 105q0 47 -45 48h-21q-57 2 -95 39.5t-38 95.5zM524 117q0 66 45 107.5t111 41.5q82 0 133 -66.5t51 -172.5q0 -143 -90 -227.5t-248 -86.5l4 72 q86 2 139.5 44t53.5 105q0 47 -45 48h-19q-59 2 -97 39.5t-38 95.5z" />
<glyph unicode="&#x2022;" horiz-adv-x="669" d="M168 692q0 70 48 119t118 49t118 -49t48 -119t-48.5 -118t-117.5 -48q-70 0 -118 48.5t-48 117.5z" />
<glyph unicode="&#x2026;" horiz-adv-x="1460" d="M94 133q0 59 44.5 102.5t105.5 43.5q59 0 103 -42t44 -102q0 -63 -44 -106t-105 -43t-104.5 43t-43.5 104zM582 133q0 59 43 102.5t104 43.5t104.5 -42t43.5 -102q0 -63 -43 -106t-105 -43q-61 0 -104 43t-43 104zM1069 133q0 59 43.5 102.5t104.5 43.5t104 -42t43 -102 q0 -63 -43 -106t-104 -43t-104.5 43t-43.5 104z" />
<glyph unicode="&#x202f;" horiz-adv-x="342" />
<glyph unicode="&#x2039;" horiz-adv-x="505" d="M61 418v45l320 285l49 -33l-180 -277l180 -272l-49 -29z" />
<glyph unicode="&#x203a;" horiz-adv-x="505" d="M74 170l180 279l-180 270l49 29l321 -279v-45l-321 -287z" />
<glyph unicode="&#x205f;" horiz-adv-x="428" />
<glyph unicode="&#x2122;" horiz-adv-x="1746" d="M23 1262v102h661v-102h-268v-715h-123v715h-270zM782 545v819h179l247 -602l256 602h176v-817h-110v700l-285 -702h-71l-277 700v-700h-115z" />
<glyph unicode="&#x25fc;" horiz-adv-x="860" d="M0 0v860h860v-860h-860z" />
</font>
</defs>
</svg>
